G04 EAGLE Gerber RS-274X export*
G75*
%MOMM*%
%FSLAX34Y34*%
%LPD*%
%INTop Copper*%
%IPPOS*%
%AMOC8*
5,1,8,0,0,1.08239X$1,22.5*%
G01*
%ADD10C,0.130000*%
%ADD11C,0.152400*%
%ADD12C,2.247900*%
%ADD13C,1.524000*%
%ADD14P,1.632244X8X22.500000*%
%ADD15C,1.790700*%
%ADD16C,1.800000*%
%ADD17P,1.814519X8X22.500000*%
%ADD18P,1.814519X8X202.500000*%
%ADD19C,0.304800*%
%ADD20C,0.756400*%


D10*
X0Y0D02*
X0Y-171900D01*
X1927100Y-171900D02*
X1927100Y0D01*
X1926450Y-152400D02*
X650Y-152400D01*
X26000Y-149208D01*
X26000Y-155592D01*
X650Y-152400D01*
X26000Y-151100D01*
X26000Y-153700D02*
X650Y-152400D01*
X26000Y-149800D01*
X26000Y-155000D02*
X650Y-152400D01*
X1901100Y-149208D02*
X1926450Y-152400D01*
X1901100Y-149208D02*
X1901100Y-155592D01*
X1926450Y-152400D01*
X1901100Y-151100D01*
X1901100Y-153700D02*
X1926450Y-152400D01*
X1901100Y-149800D01*
X1901100Y-155000D02*
X1926450Y-152400D01*
D11*
X929821Y-129637D02*
X925306Y-133249D01*
X929821Y-129637D02*
X929821Y-145893D01*
X925306Y-145893D02*
X934337Y-145893D01*
X944550Y-138668D02*
X949968Y-138668D01*
X944550Y-138668D02*
X944432Y-138666D01*
X944314Y-138660D01*
X944196Y-138651D01*
X944079Y-138637D01*
X943962Y-138620D01*
X943845Y-138599D01*
X943730Y-138574D01*
X943615Y-138545D01*
X943501Y-138512D01*
X943389Y-138476D01*
X943278Y-138436D01*
X943168Y-138393D01*
X943059Y-138346D01*
X942952Y-138296D01*
X942847Y-138241D01*
X942744Y-138184D01*
X942643Y-138123D01*
X942543Y-138059D01*
X942446Y-137992D01*
X942351Y-137922D01*
X942259Y-137848D01*
X942168Y-137772D01*
X942081Y-137692D01*
X941996Y-137610D01*
X941914Y-137525D01*
X941834Y-137438D01*
X941758Y-137347D01*
X941684Y-137255D01*
X941614Y-137160D01*
X941547Y-137063D01*
X941483Y-136963D01*
X941422Y-136862D01*
X941365Y-136759D01*
X941310Y-136654D01*
X941260Y-136547D01*
X941213Y-136438D01*
X941170Y-136328D01*
X941130Y-136217D01*
X941094Y-136105D01*
X941061Y-135991D01*
X941032Y-135876D01*
X941007Y-135761D01*
X940986Y-135644D01*
X940969Y-135527D01*
X940955Y-135410D01*
X940946Y-135292D01*
X940940Y-135174D01*
X940938Y-135056D01*
X940937Y-135056D02*
X940937Y-134153D01*
X940939Y-134020D01*
X940945Y-133888D01*
X940955Y-133756D01*
X940968Y-133624D01*
X940986Y-133492D01*
X941007Y-133362D01*
X941032Y-133231D01*
X941061Y-133102D01*
X941094Y-132974D01*
X941130Y-132846D01*
X941170Y-132720D01*
X941214Y-132595D01*
X941262Y-132471D01*
X941313Y-132349D01*
X941368Y-132228D01*
X941426Y-132109D01*
X941488Y-131991D01*
X941553Y-131876D01*
X941622Y-131762D01*
X941693Y-131651D01*
X941769Y-131542D01*
X941847Y-131435D01*
X941928Y-131330D01*
X942013Y-131228D01*
X942100Y-131128D01*
X942190Y-131031D01*
X942283Y-130936D01*
X942379Y-130845D01*
X942477Y-130756D01*
X942578Y-130670D01*
X942682Y-130587D01*
X942788Y-130507D01*
X942896Y-130431D01*
X943006Y-130357D01*
X943119Y-130287D01*
X943233Y-130220D01*
X943350Y-130157D01*
X943468Y-130097D01*
X943588Y-130040D01*
X943710Y-129987D01*
X943833Y-129938D01*
X943957Y-129892D01*
X944083Y-129850D01*
X944210Y-129812D01*
X944338Y-129777D01*
X944467Y-129746D01*
X944596Y-129719D01*
X944727Y-129696D01*
X944858Y-129676D01*
X944990Y-129661D01*
X945122Y-129649D01*
X945254Y-129641D01*
X945387Y-129637D01*
X945519Y-129637D01*
X945652Y-129641D01*
X945784Y-129649D01*
X945916Y-129661D01*
X946048Y-129676D01*
X946179Y-129696D01*
X946310Y-129719D01*
X946439Y-129746D01*
X946568Y-129777D01*
X946696Y-129812D01*
X946823Y-129850D01*
X946949Y-129892D01*
X947073Y-129938D01*
X947196Y-129987D01*
X947318Y-130040D01*
X947438Y-130097D01*
X947556Y-130157D01*
X947673Y-130220D01*
X947787Y-130287D01*
X947900Y-130357D01*
X948010Y-130431D01*
X948118Y-130507D01*
X948224Y-130587D01*
X948328Y-130670D01*
X948429Y-130756D01*
X948527Y-130845D01*
X948623Y-130936D01*
X948716Y-131031D01*
X948806Y-131128D01*
X948893Y-131228D01*
X948978Y-131330D01*
X949059Y-131435D01*
X949137Y-131542D01*
X949213Y-131651D01*
X949284Y-131762D01*
X949353Y-131876D01*
X949418Y-131991D01*
X949480Y-132109D01*
X949538Y-132228D01*
X949593Y-132349D01*
X949644Y-132471D01*
X949692Y-132595D01*
X949736Y-132720D01*
X949776Y-132846D01*
X949812Y-132974D01*
X949845Y-133102D01*
X949874Y-133231D01*
X949899Y-133362D01*
X949920Y-133492D01*
X949938Y-133624D01*
X949951Y-133756D01*
X949961Y-133888D01*
X949967Y-134020D01*
X949969Y-134153D01*
X949968Y-134153D02*
X949968Y-138668D01*
X949966Y-138843D01*
X949960Y-139017D01*
X949949Y-139191D01*
X949934Y-139365D01*
X949915Y-139539D01*
X949892Y-139712D01*
X949865Y-139884D01*
X949833Y-140056D01*
X949798Y-140227D01*
X949758Y-140397D01*
X949714Y-140566D01*
X949666Y-140734D01*
X949614Y-140901D01*
X949558Y-141066D01*
X949498Y-141230D01*
X949435Y-141393D01*
X949367Y-141553D01*
X949295Y-141713D01*
X949220Y-141870D01*
X949140Y-142026D01*
X949057Y-142179D01*
X948971Y-142331D01*
X948880Y-142480D01*
X948786Y-142627D01*
X948689Y-142772D01*
X948588Y-142915D01*
X948484Y-143055D01*
X948376Y-143192D01*
X948265Y-143327D01*
X948151Y-143459D01*
X948034Y-143588D01*
X947913Y-143715D01*
X947790Y-143838D01*
X947663Y-143959D01*
X947534Y-144076D01*
X947402Y-144190D01*
X947267Y-144301D01*
X947130Y-144409D01*
X946990Y-144513D01*
X946847Y-144614D01*
X946702Y-144711D01*
X946555Y-144805D01*
X946406Y-144896D01*
X946254Y-144982D01*
X946101Y-145065D01*
X945945Y-145145D01*
X945788Y-145220D01*
X945628Y-145292D01*
X945468Y-145360D01*
X945305Y-145423D01*
X945141Y-145483D01*
X944976Y-145539D01*
X944809Y-145591D01*
X944641Y-145639D01*
X944472Y-145683D01*
X944302Y-145723D01*
X944131Y-145758D01*
X943959Y-145790D01*
X943787Y-145817D01*
X943614Y-145840D01*
X943440Y-145859D01*
X943266Y-145874D01*
X943092Y-145885D01*
X942918Y-145891D01*
X942743Y-145893D01*
X961535Y-129637D02*
X961660Y-129639D01*
X961785Y-129645D01*
X961910Y-129654D01*
X962034Y-129668D01*
X962158Y-129685D01*
X962282Y-129706D01*
X962404Y-129731D01*
X962526Y-129760D01*
X962647Y-129792D01*
X962767Y-129828D01*
X962886Y-129868D01*
X963003Y-129911D01*
X963119Y-129958D01*
X963234Y-130009D01*
X963346Y-130063D01*
X963458Y-130121D01*
X963567Y-130181D01*
X963674Y-130246D01*
X963780Y-130313D01*
X963883Y-130384D01*
X963984Y-130458D01*
X964083Y-130535D01*
X964179Y-130615D01*
X964273Y-130698D01*
X964364Y-130783D01*
X964453Y-130872D01*
X964538Y-130963D01*
X964621Y-131057D01*
X964701Y-131153D01*
X964778Y-131252D01*
X964852Y-131353D01*
X964923Y-131456D01*
X964990Y-131562D01*
X965055Y-131669D01*
X965115Y-131778D01*
X965173Y-131890D01*
X965227Y-132002D01*
X965278Y-132117D01*
X965325Y-132233D01*
X965368Y-132350D01*
X965408Y-132469D01*
X965444Y-132589D01*
X965476Y-132710D01*
X965505Y-132832D01*
X965530Y-132954D01*
X965551Y-133078D01*
X965568Y-133202D01*
X965582Y-133326D01*
X965591Y-133451D01*
X965597Y-133576D01*
X965599Y-133701D01*
X961535Y-129637D02*
X961392Y-129639D01*
X961250Y-129645D01*
X961107Y-129655D01*
X960965Y-129668D01*
X960824Y-129686D01*
X960682Y-129707D01*
X960542Y-129732D01*
X960402Y-129761D01*
X960263Y-129794D01*
X960125Y-129831D01*
X959988Y-129871D01*
X959853Y-129915D01*
X959718Y-129963D01*
X959585Y-130015D01*
X959453Y-130070D01*
X959323Y-130129D01*
X959195Y-130191D01*
X959068Y-130257D01*
X958943Y-130326D01*
X958820Y-130398D01*
X958699Y-130474D01*
X958581Y-130553D01*
X958464Y-130636D01*
X958350Y-130721D01*
X958238Y-130810D01*
X958129Y-130901D01*
X958022Y-130996D01*
X957917Y-131093D01*
X957816Y-131194D01*
X957717Y-131297D01*
X957621Y-131402D01*
X957528Y-131511D01*
X957438Y-131622D01*
X957351Y-131735D01*
X957267Y-131850D01*
X957187Y-131968D01*
X957109Y-132088D01*
X957035Y-132210D01*
X956965Y-132334D01*
X956897Y-132460D01*
X956834Y-132588D01*
X956773Y-132717D01*
X956716Y-132848D01*
X956663Y-132980D01*
X956614Y-133114D01*
X956568Y-133249D01*
X964244Y-136862D02*
X964338Y-136770D01*
X964428Y-136676D01*
X964516Y-136579D01*
X964601Y-136479D01*
X964683Y-136377D01*
X964761Y-136272D01*
X964837Y-136165D01*
X964909Y-136056D01*
X964978Y-135945D01*
X965044Y-135831D01*
X965106Y-135716D01*
X965165Y-135599D01*
X965220Y-135480D01*
X965271Y-135360D01*
X965319Y-135238D01*
X965364Y-135115D01*
X965404Y-134991D01*
X965441Y-134865D01*
X965474Y-134738D01*
X965503Y-134611D01*
X965529Y-134482D01*
X965550Y-134353D01*
X965568Y-134223D01*
X965581Y-134093D01*
X965591Y-133963D01*
X965597Y-133832D01*
X965599Y-133701D01*
X964245Y-136862D02*
X956568Y-145893D01*
X965599Y-145893D01*
X971574Y-145893D02*
X971574Y-144990D01*
X972477Y-144990D01*
X972477Y-145893D01*
X971574Y-145893D01*
X978452Y-131443D02*
X978452Y-129637D01*
X987483Y-129637D01*
X982968Y-145893D01*
X994083Y-133249D02*
X998599Y-129637D01*
X998599Y-145893D01*
X1003114Y-145893D02*
X994083Y-145893D01*
D10*
X1927100Y0D02*
X2064200Y0D01*
X2064200Y736500D02*
X1927100Y736500D01*
X2044700Y735850D02*
X2044700Y650D01*
X2041508Y26000D01*
X2047892Y26000D01*
X2044700Y650D01*
X2043400Y26000D01*
X2046000Y26000D02*
X2044700Y650D01*
X2042100Y26000D01*
X2047300Y26000D02*
X2044700Y650D01*
X2041508Y710500D02*
X2044700Y735850D01*
X2041508Y710500D02*
X2047892Y710500D01*
X2044700Y735850D01*
X2043400Y710500D01*
X2046000Y710500D02*
X2044700Y735850D01*
X2042100Y710500D01*
X2047300Y710500D02*
X2044700Y735850D01*
D11*
X2023743Y337102D02*
X2021937Y337102D01*
X2021937Y346133D01*
X2038193Y341618D01*
X2038193Y352733D02*
X2038193Y357249D01*
X2038191Y357382D01*
X2038185Y357514D01*
X2038175Y357646D01*
X2038162Y357778D01*
X2038144Y357910D01*
X2038123Y358040D01*
X2038098Y358171D01*
X2038069Y358300D01*
X2038036Y358428D01*
X2038000Y358556D01*
X2037960Y358682D01*
X2037916Y358807D01*
X2037868Y358931D01*
X2037817Y359053D01*
X2037762Y359174D01*
X2037704Y359293D01*
X2037642Y359411D01*
X2037577Y359526D01*
X2037508Y359640D01*
X2037437Y359751D01*
X2037361Y359860D01*
X2037283Y359967D01*
X2037202Y360072D01*
X2037117Y360174D01*
X2037030Y360274D01*
X2036940Y360371D01*
X2036847Y360466D01*
X2036751Y360557D01*
X2036653Y360646D01*
X2036552Y360732D01*
X2036448Y360815D01*
X2036342Y360895D01*
X2036234Y360971D01*
X2036124Y361045D01*
X2036011Y361115D01*
X2035897Y361182D01*
X2035780Y361245D01*
X2035662Y361305D01*
X2035542Y361362D01*
X2035420Y361415D01*
X2035297Y361464D01*
X2035173Y361510D01*
X2035047Y361552D01*
X2034920Y361590D01*
X2034792Y361625D01*
X2034663Y361656D01*
X2034534Y361683D01*
X2034403Y361706D01*
X2034272Y361726D01*
X2034140Y361741D01*
X2034008Y361753D01*
X2033876Y361761D01*
X2033743Y361765D01*
X2033611Y361765D01*
X2033478Y361761D01*
X2033346Y361753D01*
X2033214Y361741D01*
X2033082Y361726D01*
X2032951Y361706D01*
X2032820Y361683D01*
X2032691Y361656D01*
X2032562Y361625D01*
X2032434Y361590D01*
X2032307Y361552D01*
X2032181Y361510D01*
X2032057Y361464D01*
X2031934Y361415D01*
X2031812Y361362D01*
X2031692Y361305D01*
X2031574Y361245D01*
X2031457Y361182D01*
X2031343Y361115D01*
X2031230Y361045D01*
X2031120Y360971D01*
X2031012Y360895D01*
X2030906Y360815D01*
X2030802Y360732D01*
X2030701Y360646D01*
X2030603Y360557D01*
X2030507Y360466D01*
X2030414Y360371D01*
X2030324Y360274D01*
X2030237Y360174D01*
X2030152Y360072D01*
X2030071Y359967D01*
X2029993Y359860D01*
X2029917Y359751D01*
X2029846Y359640D01*
X2029777Y359526D01*
X2029712Y359411D01*
X2029650Y359293D01*
X2029592Y359174D01*
X2029537Y359053D01*
X2029486Y358931D01*
X2029438Y358807D01*
X2029394Y358682D01*
X2029354Y358556D01*
X2029318Y358428D01*
X2029285Y358300D01*
X2029256Y358171D01*
X2029231Y358040D01*
X2029210Y357910D01*
X2029192Y357778D01*
X2029179Y357646D01*
X2029169Y357514D01*
X2029163Y357382D01*
X2029161Y357249D01*
X2021937Y358152D02*
X2021937Y352733D01*
X2021937Y358152D02*
X2021939Y358271D01*
X2021945Y358391D01*
X2021955Y358510D01*
X2021969Y358628D01*
X2021986Y358747D01*
X2022008Y358864D01*
X2022033Y358981D01*
X2022063Y359096D01*
X2022096Y359211D01*
X2022133Y359325D01*
X2022173Y359437D01*
X2022218Y359548D01*
X2022266Y359657D01*
X2022317Y359765D01*
X2022372Y359871D01*
X2022431Y359975D01*
X2022493Y360077D01*
X2022558Y360177D01*
X2022627Y360275D01*
X2022699Y360371D01*
X2022774Y360464D01*
X2022851Y360554D01*
X2022932Y360642D01*
X2023016Y360727D01*
X2023103Y360809D01*
X2023192Y360889D01*
X2023284Y360965D01*
X2023378Y361039D01*
X2023475Y361109D01*
X2023573Y361176D01*
X2023674Y361240D01*
X2023778Y361300D01*
X2023883Y361357D01*
X2023990Y361410D01*
X2024098Y361460D01*
X2024208Y361506D01*
X2024320Y361548D01*
X2024433Y361587D01*
X2024547Y361622D01*
X2024662Y361653D01*
X2024779Y361681D01*
X2024896Y361704D01*
X2025013Y361724D01*
X2025132Y361740D01*
X2025251Y361752D01*
X2025370Y361760D01*
X2025489Y361764D01*
X2025609Y361764D01*
X2025728Y361760D01*
X2025847Y361752D01*
X2025966Y361740D01*
X2026085Y361724D01*
X2026202Y361704D01*
X2026319Y361681D01*
X2026436Y361653D01*
X2026551Y361622D01*
X2026665Y361587D01*
X2026778Y361548D01*
X2026890Y361506D01*
X2027000Y361460D01*
X2027108Y361410D01*
X2027215Y361357D01*
X2027320Y361300D01*
X2027424Y361240D01*
X2027525Y361176D01*
X2027623Y361109D01*
X2027720Y361039D01*
X2027814Y360965D01*
X2027906Y360889D01*
X2027995Y360809D01*
X2028082Y360727D01*
X2028166Y360642D01*
X2028247Y360554D01*
X2028324Y360464D01*
X2028399Y360371D01*
X2028471Y360275D01*
X2028540Y360177D01*
X2028605Y360077D01*
X2028667Y359975D01*
X2028726Y359871D01*
X2028781Y359765D01*
X2028832Y359657D01*
X2028880Y359548D01*
X2028925Y359437D01*
X2028965Y359325D01*
X2029002Y359211D01*
X2029035Y359096D01*
X2029065Y358981D01*
X2029090Y358864D01*
X2029112Y358747D01*
X2029129Y358628D01*
X2029143Y358510D01*
X2029153Y358391D01*
X2029159Y358271D01*
X2029161Y358152D01*
X2029162Y358152D02*
X2029162Y354539D01*
X2037290Y367739D02*
X2038193Y367739D01*
X2037290Y367739D02*
X2037290Y368642D01*
X2038193Y368642D01*
X2038193Y367739D01*
X2029162Y374617D02*
X2029162Y380036D01*
X2029164Y380154D01*
X2029170Y380272D01*
X2029179Y380390D01*
X2029193Y380507D01*
X2029210Y380624D01*
X2029231Y380741D01*
X2029256Y380856D01*
X2029285Y380971D01*
X2029318Y381085D01*
X2029354Y381197D01*
X2029394Y381308D01*
X2029437Y381418D01*
X2029484Y381527D01*
X2029534Y381634D01*
X2029589Y381739D01*
X2029646Y381842D01*
X2029707Y381943D01*
X2029771Y382043D01*
X2029838Y382140D01*
X2029908Y382235D01*
X2029982Y382327D01*
X2030058Y382418D01*
X2030138Y382505D01*
X2030220Y382590D01*
X2030305Y382672D01*
X2030392Y382752D01*
X2030483Y382828D01*
X2030575Y382902D01*
X2030670Y382972D01*
X2030767Y383039D01*
X2030867Y383103D01*
X2030968Y383164D01*
X2031071Y383221D01*
X2031176Y383276D01*
X2031283Y383326D01*
X2031392Y383373D01*
X2031502Y383416D01*
X2031613Y383456D01*
X2031725Y383492D01*
X2031839Y383525D01*
X2031954Y383554D01*
X2032069Y383579D01*
X2032186Y383600D01*
X2032303Y383617D01*
X2032420Y383631D01*
X2032538Y383640D01*
X2032656Y383646D01*
X2032774Y383648D01*
X2033677Y383648D01*
X2033810Y383646D01*
X2033942Y383640D01*
X2034074Y383630D01*
X2034206Y383617D01*
X2034338Y383599D01*
X2034468Y383578D01*
X2034599Y383553D01*
X2034728Y383524D01*
X2034856Y383491D01*
X2034984Y383455D01*
X2035110Y383415D01*
X2035235Y383371D01*
X2035359Y383323D01*
X2035481Y383272D01*
X2035602Y383217D01*
X2035721Y383159D01*
X2035839Y383097D01*
X2035954Y383032D01*
X2036068Y382963D01*
X2036179Y382892D01*
X2036288Y382816D01*
X2036395Y382738D01*
X2036500Y382657D01*
X2036602Y382572D01*
X2036702Y382485D01*
X2036799Y382395D01*
X2036894Y382302D01*
X2036985Y382206D01*
X2037074Y382108D01*
X2037160Y382007D01*
X2037243Y381903D01*
X2037323Y381797D01*
X2037399Y381689D01*
X2037473Y381579D01*
X2037543Y381466D01*
X2037610Y381352D01*
X2037673Y381235D01*
X2037733Y381117D01*
X2037790Y380997D01*
X2037843Y380875D01*
X2037892Y380752D01*
X2037938Y380628D01*
X2037980Y380502D01*
X2038018Y380375D01*
X2038053Y380247D01*
X2038084Y380118D01*
X2038111Y379989D01*
X2038134Y379858D01*
X2038154Y379727D01*
X2038169Y379595D01*
X2038181Y379463D01*
X2038189Y379331D01*
X2038193Y379198D01*
X2038193Y379066D01*
X2038189Y378933D01*
X2038181Y378801D01*
X2038169Y378669D01*
X2038154Y378537D01*
X2038134Y378406D01*
X2038111Y378275D01*
X2038084Y378146D01*
X2038053Y378017D01*
X2038018Y377889D01*
X2037980Y377762D01*
X2037938Y377636D01*
X2037892Y377512D01*
X2037843Y377389D01*
X2037790Y377267D01*
X2037733Y377147D01*
X2037673Y377029D01*
X2037610Y376912D01*
X2037543Y376798D01*
X2037473Y376685D01*
X2037399Y376575D01*
X2037323Y376467D01*
X2037243Y376361D01*
X2037160Y376257D01*
X2037074Y376156D01*
X2036985Y376058D01*
X2036894Y375962D01*
X2036799Y375869D01*
X2036702Y375779D01*
X2036602Y375692D01*
X2036500Y375607D01*
X2036395Y375526D01*
X2036288Y375448D01*
X2036179Y375372D01*
X2036068Y375301D01*
X2035954Y375232D01*
X2035839Y375167D01*
X2035721Y375105D01*
X2035602Y375047D01*
X2035481Y374992D01*
X2035359Y374941D01*
X2035235Y374893D01*
X2035110Y374849D01*
X2034984Y374809D01*
X2034856Y374773D01*
X2034728Y374740D01*
X2034599Y374711D01*
X2034468Y374686D01*
X2034338Y374665D01*
X2034206Y374647D01*
X2034074Y374634D01*
X2033942Y374624D01*
X2033810Y374618D01*
X2033677Y374616D01*
X2033677Y374617D02*
X2029162Y374617D01*
X2028985Y374619D01*
X2028807Y374626D01*
X2028630Y374637D01*
X2028454Y374652D01*
X2028278Y374671D01*
X2028102Y374695D01*
X2027927Y374723D01*
X2027752Y374756D01*
X2027579Y374793D01*
X2027406Y374834D01*
X2027235Y374879D01*
X2027065Y374928D01*
X2026896Y374982D01*
X2026728Y375039D01*
X2026562Y375101D01*
X2026397Y375167D01*
X2026234Y375237D01*
X2026073Y375311D01*
X2025914Y375388D01*
X2025756Y375470D01*
X2025601Y375556D01*
X2025448Y375645D01*
X2025297Y375738D01*
X2025148Y375835D01*
X2025002Y375935D01*
X2024858Y376039D01*
X2024717Y376146D01*
X2024579Y376257D01*
X2024443Y376371D01*
X2024310Y376489D01*
X2024180Y376609D01*
X2024053Y376733D01*
X2023929Y376860D01*
X2023809Y376990D01*
X2023691Y377123D01*
X2023577Y377258D01*
X2023466Y377397D01*
X2023359Y377538D01*
X2023255Y377682D01*
X2023155Y377828D01*
X2023058Y377977D01*
X2022965Y378128D01*
X2022876Y378281D01*
X2022790Y378436D01*
X2022708Y378594D01*
X2022631Y378753D01*
X2022557Y378914D01*
X2022487Y379077D01*
X2022421Y379242D01*
X2022359Y379408D01*
X2022302Y379576D01*
X2022248Y379745D01*
X2022199Y379915D01*
X2022154Y380086D01*
X2022113Y380259D01*
X2022076Y380432D01*
X2022043Y380607D01*
X2022015Y380782D01*
X2021991Y380958D01*
X2021972Y381134D01*
X2021957Y381310D01*
X2021946Y381487D01*
X2021939Y381665D01*
X2021937Y381842D01*
X2038193Y390248D02*
X2038193Y395667D01*
X2038191Y395785D01*
X2038185Y395903D01*
X2038176Y396021D01*
X2038162Y396138D01*
X2038145Y396255D01*
X2038124Y396372D01*
X2038099Y396487D01*
X2038070Y396602D01*
X2038037Y396716D01*
X2038001Y396828D01*
X2037961Y396939D01*
X2037918Y397049D01*
X2037871Y397158D01*
X2037821Y397265D01*
X2037766Y397370D01*
X2037709Y397473D01*
X2037648Y397574D01*
X2037584Y397674D01*
X2037517Y397771D01*
X2037447Y397866D01*
X2037373Y397958D01*
X2037297Y398049D01*
X2037217Y398136D01*
X2037135Y398221D01*
X2037050Y398303D01*
X2036963Y398383D01*
X2036872Y398459D01*
X2036780Y398533D01*
X2036685Y398603D01*
X2036588Y398670D01*
X2036488Y398734D01*
X2036387Y398795D01*
X2036284Y398852D01*
X2036179Y398907D01*
X2036072Y398957D01*
X2035963Y399004D01*
X2035853Y399047D01*
X2035742Y399087D01*
X2035630Y399123D01*
X2035516Y399156D01*
X2035401Y399185D01*
X2035286Y399210D01*
X2035169Y399231D01*
X2035052Y399248D01*
X2034935Y399262D01*
X2034817Y399271D01*
X2034699Y399277D01*
X2034581Y399279D01*
X2032774Y399279D01*
X2032656Y399277D01*
X2032538Y399271D01*
X2032420Y399262D01*
X2032303Y399248D01*
X2032186Y399231D01*
X2032069Y399210D01*
X2031954Y399185D01*
X2031839Y399156D01*
X2031725Y399123D01*
X2031613Y399087D01*
X2031502Y399047D01*
X2031392Y399004D01*
X2031283Y398957D01*
X2031176Y398907D01*
X2031071Y398852D01*
X2030968Y398795D01*
X2030867Y398734D01*
X2030767Y398670D01*
X2030670Y398603D01*
X2030575Y398533D01*
X2030483Y398459D01*
X2030392Y398383D01*
X2030305Y398303D01*
X2030220Y398221D01*
X2030138Y398136D01*
X2030058Y398049D01*
X2029982Y397958D01*
X2029908Y397866D01*
X2029838Y397771D01*
X2029771Y397674D01*
X2029707Y397574D01*
X2029646Y397473D01*
X2029589Y397370D01*
X2029534Y397265D01*
X2029484Y397158D01*
X2029437Y397049D01*
X2029394Y396939D01*
X2029354Y396828D01*
X2029318Y396716D01*
X2029285Y396602D01*
X2029256Y396487D01*
X2029231Y396372D01*
X2029210Y396255D01*
X2029193Y396138D01*
X2029179Y396021D01*
X2029170Y395903D01*
X2029164Y395785D01*
X2029162Y395667D01*
X2029162Y390248D01*
X2021937Y390248D01*
X2021937Y399279D01*
D12*
X531940Y673100D02*
X509461Y673100D01*
X379540Y673100D02*
X357061Y673100D01*
X509461Y596900D02*
X531940Y596900D01*
X379540Y596900D02*
X357061Y596900D01*
D13*
X83820Y304800D02*
X68580Y304800D01*
X68580Y330200D02*
X83820Y330200D01*
X83820Y355600D02*
X68580Y355600D01*
X68580Y381000D02*
X83820Y381000D01*
X83820Y406400D02*
X68580Y406400D01*
X68580Y431800D02*
X83820Y431800D01*
X83820Y457200D02*
X68580Y457200D01*
X68580Y279400D02*
X83820Y279400D01*
X83820Y63500D02*
X68580Y63500D01*
X68580Y88900D02*
X83820Y88900D01*
X83820Y114300D02*
X68580Y114300D01*
X68580Y139700D02*
X83820Y139700D01*
X83820Y165100D02*
X68580Y165100D01*
X68580Y190500D02*
X83820Y190500D01*
X83820Y215900D02*
X68580Y215900D01*
X68580Y38100D02*
X83820Y38100D01*
X216100Y552180D02*
X216100Y567420D01*
X241100Y567420D02*
X241100Y552180D01*
X737800Y110220D02*
X737800Y94980D01*
X762800Y94980D02*
X762800Y110220D01*
X862800Y110220D02*
X862800Y94980D01*
X787800Y94980D02*
X787800Y110220D01*
X812800Y110220D02*
X812800Y94980D01*
X837800Y94980D02*
X837800Y110220D01*
X887800Y110220D02*
X887800Y94980D01*
X912800Y94980D02*
X912800Y110220D01*
X712800Y110220D02*
X712800Y94980D01*
X737800Y272780D02*
X737800Y288020D01*
X762800Y288020D02*
X762800Y272780D01*
X862800Y272780D02*
X862800Y288020D01*
X787800Y288020D02*
X787800Y272780D01*
X812800Y272780D02*
X812800Y288020D01*
X837800Y288020D02*
X837800Y272780D01*
X887800Y272780D02*
X887800Y288020D01*
X912800Y288020D02*
X912800Y272780D01*
X712800Y272780D02*
X712800Y288020D01*
X63900Y552180D02*
X63900Y567420D01*
X88900Y567420D02*
X88900Y552180D01*
X113900Y552180D02*
X113900Y567420D01*
D14*
X330200Y533400D03*
X330200Y508000D03*
X330200Y482600D03*
X330200Y457200D03*
X330200Y431800D03*
X330200Y406400D03*
X330200Y381000D03*
X330200Y355600D03*
X330200Y330200D03*
X330200Y304800D03*
X330200Y279400D03*
X330200Y254000D03*
X330200Y228600D03*
X330200Y203200D03*
X330200Y177800D03*
X330200Y152400D03*
X330200Y127000D03*
X330200Y101600D03*
X584200Y101600D03*
X584200Y127000D03*
X584200Y152400D03*
X584200Y177800D03*
X584200Y203200D03*
X584200Y228600D03*
X584200Y254000D03*
X584200Y279400D03*
X584200Y304800D03*
X584200Y330200D03*
X584200Y355600D03*
X584200Y381000D03*
X584200Y406400D03*
X584200Y431800D03*
X584200Y457200D03*
X584200Y482600D03*
X584200Y508000D03*
X584200Y533400D03*
X1028700Y533400D03*
X1028700Y508000D03*
X1028700Y482600D03*
X1028700Y457200D03*
X1028700Y431800D03*
X1028700Y406400D03*
X1028700Y381000D03*
X1028700Y355600D03*
X1028700Y330200D03*
X1028700Y304800D03*
X1028700Y279400D03*
X1028700Y254000D03*
X1028700Y228600D03*
X1028700Y203200D03*
X1028700Y177800D03*
X1028700Y152400D03*
X1028700Y127000D03*
X1028700Y101600D03*
X1282700Y101600D03*
X1282700Y127000D03*
X1282700Y152400D03*
X1282700Y177800D03*
X1282700Y203200D03*
X1282700Y228600D03*
X1282700Y254000D03*
X1282700Y279400D03*
X1282700Y304800D03*
X1282700Y330200D03*
X1282700Y355600D03*
X1282700Y381000D03*
X1282700Y406400D03*
X1282700Y431800D03*
X1282700Y457200D03*
X1282700Y482600D03*
X1282700Y508000D03*
X1282700Y533400D03*
D15*
X1711897Y190500D02*
X1729804Y190500D01*
X1729804Y241300D02*
X1711897Y241300D01*
X1711897Y292100D02*
X1729804Y292100D01*
X1729804Y342900D02*
X1711897Y342900D01*
X1711897Y393700D02*
X1729804Y393700D01*
X1729804Y444500D02*
X1711897Y444500D01*
X1513904Y444500D02*
X1495997Y444500D01*
X1495997Y393700D02*
X1513904Y393700D01*
X1513904Y342900D02*
X1495997Y342900D01*
X1495997Y292100D02*
X1513904Y292100D01*
X1513904Y241300D02*
X1495997Y241300D01*
X1495997Y190500D02*
X1513904Y190500D01*
D16*
X1295400Y587900D02*
X1295400Y605900D01*
X1270000Y605900D02*
X1270000Y587900D01*
X1244600Y587900D02*
X1244600Y605900D01*
X1219200Y605900D02*
X1219200Y587900D01*
X1193800Y587900D02*
X1193800Y605900D01*
X1168400Y605900D02*
X1168400Y587900D01*
X1143000Y587900D02*
X1143000Y605900D01*
X1117600Y605900D02*
X1117600Y587900D01*
X1092200Y587900D02*
X1092200Y605900D01*
X1066800Y605900D02*
X1066800Y587900D01*
X1041400Y587900D02*
X1041400Y605900D01*
X1016000Y605900D02*
X1016000Y587900D01*
X1295400Y638700D02*
X1295400Y656700D01*
X1270000Y656700D02*
X1270000Y638700D01*
X1244600Y638700D02*
X1244600Y656700D01*
X1219200Y656700D02*
X1219200Y638700D01*
X1193800Y638700D02*
X1193800Y656700D01*
X1168400Y656700D02*
X1168400Y638700D01*
X1143000Y638700D02*
X1143000Y656700D01*
X1117600Y656700D02*
X1117600Y638700D01*
X1092200Y638700D02*
X1092200Y656700D01*
X1066800Y656700D02*
X1066800Y638700D01*
X1041400Y638700D02*
X1041400Y656700D01*
X1016000Y656700D02*
X1016000Y638700D01*
X685800Y689500D02*
X685800Y707500D01*
X711200Y707500D02*
X711200Y689500D01*
X736600Y689500D02*
X736600Y707500D01*
X762000Y707500D02*
X762000Y689500D01*
X787400Y689500D02*
X787400Y707500D01*
X812800Y707500D02*
X812800Y689500D01*
X838200Y689500D02*
X838200Y707500D01*
X863600Y707500D02*
X863600Y689500D01*
X889000Y689500D02*
X889000Y707500D01*
X914400Y707500D02*
X914400Y689500D01*
X939800Y689500D02*
X939800Y707500D01*
X965200Y707500D02*
X965200Y689500D01*
X1435100Y59800D02*
X1435100Y41800D01*
X1409700Y41800D02*
X1409700Y59800D01*
X1384300Y59800D02*
X1384300Y41800D01*
X1358900Y41800D02*
X1358900Y59800D01*
X685800Y587900D02*
X685800Y605900D01*
X711200Y605900D02*
X711200Y587900D01*
X736600Y587900D02*
X736600Y605900D01*
X762000Y605900D02*
X762000Y587900D01*
X787400Y587900D02*
X787400Y605900D01*
X812800Y605900D02*
X812800Y587900D01*
X838200Y587900D02*
X838200Y605900D01*
X863600Y605900D02*
X863600Y587900D01*
X889000Y587900D02*
X889000Y605900D01*
X914400Y605900D02*
X914400Y587900D01*
X939800Y587900D02*
X939800Y605900D01*
X965200Y605900D02*
X965200Y587900D01*
X1295400Y689500D02*
X1295400Y707500D01*
X1270000Y707500D02*
X1270000Y689500D01*
X1244600Y689500D02*
X1244600Y707500D01*
X1219200Y707500D02*
X1219200Y689500D01*
X1193800Y689500D02*
X1193800Y707500D01*
X1168400Y707500D02*
X1168400Y689500D01*
X1143000Y689500D02*
X1143000Y707500D01*
X1117600Y707500D02*
X1117600Y689500D01*
X1092200Y689500D02*
X1092200Y707500D01*
X1066800Y707500D02*
X1066800Y689500D01*
X1041400Y689500D02*
X1041400Y707500D01*
X1016000Y707500D02*
X1016000Y689500D01*
X965200Y656700D02*
X965200Y638700D01*
X939800Y638700D02*
X939800Y656700D01*
X914400Y656700D02*
X914400Y638700D01*
X889000Y638700D02*
X889000Y656700D01*
X863600Y656700D02*
X863600Y638700D01*
X838200Y638700D02*
X838200Y656700D01*
X812800Y656700D02*
X812800Y638700D01*
X787400Y638700D02*
X787400Y656700D01*
X762000Y656700D02*
X762000Y638700D01*
X736600Y638700D02*
X736600Y656700D01*
X711200Y656700D02*
X711200Y638700D01*
X685800Y638700D02*
X685800Y656700D01*
D13*
X825300Y453120D02*
X825300Y437880D01*
X750300Y437880D02*
X750300Y453120D01*
X775300Y453120D02*
X775300Y437880D01*
X800300Y437880D02*
X800300Y453120D01*
X850300Y453120D02*
X850300Y437880D01*
X875300Y437880D02*
X875300Y453120D01*
D17*
X406400Y469900D03*
X508000Y469900D03*
D18*
X508000Y419100D03*
X406400Y419100D03*
D17*
X406400Y368300D03*
X508000Y368300D03*
X406400Y317500D03*
X508000Y317500D03*
D18*
X508000Y266700D03*
X406400Y266700D03*
D17*
X406400Y215900D03*
X508000Y215900D03*
D19*
X585216Y536448D02*
X625856Y536448D01*
X633984Y544576D01*
X601472Y577088D02*
X568960Y609600D01*
X585216Y536448D02*
X584200Y533400D01*
D20*
X633984Y544576D03*
X601472Y577088D03*
X568960Y609600D03*
D19*
X914400Y101600D02*
X1007872Y101600D01*
X1024128Y85344D01*
X1288288Y85344D01*
X1479296Y276352D01*
X1479296Y300736D01*
X1503680Y325120D01*
X1601216Y325120D01*
X1719072Y442976D01*
X914400Y101600D02*
X912800Y102600D01*
X1719072Y442976D02*
X1720850Y444500D01*
X406400Y243840D02*
X406400Y215900D01*
X406400Y243840D02*
X390144Y260096D01*
X390144Y349504D01*
X406400Y365760D01*
X406400Y368300D01*
X584200Y508000D02*
X617728Y508000D01*
X703072Y422656D01*
X715264Y422656D02*
X755904Y422656D01*
X715264Y422656D02*
X703072Y422656D01*
X755904Y422656D02*
X776224Y442976D01*
X775300Y445500D01*
X715264Y422656D02*
X715264Y280416D01*
X712800Y280400D01*
X1723136Y211328D02*
X1723136Y191008D01*
X1723136Y211328D02*
X1747520Y235712D01*
X1747520Y316992D01*
X1723136Y341376D01*
X1723136Y191008D02*
X1720850Y190500D01*
X1723136Y341376D02*
X1720850Y342900D01*
X1723136Y345440D02*
X1723136Y390144D01*
X1720850Y393700D01*
X1723136Y345440D02*
X1720850Y342900D01*
X1503680Y288544D02*
X1503680Y243840D01*
X1504950Y241300D01*
X1503680Y288544D02*
X1504950Y292100D01*
X85344Y560832D02*
X65024Y560832D01*
X63900Y559800D01*
X85344Y560832D02*
X88900Y559800D01*
X142240Y556768D02*
X215392Y556768D01*
X142240Y556768D02*
X121920Y536448D01*
X105664Y536448D01*
X85344Y556768D01*
X215392Y556768D02*
X216100Y559800D01*
X88900Y559800D02*
X85344Y556768D01*
X60960Y556768D02*
X60960Y471424D01*
X52832Y463296D01*
X52832Y451104D01*
X73152Y430784D01*
X60960Y556768D02*
X63900Y559800D01*
X76200Y431800D02*
X73152Y430784D01*
X686816Y650240D02*
X711200Y650240D01*
X686816Y650240D02*
X685800Y647700D01*
X739648Y650240D02*
X759968Y650240D01*
X739648Y650240D02*
X736600Y647700D01*
X759968Y650240D02*
X762000Y647700D01*
X764032Y650240D02*
X784352Y650240D01*
X787400Y647700D01*
X764032Y650240D02*
X762000Y647700D01*
X788416Y650240D02*
X812800Y650240D01*
X788416Y650240D02*
X787400Y647700D01*
X735584Y650240D02*
X711200Y650240D01*
X711200Y647700D01*
X735584Y650240D02*
X736600Y647700D01*
X942848Y650240D02*
X963168Y650240D01*
X942848Y650240D02*
X939800Y647700D01*
X963168Y650240D02*
X965200Y647700D01*
X861568Y650240D02*
X841248Y650240D01*
X838200Y647700D01*
X861568Y650240D02*
X863600Y647700D01*
X865632Y650240D02*
X885952Y650240D01*
X889000Y647700D01*
X865632Y650240D02*
X863600Y647700D01*
X890016Y650240D02*
X914400Y650240D01*
X890016Y650240D02*
X889000Y647700D01*
X914400Y650240D02*
X938784Y650240D01*
X939800Y647700D01*
X914400Y647700D02*
X914400Y650240D01*
X837184Y650240D02*
X812800Y650240D01*
X812800Y647700D01*
X837184Y650240D02*
X838200Y647700D01*
X1016000Y650240D02*
X1040384Y650240D01*
X1041400Y647700D01*
X1068832Y650240D02*
X1089152Y650240D01*
X1068832Y650240D02*
X1066800Y647700D01*
X1089152Y650240D02*
X1092200Y647700D01*
X1093216Y650240D02*
X1117600Y650240D01*
X1093216Y650240D02*
X1092200Y647700D01*
X1064768Y650240D02*
X1044448Y650240D01*
X1041400Y647700D01*
X1064768Y650240D02*
X1066800Y647700D01*
X1247648Y650240D02*
X1267968Y650240D01*
X1247648Y650240D02*
X1244600Y647700D01*
X1267968Y650240D02*
X1270000Y647700D01*
X1272032Y650240D02*
X1292352Y650240D01*
X1295400Y647700D01*
X1272032Y650240D02*
X1270000Y647700D01*
X1166368Y650240D02*
X1146048Y650240D01*
X1143000Y647700D01*
X1166368Y650240D02*
X1168400Y647700D01*
X1170432Y650240D02*
X1190752Y650240D01*
X1193800Y647700D01*
X1170432Y650240D02*
X1168400Y647700D01*
X1194816Y650240D02*
X1219200Y650240D01*
X1194816Y650240D02*
X1193800Y647700D01*
X1219200Y650240D02*
X1243584Y650240D01*
X1244600Y647700D01*
X1219200Y647700D02*
X1219200Y650240D01*
X1141984Y650240D02*
X1117600Y650240D01*
X1117600Y647700D01*
X1141984Y650240D02*
X1143000Y647700D01*
X1016000Y650240D02*
X967232Y650240D01*
X965200Y647700D01*
X1016000Y647700D02*
X1016000Y650240D01*
X219456Y556768D02*
X219456Y552704D01*
X235712Y536448D01*
X268224Y536448D01*
X377952Y646176D01*
X682752Y646176D01*
X219456Y556768D02*
X216100Y559800D01*
X682752Y646176D02*
X685800Y647700D01*
X1503680Y475488D02*
X1503680Y447040D01*
X1503680Y475488D02*
X1357376Y621792D01*
X1320800Y621792D01*
X1296416Y646176D01*
X1503680Y447040D02*
X1504950Y444500D01*
X1296416Y646176D02*
X1295400Y647700D01*
X581152Y508000D02*
X581152Y499872D01*
X556768Y475488D01*
X556768Y227584D01*
X414528Y85344D01*
X186944Y85344D01*
X85344Y186944D01*
X77216Y186944D01*
X581152Y508000D02*
X584200Y508000D01*
X76200Y190500D02*
X77216Y186944D01*
X243840Y560832D02*
X256032Y560832D01*
X368300Y673100D01*
X243840Y560832D02*
X241100Y559800D01*
X508000Y158496D02*
X508000Y109728D01*
X487680Y89408D01*
X487680Y81280D01*
X495808Y73152D01*
X625856Y73152D01*
X670560Y28448D01*
X670560Y16256D01*
X674624Y12192D01*
X1337056Y12192D01*
X1341120Y16256D01*
X1341120Y65024D01*
X1499616Y223520D01*
X1519936Y223520D01*
X1552448Y256032D01*
X1552448Y312928D01*
D20*
X508000Y158496D03*
X1552448Y312928D03*
D19*
X865632Y186944D02*
X865632Y105664D01*
X865632Y186944D02*
X942848Y264160D01*
X942848Y377952D01*
X914400Y406400D01*
X914400Y451104D01*
X865632Y499872D01*
X755904Y499872D01*
X699008Y556768D01*
X577088Y556768D01*
X508000Y487680D01*
X508000Y469900D01*
X865632Y105664D02*
X862800Y102600D01*
X390144Y406400D02*
X330200Y406400D01*
X390144Y406400D02*
X508000Y288544D01*
X508000Y266700D01*
X508000Y215900D01*
X824992Y239776D02*
X861568Y276352D01*
X824992Y239776D02*
X658368Y239776D01*
X861568Y276352D02*
X862800Y280400D01*
D20*
X658368Y239776D03*
D19*
X508000Y368300D02*
X508000Y419100D01*
X499872Y85344D02*
X646176Y85344D01*
X731520Y170688D01*
D20*
X499872Y85344D03*
X731520Y170688D03*
D19*
X690880Y227584D02*
X585216Y227584D01*
X690880Y227584D02*
X812800Y105664D01*
X585216Y227584D02*
X584200Y228600D01*
X812800Y105664D02*
X812800Y102600D01*
X699008Y251968D02*
X585216Y251968D01*
X699008Y251968D02*
X703072Y247904D01*
X784352Y247904D01*
X812800Y276352D01*
X585216Y251968D02*
X584200Y254000D01*
X812800Y276352D02*
X812800Y280400D01*
X625856Y312928D02*
X585216Y353568D01*
X625856Y312928D02*
X625856Y284480D01*
X650240Y260096D01*
X703072Y260096D01*
X707136Y256032D01*
X768096Y256032D01*
X788416Y276352D01*
X585216Y353568D02*
X584200Y355600D01*
X787800Y280400D02*
X788416Y276352D01*
X1016000Y699008D02*
X1040384Y699008D01*
X1041400Y698500D01*
X1068832Y699008D02*
X1089152Y699008D01*
X1068832Y699008D02*
X1066800Y698500D01*
X1089152Y699008D02*
X1092200Y698500D01*
X1093216Y699008D02*
X1117600Y699008D01*
X1093216Y699008D02*
X1092200Y698500D01*
X1064768Y699008D02*
X1044448Y699008D01*
X1041400Y698500D01*
X1064768Y699008D02*
X1066800Y698500D01*
X1146048Y699008D02*
X1166368Y699008D01*
X1146048Y699008D02*
X1143000Y698500D01*
X1166368Y699008D02*
X1168400Y698500D01*
X1170432Y699008D02*
X1190752Y699008D01*
X1193800Y698500D01*
X1170432Y699008D02*
X1168400Y698500D01*
X1194816Y699008D02*
X1219200Y699008D01*
X1194816Y699008D02*
X1193800Y698500D01*
X1247648Y699008D02*
X1267968Y699008D01*
X1247648Y699008D02*
X1244600Y698500D01*
X1267968Y699008D02*
X1270000Y698500D01*
X1085088Y556768D02*
X1064768Y536448D01*
X1272032Y699008D02*
X1292352Y699008D01*
X1272032Y699008D02*
X1270000Y698500D01*
X1292352Y699008D02*
X1295400Y698500D01*
X1243584Y699008D02*
X1219200Y699008D01*
X1219200Y698500D01*
X1243584Y699008D02*
X1244600Y698500D01*
X1141984Y699008D02*
X1117600Y699008D01*
X1117600Y698500D01*
X1141984Y699008D02*
X1143000Y698500D01*
X77216Y251968D02*
X77216Y219456D01*
X77216Y251968D02*
X101600Y276352D01*
X101600Y434848D01*
X77216Y459232D01*
X77216Y219456D02*
X76200Y215900D01*
X76200Y457200D02*
X77216Y459232D01*
X686816Y699008D02*
X711200Y699008D01*
X686816Y699008D02*
X685800Y698500D01*
X739648Y699008D02*
X759968Y699008D01*
X739648Y699008D02*
X736600Y698500D01*
X759968Y699008D02*
X762000Y698500D01*
X764032Y699008D02*
X784352Y699008D01*
X787400Y698500D01*
X764032Y699008D02*
X762000Y698500D01*
X788416Y699008D02*
X812800Y699008D01*
X788416Y699008D02*
X787400Y698500D01*
X735584Y699008D02*
X711200Y699008D01*
X711200Y698500D01*
X735584Y699008D02*
X736600Y698500D01*
X942848Y699008D02*
X963168Y699008D01*
X942848Y699008D02*
X939800Y698500D01*
X963168Y699008D02*
X965200Y698500D01*
X861568Y699008D02*
X841248Y699008D01*
X838200Y698500D01*
X861568Y699008D02*
X863600Y698500D01*
X865632Y699008D02*
X885952Y699008D01*
X889000Y698500D01*
X865632Y699008D02*
X863600Y698500D01*
X890016Y699008D02*
X914400Y699008D01*
X890016Y699008D02*
X889000Y698500D01*
X914400Y699008D02*
X938784Y699008D01*
X939800Y698500D01*
X914400Y698500D02*
X914400Y699008D01*
X837184Y699008D02*
X812800Y699008D01*
X812800Y698500D01*
X837184Y699008D02*
X838200Y698500D01*
X967232Y699008D02*
X1016000Y699008D01*
X1016000Y698500D01*
X967232Y699008D02*
X965200Y698500D01*
D20*
X1064768Y536448D03*
X1085088Y556768D03*
D19*
X1044448Y142240D02*
X1032256Y130048D01*
X1044448Y142240D02*
X1044448Y540512D01*
X1016000Y568960D01*
X1011936Y568960D01*
X983488Y597408D01*
X983488Y613664D01*
X975360Y621792D01*
X430784Y621792D01*
X373888Y564896D01*
X329184Y564896D01*
X304800Y540512D01*
X304800Y154432D01*
X329184Y130048D01*
X1028700Y127000D02*
X1032256Y130048D01*
X330200Y127000D02*
X329184Y130048D01*
X52832Y386080D02*
X73152Y406400D01*
X52832Y386080D02*
X52832Y182880D01*
X73152Y162560D01*
X73152Y406400D02*
X76200Y406400D01*
X76200Y165100D02*
X73152Y162560D01*
X1284224Y483616D02*
X1300480Y499872D01*
X1300480Y589280D01*
X1296416Y593344D01*
X1284224Y483616D02*
X1282700Y482600D01*
X1296416Y593344D02*
X1295400Y596900D01*
X1267968Y471424D02*
X1280160Y459232D01*
X1267968Y471424D02*
X1267968Y593344D01*
X1280160Y459232D02*
X1282700Y457200D01*
X1267968Y593344D02*
X1270000Y596900D01*
X1247648Y467360D02*
X1280160Y434848D01*
X1247648Y467360D02*
X1247648Y593344D01*
X1280160Y434848D02*
X1282700Y431800D01*
X1247648Y593344D02*
X1244600Y596900D01*
X1219200Y467360D02*
X1280160Y406400D01*
X1219200Y467360D02*
X1219200Y596900D01*
X1280160Y406400D02*
X1282700Y406400D01*
X1280160Y382016D02*
X1194816Y467360D01*
X1194816Y593344D01*
X1280160Y382016D02*
X1282700Y381000D01*
X1194816Y593344D02*
X1193800Y596900D01*
X1170432Y467360D02*
X1280160Y357632D01*
X1170432Y467360D02*
X1170432Y593344D01*
X1280160Y357632D02*
X1282700Y355600D01*
X1170432Y593344D02*
X1168400Y596900D01*
X1146048Y467360D02*
X1280160Y333248D01*
X1146048Y467360D02*
X1146048Y593344D01*
X1280160Y333248D02*
X1282700Y330200D01*
X1146048Y593344D02*
X1143000Y596900D01*
X1117600Y467360D02*
X1280160Y304800D01*
X1117600Y467360D02*
X1117600Y596900D01*
X1280160Y304800D02*
X1282700Y304800D01*
X1280160Y280416D02*
X1105408Y455168D01*
X1105408Y577088D01*
X1089152Y593344D01*
X1280160Y280416D02*
X1282700Y279400D01*
X1089152Y593344D02*
X1092200Y596900D01*
X1312672Y284480D02*
X1284224Y256032D01*
X1312672Y284480D02*
X1312672Y613664D01*
X1304544Y621792D01*
X1085088Y621792D01*
X1068832Y605536D01*
X1068832Y597408D01*
X1284224Y256032D02*
X1282700Y254000D01*
X1068832Y597408D02*
X1066800Y596900D01*
X1097280Y414528D02*
X1280160Y231648D01*
X1097280Y414528D02*
X1097280Y560832D01*
X1089152Y568960D01*
X1060704Y568960D01*
X1044448Y585216D01*
X1044448Y593344D01*
X1280160Y231648D02*
X1282700Y228600D01*
X1044448Y593344D02*
X1041400Y596900D01*
X1052576Y430784D02*
X1280160Y203200D01*
X1052576Y430784D02*
X1052576Y552704D01*
X1016000Y589280D01*
X1016000Y596900D01*
X1280160Y203200D02*
X1282700Y203200D01*
X1028192Y508000D02*
X967232Y568960D01*
X967232Y593344D01*
X1028192Y508000D02*
X1028700Y508000D01*
X967232Y593344D02*
X965200Y596900D01*
X942848Y568960D02*
X1028192Y483616D01*
X942848Y568960D02*
X942848Y593344D01*
X1028192Y483616D02*
X1028700Y482600D01*
X942848Y593344D02*
X939800Y596900D01*
X914400Y573024D02*
X1028192Y459232D01*
X914400Y573024D02*
X914400Y596900D01*
X1028192Y459232D02*
X1028700Y457200D01*
X1028192Y434848D02*
X890016Y573024D01*
X890016Y593344D01*
X1028192Y434848D02*
X1028700Y431800D01*
X890016Y593344D02*
X889000Y596900D01*
X1020064Y382016D02*
X1028192Y382016D01*
X1020064Y382016D02*
X812800Y589280D01*
X812800Y596900D01*
X1028192Y382016D02*
X1028700Y381000D01*
X1028192Y357632D02*
X942848Y442976D01*
X1028192Y357632D02*
X1028700Y355600D01*
D20*
X942848Y442976D03*
D19*
X930656Y430784D02*
X1028192Y333248D01*
X930656Y430784D02*
X930656Y459232D01*
X820928Y568960D01*
X780288Y568960D01*
X764032Y585216D01*
X764032Y593344D01*
X1028192Y333248D02*
X1028700Y330200D01*
X764032Y593344D02*
X762000Y596900D01*
X922528Y410464D02*
X1028192Y304800D01*
X922528Y410464D02*
X922528Y455168D01*
X816864Y560832D01*
X764032Y560832D01*
X739648Y585216D01*
X739648Y593344D01*
X1028192Y304800D02*
X1028700Y304800D01*
X739648Y593344D02*
X736600Y596900D01*
X955040Y353568D02*
X1028192Y280416D01*
X1028700Y279400D01*
D20*
X955040Y353568D03*
D19*
X955040Y329184D02*
X1028192Y256032D01*
X902208Y447040D02*
X861568Y487680D01*
X1028192Y256032D02*
X1028700Y254000D01*
D20*
X955040Y329184D03*
X902208Y447040D03*
X861568Y487680D03*
D19*
X865632Y568960D02*
X1028192Y406400D01*
X865632Y568960D02*
X865632Y593344D01*
X1028192Y406400D02*
X1028700Y406400D01*
X865632Y593344D02*
X863600Y596900D01*
X329184Y154432D02*
X312928Y170688D01*
X312928Y536448D01*
X333248Y556768D01*
X564896Y556768D01*
X573024Y564896D01*
X747776Y564896D01*
X800608Y512064D01*
X329184Y154432D02*
X330200Y152400D01*
D20*
X800608Y512064D03*
D19*
X1028192Y203200D02*
X942848Y117856D01*
X1028192Y203200D02*
X1028700Y203200D01*
D20*
X942848Y117856D03*
D19*
X418592Y101600D02*
X330200Y101600D01*
X418592Y101600D02*
X548640Y231648D01*
X548640Y512064D01*
D20*
X548640Y512064D03*
D19*
X540512Y577088D02*
X585216Y577088D01*
X540512Y577088D02*
X520700Y596900D01*
X1507744Y361696D02*
X1507744Y345440D01*
X1507744Y361696D02*
X1532128Y386080D01*
X1532128Y581152D01*
X1389888Y723392D01*
X609600Y723392D01*
X540512Y654304D01*
X499872Y654304D01*
X495808Y658368D01*
X1504950Y342900D02*
X1507744Y345440D01*
D20*
X585216Y577088D03*
X495808Y658368D03*
D19*
X930656Y377952D02*
X930656Y268224D01*
X930656Y377952D02*
X877824Y430784D01*
X877824Y442976D01*
X875300Y445500D01*
D20*
X930656Y268224D03*
D19*
X406400Y266700D02*
X406400Y317500D01*
X406400Y419100D02*
X406400Y469900D01*
M02*
