G04 EAGLE Gerber RS-274X export*
G75*
%MOMM*%
%FSLAX34Y34*%
%LPD*%
%INSilkscreen Bottom*%
%IPPOS*%
%AMOC8*
5,1,8,0,0,1.08239X$1,22.5*%
G01*
%ADD10C,0.254000*%
%ADD11C,0.152400*%
%ADD12C,0.101600*%


D10*
X1449100Y36300D02*
X1344900Y36300D01*
X1344900Y65300D01*
X1449100Y65300D01*
X1449100Y36300D01*
D11*
X1448000Y61800D02*
X1346000Y61800D01*
D12*
X1442043Y80772D02*
X1449832Y69088D01*
X1442043Y69088D02*
X1449832Y80772D01*
X1437753Y75579D02*
X1433858Y75579D01*
X1433759Y75577D01*
X1433659Y75571D01*
X1433560Y75562D01*
X1433462Y75549D01*
X1433364Y75532D01*
X1433266Y75511D01*
X1433170Y75486D01*
X1433075Y75458D01*
X1432981Y75426D01*
X1432888Y75391D01*
X1432796Y75352D01*
X1432706Y75309D01*
X1432618Y75264D01*
X1432531Y75214D01*
X1432447Y75162D01*
X1432364Y75106D01*
X1432284Y75048D01*
X1432206Y74986D01*
X1432131Y74921D01*
X1432058Y74853D01*
X1431988Y74783D01*
X1431920Y74710D01*
X1431855Y74635D01*
X1431793Y74557D01*
X1431735Y74477D01*
X1431679Y74394D01*
X1431627Y74310D01*
X1431577Y74223D01*
X1431532Y74135D01*
X1431489Y74045D01*
X1431450Y73953D01*
X1431415Y73860D01*
X1431383Y73766D01*
X1431355Y73671D01*
X1431330Y73575D01*
X1431309Y73477D01*
X1431292Y73379D01*
X1431279Y73281D01*
X1431270Y73182D01*
X1431264Y73082D01*
X1431262Y72983D01*
X1431262Y72334D01*
X1431261Y72334D02*
X1431263Y72221D01*
X1431269Y72108D01*
X1431279Y71995D01*
X1431293Y71882D01*
X1431310Y71770D01*
X1431332Y71659D01*
X1431357Y71549D01*
X1431387Y71439D01*
X1431420Y71331D01*
X1431457Y71224D01*
X1431497Y71118D01*
X1431542Y71014D01*
X1431590Y70911D01*
X1431641Y70810D01*
X1431696Y70711D01*
X1431754Y70614D01*
X1431816Y70519D01*
X1431881Y70426D01*
X1431949Y70336D01*
X1432020Y70248D01*
X1432095Y70162D01*
X1432172Y70079D01*
X1432252Y69999D01*
X1432335Y69922D01*
X1432421Y69847D01*
X1432509Y69776D01*
X1432599Y69708D01*
X1432692Y69643D01*
X1432787Y69581D01*
X1432884Y69523D01*
X1432983Y69468D01*
X1433084Y69417D01*
X1433187Y69369D01*
X1433291Y69324D01*
X1433397Y69284D01*
X1433504Y69247D01*
X1433612Y69214D01*
X1433722Y69184D01*
X1433832Y69159D01*
X1433943Y69137D01*
X1434055Y69120D01*
X1434168Y69106D01*
X1434281Y69096D01*
X1434394Y69090D01*
X1434507Y69088D01*
X1434620Y69090D01*
X1434733Y69096D01*
X1434846Y69106D01*
X1434959Y69120D01*
X1435071Y69137D01*
X1435182Y69159D01*
X1435292Y69184D01*
X1435402Y69214D01*
X1435510Y69247D01*
X1435617Y69284D01*
X1435723Y69324D01*
X1435827Y69369D01*
X1435930Y69417D01*
X1436031Y69468D01*
X1436130Y69523D01*
X1436227Y69581D01*
X1436322Y69643D01*
X1436415Y69708D01*
X1436505Y69776D01*
X1436593Y69847D01*
X1436679Y69922D01*
X1436762Y69999D01*
X1436842Y70079D01*
X1436919Y70162D01*
X1436994Y70248D01*
X1437065Y70336D01*
X1437133Y70426D01*
X1437198Y70519D01*
X1437260Y70614D01*
X1437318Y70711D01*
X1437373Y70810D01*
X1437424Y70911D01*
X1437472Y71014D01*
X1437517Y71118D01*
X1437557Y71224D01*
X1437594Y71331D01*
X1437627Y71439D01*
X1437657Y71549D01*
X1437682Y71659D01*
X1437704Y71770D01*
X1437721Y71882D01*
X1437735Y71995D01*
X1437745Y72108D01*
X1437751Y72221D01*
X1437753Y72334D01*
X1437753Y75579D01*
X1437751Y75722D01*
X1437745Y75865D01*
X1437735Y76008D01*
X1437721Y76150D01*
X1437704Y76292D01*
X1437682Y76434D01*
X1437657Y76575D01*
X1437627Y76715D01*
X1437594Y76854D01*
X1437557Y76992D01*
X1437516Y77129D01*
X1437472Y77265D01*
X1437423Y77400D01*
X1437371Y77533D01*
X1437316Y77665D01*
X1437256Y77795D01*
X1437193Y77924D01*
X1437127Y78051D01*
X1437057Y78176D01*
X1436984Y78298D01*
X1436907Y78419D01*
X1436827Y78538D01*
X1436744Y78654D01*
X1436658Y78769D01*
X1436569Y78880D01*
X1436476Y78990D01*
X1436381Y79096D01*
X1436282Y79200D01*
X1436181Y79301D01*
X1436077Y79400D01*
X1435971Y79495D01*
X1435861Y79588D01*
X1435750Y79677D01*
X1435635Y79763D01*
X1435519Y79846D01*
X1435400Y79926D01*
X1435279Y80003D01*
X1435157Y80076D01*
X1435032Y80146D01*
X1434905Y80212D01*
X1434776Y80275D01*
X1434646Y80335D01*
X1434514Y80390D01*
X1434381Y80442D01*
X1434246Y80491D01*
X1434110Y80535D01*
X1433973Y80576D01*
X1433835Y80613D01*
X1433696Y80646D01*
X1433556Y80676D01*
X1433415Y80701D01*
X1433273Y80723D01*
X1433131Y80740D01*
X1432989Y80754D01*
X1432846Y80764D01*
X1432703Y80770D01*
X1432560Y80772D01*
M02*
