G04 EAGLE Gerber RS-274X export*
G75*
%MOMM*%
%FSLAX34Y34*%
%LPD*%
%INSoldermask Top*%
%IPPOS*%
%AMOC8*
5,1,8,0,0,1.08239X$1,22.5*%
G01*
%ADD10C,2.451100*%
%ADD11C,1.727200*%
%ADD12P,1.852186X8X22.500000*%
%ADD13C,1.993900*%
%ADD14C,2.003200*%
%ADD15P,2.034460X8X22.500000*%
%ADD16P,2.034460X8X202.500000*%
%ADD17C,0.959600*%


D10*
X531940Y673100D02*
X509461Y673100D01*
X379540Y673100D02*
X357061Y673100D01*
X509461Y596900D02*
X531940Y596900D01*
X379540Y596900D02*
X357061Y596900D01*
D11*
X83820Y304800D02*
X68580Y304800D01*
X68580Y330200D02*
X83820Y330200D01*
X83820Y355600D02*
X68580Y355600D01*
X68580Y381000D02*
X83820Y381000D01*
X83820Y406400D02*
X68580Y406400D01*
X68580Y431800D02*
X83820Y431800D01*
X83820Y457200D02*
X68580Y457200D01*
X68580Y279400D02*
X83820Y279400D01*
X83820Y63500D02*
X68580Y63500D01*
X68580Y88900D02*
X83820Y88900D01*
X83820Y114300D02*
X68580Y114300D01*
X68580Y139700D02*
X83820Y139700D01*
X83820Y165100D02*
X68580Y165100D01*
X68580Y190500D02*
X83820Y190500D01*
X83820Y215900D02*
X68580Y215900D01*
X68580Y38100D02*
X83820Y38100D01*
X216100Y552180D02*
X216100Y567420D01*
X241100Y567420D02*
X241100Y552180D01*
X737800Y110220D02*
X737800Y94980D01*
X762800Y94980D02*
X762800Y110220D01*
X862800Y110220D02*
X862800Y94980D01*
X787800Y94980D02*
X787800Y110220D01*
X812800Y110220D02*
X812800Y94980D01*
X837800Y94980D02*
X837800Y110220D01*
X887800Y110220D02*
X887800Y94980D01*
X912800Y94980D02*
X912800Y110220D01*
X712800Y110220D02*
X712800Y94980D01*
X737800Y272780D02*
X737800Y288020D01*
X762800Y288020D02*
X762800Y272780D01*
X862800Y272780D02*
X862800Y288020D01*
X787800Y288020D02*
X787800Y272780D01*
X812800Y272780D02*
X812800Y288020D01*
X837800Y288020D02*
X837800Y272780D01*
X887800Y272780D02*
X887800Y288020D01*
X912800Y288020D02*
X912800Y272780D01*
X712800Y272780D02*
X712800Y288020D01*
X63900Y552180D02*
X63900Y567420D01*
X88900Y567420D02*
X88900Y552180D01*
X113900Y552180D02*
X113900Y567420D01*
D12*
X330200Y533400D03*
X330200Y508000D03*
X330200Y482600D03*
X330200Y457200D03*
X330200Y431800D03*
X330200Y406400D03*
X330200Y381000D03*
X330200Y355600D03*
X330200Y330200D03*
X330200Y304800D03*
X330200Y279400D03*
X330200Y254000D03*
X330200Y228600D03*
X330200Y203200D03*
X330200Y177800D03*
X330200Y152400D03*
X330200Y127000D03*
X330200Y101600D03*
X584200Y101600D03*
X584200Y127000D03*
X584200Y152400D03*
X584200Y177800D03*
X584200Y203200D03*
X584200Y228600D03*
X584200Y254000D03*
X584200Y279400D03*
X584200Y304800D03*
X584200Y330200D03*
X584200Y355600D03*
X584200Y381000D03*
X584200Y406400D03*
X584200Y431800D03*
X584200Y457200D03*
X584200Y482600D03*
X584200Y508000D03*
X584200Y533400D03*
X1028700Y533400D03*
X1028700Y508000D03*
X1028700Y482600D03*
X1028700Y457200D03*
X1028700Y431800D03*
X1028700Y406400D03*
X1028700Y381000D03*
X1028700Y355600D03*
X1028700Y330200D03*
X1028700Y304800D03*
X1028700Y279400D03*
X1028700Y254000D03*
X1028700Y228600D03*
X1028700Y203200D03*
X1028700Y177800D03*
X1028700Y152400D03*
X1028700Y127000D03*
X1028700Y101600D03*
X1282700Y101600D03*
X1282700Y127000D03*
X1282700Y152400D03*
X1282700Y177800D03*
X1282700Y203200D03*
X1282700Y228600D03*
X1282700Y254000D03*
X1282700Y279400D03*
X1282700Y304800D03*
X1282700Y330200D03*
X1282700Y355600D03*
X1282700Y381000D03*
X1282700Y406400D03*
X1282700Y431800D03*
X1282700Y457200D03*
X1282700Y482600D03*
X1282700Y508000D03*
X1282700Y533400D03*
D13*
X1711897Y190500D02*
X1729804Y190500D01*
X1729804Y241300D02*
X1711897Y241300D01*
X1711897Y292100D02*
X1729804Y292100D01*
X1729804Y342900D02*
X1711897Y342900D01*
X1711897Y393700D02*
X1729804Y393700D01*
X1729804Y444500D02*
X1711897Y444500D01*
X1513904Y444500D02*
X1495997Y444500D01*
X1495997Y393700D02*
X1513904Y393700D01*
X1513904Y342900D02*
X1495997Y342900D01*
X1495997Y292100D02*
X1513904Y292100D01*
X1513904Y241300D02*
X1495997Y241300D01*
X1495997Y190500D02*
X1513904Y190500D01*
D14*
X1295400Y587900D02*
X1295400Y605900D01*
X1270000Y605900D02*
X1270000Y587900D01*
X1244600Y587900D02*
X1244600Y605900D01*
X1219200Y605900D02*
X1219200Y587900D01*
X1193800Y587900D02*
X1193800Y605900D01*
X1168400Y605900D02*
X1168400Y587900D01*
X1143000Y587900D02*
X1143000Y605900D01*
X1117600Y605900D02*
X1117600Y587900D01*
X1092200Y587900D02*
X1092200Y605900D01*
X1066800Y605900D02*
X1066800Y587900D01*
X1041400Y587900D02*
X1041400Y605900D01*
X1016000Y605900D02*
X1016000Y587900D01*
X1295400Y638700D02*
X1295400Y656700D01*
X1270000Y656700D02*
X1270000Y638700D01*
X1244600Y638700D02*
X1244600Y656700D01*
X1219200Y656700D02*
X1219200Y638700D01*
X1193800Y638700D02*
X1193800Y656700D01*
X1168400Y656700D02*
X1168400Y638700D01*
X1143000Y638700D02*
X1143000Y656700D01*
X1117600Y656700D02*
X1117600Y638700D01*
X1092200Y638700D02*
X1092200Y656700D01*
X1066800Y656700D02*
X1066800Y638700D01*
X1041400Y638700D02*
X1041400Y656700D01*
X1016000Y656700D02*
X1016000Y638700D01*
X685800Y689500D02*
X685800Y707500D01*
X711200Y707500D02*
X711200Y689500D01*
X736600Y689500D02*
X736600Y707500D01*
X762000Y707500D02*
X762000Y689500D01*
X787400Y689500D02*
X787400Y707500D01*
X812800Y707500D02*
X812800Y689500D01*
X838200Y689500D02*
X838200Y707500D01*
X863600Y707500D02*
X863600Y689500D01*
X889000Y689500D02*
X889000Y707500D01*
X914400Y707500D02*
X914400Y689500D01*
X939800Y689500D02*
X939800Y707500D01*
X965200Y707500D02*
X965200Y689500D01*
X1435100Y59800D02*
X1435100Y41800D01*
X1409700Y41800D02*
X1409700Y59800D01*
X1384300Y59800D02*
X1384300Y41800D01*
X1358900Y41800D02*
X1358900Y59800D01*
X685800Y587900D02*
X685800Y605900D01*
X711200Y605900D02*
X711200Y587900D01*
X736600Y587900D02*
X736600Y605900D01*
X762000Y605900D02*
X762000Y587900D01*
X787400Y587900D02*
X787400Y605900D01*
X812800Y605900D02*
X812800Y587900D01*
X838200Y587900D02*
X838200Y605900D01*
X863600Y605900D02*
X863600Y587900D01*
X889000Y587900D02*
X889000Y605900D01*
X914400Y605900D02*
X914400Y587900D01*
X939800Y587900D02*
X939800Y605900D01*
X965200Y605900D02*
X965200Y587900D01*
X1295400Y689500D02*
X1295400Y707500D01*
X1270000Y707500D02*
X1270000Y689500D01*
X1244600Y689500D02*
X1244600Y707500D01*
X1219200Y707500D02*
X1219200Y689500D01*
X1193800Y689500D02*
X1193800Y707500D01*
X1168400Y707500D02*
X1168400Y689500D01*
X1143000Y689500D02*
X1143000Y707500D01*
X1117600Y707500D02*
X1117600Y689500D01*
X1092200Y689500D02*
X1092200Y707500D01*
X1066800Y707500D02*
X1066800Y689500D01*
X1041400Y689500D02*
X1041400Y707500D01*
X1016000Y707500D02*
X1016000Y689500D01*
X965200Y656700D02*
X965200Y638700D01*
X939800Y638700D02*
X939800Y656700D01*
X914400Y656700D02*
X914400Y638700D01*
X889000Y638700D02*
X889000Y656700D01*
X863600Y656700D02*
X863600Y638700D01*
X838200Y638700D02*
X838200Y656700D01*
X812800Y656700D02*
X812800Y638700D01*
X787400Y638700D02*
X787400Y656700D01*
X762000Y656700D02*
X762000Y638700D01*
X736600Y638700D02*
X736600Y656700D01*
X711200Y656700D02*
X711200Y638700D01*
X685800Y638700D02*
X685800Y656700D01*
D11*
X825300Y453120D02*
X825300Y437880D01*
X750300Y437880D02*
X750300Y453120D01*
X775300Y453120D02*
X775300Y437880D01*
X800300Y437880D02*
X800300Y453120D01*
X850300Y453120D02*
X850300Y437880D01*
X875300Y437880D02*
X875300Y453120D01*
D15*
X406400Y469900D03*
X508000Y469900D03*
D16*
X508000Y419100D03*
X406400Y419100D03*
D15*
X406400Y368300D03*
X508000Y368300D03*
X406400Y317500D03*
X508000Y317500D03*
D16*
X508000Y266700D03*
X406400Y266700D03*
D15*
X406400Y215900D03*
X508000Y215900D03*
D17*
X633984Y544576D03*
X601472Y577088D03*
X568960Y609600D03*
X508000Y158496D03*
X1552448Y312928D03*
X658368Y239776D03*
X499872Y85344D03*
X731520Y170688D03*
X1064768Y536448D03*
X1085088Y556768D03*
X942848Y442976D03*
X955040Y353568D03*
X955040Y329184D03*
X902208Y447040D03*
X861568Y487680D03*
X800608Y512064D03*
X942848Y117856D03*
X548640Y512064D03*
X585216Y577088D03*
X495808Y658368D03*
X930656Y268224D03*
M02*
