M48
;GenerationSoftware,Autodesk,EAGLE,9.6.0*%
;CreationDate,2024-02-26T00:42:55Z*%
FMAT,2
ICI,OFF
METRIC,TZ,000.000
T6C0.350
T5C0.813
T4C1.000
T3C1.016
T2C1.194
T1C1.499
%
G90
M71
T1
X52070Y67310
X36830Y67310
X52070Y59690
X36830Y59690
T2
X172085Y24130
X150495Y19050
X150495Y24130
X150495Y29210
X150495Y39370
X150495Y44450
X172085Y44450
X172085Y39370
X172085Y34290
X172085Y29210
X172085Y19050
X150495Y34290
T3
X167540Y5180
X165040Y5180
X160040Y5180
X157540Y5180
X155040Y5180
X162540Y5180
X177740Y58520
X175240Y58520
X170240Y58520
X172740Y58520
X161190Y58520
X158690Y58520
X153690Y58520
X151190Y58520
X148690Y58520
X156190Y58520
X106620Y58520
X104120Y58520
X99120Y58520
X101620Y58520
X139640Y58520
X137140Y58520
X132140Y58520
X134640Y58520
X123130Y58520
X120630Y58520
X115630Y58520
X118130Y58520
X90090Y58520
X87590Y58520
X82590Y58520
X80090Y58520
X85090Y58520
X71040Y58520
X180440Y45700
X68540Y58520
X63540Y58520
X61040Y58520
X66040Y58520
X87530Y44550
X85030Y44550
X80030Y44550
X77530Y44550
X75030Y44550
X82530Y44550
X7620Y30480
X7620Y33020
X7620Y35560
X7620Y38100
X7620Y40640
X7620Y43180
X7620Y45720
X7620Y27940
X7620Y6350
X7620Y8890
X7620Y11430
X7620Y13970
X7620Y16510
X7620Y19050
X7620Y21590
X7620Y3810
X21610Y55980
X24110Y55980
X73780Y10260
X76280Y10260
X86280Y10260
X78780Y10260
X81280Y10260
X83780Y10260
X88780Y10260
X91280Y10260
X71280Y10260
X73780Y28040
X76280Y28040
X86280Y28040
X78780Y28040
X81280Y28040
X83780Y28040
X88780Y28040
X91280Y28040
X71280Y28040
X6390Y55980
X8890Y55980
X11390Y55980
X138450Y5180
X135950Y5180
X140950Y5180
X143450Y5180
X138450Y20420
X135950Y20420
X140950Y20420
X143450Y20420
X180440Y43200
X180440Y50700
X180440Y48200
X180440Y40700
X180440Y38200
X180440Y21610
X180440Y29110
X180440Y26610
X180440Y24110
X180440Y19110
X180440Y16610
X138450Y36930
X135950Y36930
X140950Y36930
X143450Y36930
T4
X58420Y22860
X58420Y25400
X58420Y27940
X58420Y30480
X58420Y33020
X58420Y35560
X58420Y38100
X58420Y40640
X58420Y43180
X58420Y45720
X58420Y48260
X58420Y50800
X58420Y53340
X102870Y53340
X102870Y50800
X102870Y48260
X102870Y45720
X102870Y43180
X102870Y40640
X102870Y38100
X102870Y35560
X33020Y33020
X102870Y30480
X102870Y27940
X102870Y25400
X102870Y22860
X102870Y20320
X102870Y17780
X102870Y15240
X102870Y12700
X102870Y10160
X128270Y10160
X128270Y12700
X128270Y15240
X128270Y17780
X128270Y20320
X128270Y22860
X128270Y25400
X128270Y27940
X128270Y30480
X128270Y33020
X128270Y35560
X128270Y38100
X128270Y40640
X128270Y43180
X128270Y45720
X128270Y48260
X128270Y50800
X128270Y53340
X102870Y33020
X33020Y53340
X33020Y50800
X33020Y48260
X33020Y45720
X33020Y43180
X33020Y40640
X33020Y38100
X33020Y35560
X33020Y30480
X33020Y27940
X33020Y25400
X33020Y22860
X33020Y20320
X33020Y17780
X33020Y15240
X33020Y12700
X33020Y10160
X58420Y10160
X58420Y12700
X58420Y15240
X58420Y17780
X58420Y20320
T5
X50800Y36830
X40640Y31750
X50800Y31750
X50800Y26670
X40640Y26670
X40640Y21590
X50800Y21590
X50800Y46990
X40640Y46990
X27940Y50800
X25400Y50800
X27940Y45720
X25400Y45720
X12700Y50800
X22860Y50800
X12700Y45720
X22860Y45720
X27940Y40640
X25400Y40640
X27940Y35560
X25400Y35560
X22860Y40640
X12700Y40640
X12700Y35560
X22860Y35560
X50800Y41910
X40640Y41910
X40640Y36830
X128270Y2540
X128270Y5080
X121920Y2540
X121920Y5080
X111760Y35560
X121920Y35560
X111760Y27940
X121920Y27940
T6
X96723Y6502
X50800Y12598
X139802Y8941
X132486Y6502
X98349Y3251
X148742Y54051
X147117Y55677
X113386Y62179
X93878Y36170
X112166Y66650
X176784Y8534
X119075Y13005
X26010Y21539
X36982Y11786
X40234Y15037
X55677Y28042
X31699Y44704
X166218Y43485
X52832Y35357
X164186Y33731
X75590Y58522
X147930Y40234
X116637Y22758
X162560Y65430
X129642Y65430
X133706Y6096
X135331Y7722
X119075Y16662
X115824Y19914
X162560Y66650
X128016Y65430
X160122Y28042
X167437Y58522
X179629Y9754
X95504Y54051
X107696Y30074
X106883Y32918
X110134Y42672
X174752Y46736
X108915Y21539
X129235Y56896
X36576Y56083
X43891Y45517
X63805Y54051
X43485Y37389
X121920Y10160
X35763Y15037
X101600Y9347
X66650Y61773
X47142Y45517
X43485Y35763
X10973Y22758
X68275Y24384
X140614Y53238
X132080Y69088
X32106Y70714
X137770Y2438
M30