M48
;GenerationSoftware,Autodesk,EAGLE,9.6.0*%
;CreationDate,2024-02-25T22:06:47Z*%
FMAT,2
ICI,OFF
METRIC,TZ,000.000
T7C0.350
T6C0.813
T5C1.000
T4C1.016
T3C1.194
T2C1.200
T1C1.499
%
G90
M71
T1
X36830Y67310
X36830Y59690
X52070Y59690
X52070Y67310
T2
X91440Y64770
X93980Y64770
X96520Y64770
X104140Y69850
X106680Y69850
X109220Y69850
X111760Y69850
X114300Y69850
X116840Y69850
X119380Y69850
X71120Y69850
X124460Y69850
X127000Y69850
X129540Y69850
X96520Y59690
X93980Y59690
X91440Y59690
X88900Y59690
X86360Y59690
X83820Y59690
X121920Y69850
X68580Y69850
X101600Y64770
X104140Y64770
X106680Y64770
X109220Y64770
X101600Y69850
X111760Y64770
X114300Y64770
X121920Y59690
X116840Y64770
X119380Y64770
X121920Y64770
X124460Y64770
X127000Y64770
X129540Y64770
X101600Y59690
X104140Y59690
X106680Y59690
X109220Y59690
X111760Y59690
X114300Y59690
X116840Y59690
X119380Y59690
X124460Y59690
X127000Y59690
X129540Y59690
X81280Y59690
X78740Y59690
X76200Y59690
X73660Y59690
X71120Y59690
X68580Y59690
X135890Y5080
X138430Y5080
X140970Y5080
X143510Y5080
X96520Y69850
X93980Y69850
X91440Y69850
X88900Y69850
X86360Y69850
X83820Y69850
X81280Y69850
X78740Y69850
X76200Y69850
X73660Y69850
X88900Y64770
X86360Y64770
X83820Y64770
X81280Y64770
X78740Y64770
X76200Y64770
X73660Y64770
X71120Y64770
X68580Y64770
T3
X150495Y44450
X172085Y44450
X172085Y39370
X172085Y34290
X150495Y19050
X172085Y29210
X172085Y24130
X172085Y19050
X150495Y24130
X150495Y29210
X150495Y34290
X150495Y39370
T4
X7620Y8890
X7620Y11430
X7620Y13970
X7620Y16510
X7620Y19050
X7620Y21590
X7620Y3810
X21610Y55980
X24110Y55980
X73780Y10260
X76280Y10260
X86280Y10260
X78780Y10260
X81280Y10260
X83780Y10260
X88780Y10260
X91280Y10260
X71280Y10260
X73780Y28040
X76280Y28040
X86280Y28040
X78780Y28040
X81280Y28040
X83780Y28040
X88780Y28040
X91280Y28040
X6390Y55980
X8890Y55980
X11390Y55980
X71280Y28040
X7620Y43180
X7620Y30480
X7620Y33020
X7620Y35560
X7620Y38100
X7620Y40640
X7620Y45720
X7620Y27940
X7620Y6350
X82530Y44550
X75030Y44550
X77530Y44550
X80030Y44550
X85030Y44550
X87530Y44550
T5
X128270Y12700
X128270Y10160
X102870Y10160
X102870Y12700
X102870Y15240
X102870Y17780
X102870Y20320
X102870Y22860
X102870Y25400
X102870Y27940
X102870Y30480
X102870Y33020
X102870Y35560
X102870Y38100
X128270Y17780
X102870Y40640
X102870Y43180
X102870Y45720
X102870Y48260
X102870Y50800
X102870Y53340
X58420Y53340
X58420Y50800
X58420Y48260
X58420Y45720
X58420Y43180
X58420Y40640
X58420Y38100
X58420Y35560
X58420Y30480
X58420Y27940
X58420Y25400
X58420Y22860
X58420Y20320
X58420Y17780
X58420Y15240
X58420Y12700
X58420Y10160
X33020Y10160
X33020Y12700
X33020Y15240
X33020Y17780
X33020Y20320
X33020Y22860
X33020Y25400
X33020Y27940
X33020Y30480
X33020Y33020
X33020Y35560
X33020Y38100
X33020Y40640
X33020Y43180
X33020Y45720
X33020Y48260
X33020Y50800
X33020Y53340
X58420Y33020
X128270Y20320
X128270Y22860
X128270Y25400
X128270Y27940
X128270Y30480
X128270Y33020
X128270Y35560
X128270Y38100
X128270Y40640
X128270Y43180
X128270Y45720
X128270Y48260
X128270Y50800
X128270Y53340
X128270Y15240
T6
X50800Y21590
X40640Y46990
X50800Y46990
X50800Y41910
X40640Y41910
X40640Y36830
X50800Y36830
X40640Y31750
X50800Y31750
X50800Y26670
X40640Y26670
X40640Y21590
T7
X86157Y48768
X90221Y44704
X95504Y32918
X95504Y35357
X65837Y23978
X108509Y55677
X106477Y53645
X73152Y17069
X49987Y8534
X155245Y31293
X63398Y54458
X50800Y15850
X56896Y60960
X60147Y57709
X93066Y26822
X49581Y65837
X58522Y57709
X54864Y51206
X94285Y11786
X80061Y51206
X94285Y44298
M30