M48
; DRILL file {KiCad 7.0.10} date Thu Jul  4 23:27:21 2024
; FORMAT={-:-/ absolute / inch / decimal}
; #@! TF.CreationDate,2024-07-04T23:27:21-06:00
; #@! TF.GenerationSoftware,Kicad,Pcbnew,7.0.10
; #@! TF.FileFunction,Plated,1,4,PTH
FMAT,2
INCH
; #@! TA.AperFunction,Plated,PTH,ViaDrill
T1C0.0157
; #@! TA.AperFunction,Plated,PTH,ComponentDrill
T2C0.0276
; #@! TA.AperFunction,Plated,PTH,ComponentDrill
T3C0.0300
; #@! TA.AperFunction,Plated,PTH,ComponentDrill
T4C0.0315
; #@! TA.AperFunction,Plated,PTH,ComponentDrill
T5C0.0354
; #@! TA.AperFunction,Plated,PTH,ComponentDrill
T6C0.0394
; #@! TA.AperFunction,Plated,PTH,ComponentDrill
T7C0.0400
; #@! TA.AperFunction,Plated,PTH,ComponentDrill
T8C0.0433
; #@! TA.AperFunction,Plated,PTH,ComponentDrill
T9C0.0512
; #@! TA.AperFunction,Plated,PTH,ComponentDrill
T10C0.0551
; #@! TA.AperFunction,Plated,PTH,ComponentDrill
T11C0.1250
; #@! TA.AperFunction,Plated,PTH,ComponentDrill
T12C0.1260
%
G90
G05
T1
X2.7505Y-3.7473
X2.7965Y-3.4209
X2.833Y-3.842
X3.0428Y-3.7125
X3.2053Y-3.2891
X3.2552Y-3.3448
X3.3317Y-4.1587
X3.3539Y-3.3461
X3.6734Y-3.4229
X3.828Y-3.1839
X3.8467Y-1.7631
X3.9269Y-3.085
X3.9811Y-4.3356
X4.0103Y-3.0475
X4.0379Y-2.086
X4.125Y-3.2313
X4.2537Y-4.5737
X4.3729Y-3.2729
X4.9339Y-3.6567
X5.8275Y-4.6817
X5.8509Y-3.4509
X5.9759Y-3.665
T2
X1.75Y-2.9
X1.75Y-3.1
X1.8Y-1.3
X2.05Y-2.9
X2.05Y-3.1
X2.1Y-1.3
X2.4Y-1.3
X2.7Y-1.3
X2.95Y-1.3
X3.25Y-1.3
X3.45Y-1.3
X3.75Y-1.3
X4.0Y-1.3
X4.3Y-1.3
X4.45Y-1.3
X4.75Y-1.3
X5.0Y-1.3
X5.3Y-1.3
X5.45Y-1.3
X5.75Y-1.3
T3
X1.8795Y-3.7902
X1.8795Y-3.8902
X1.8795Y-3.9902
X1.8795Y-4.0902
X1.8795Y-4.1902
X1.8795Y-4.2902
X1.8795Y-4.3902
X2.963Y-4.0602
X2.963Y-4.1602
X3.7Y-3.5
X3.7Y-3.6
X3.7Y-3.7
X3.7Y-3.8
X3.7Y-3.9
X3.7Y-4.0
X3.7Y-4.1
X3.7Y-4.2
X3.7Y-4.3
X3.7Y-4.4
X3.7Y-4.5
X3.7Y-4.6
X4.4Y-3.5
X4.4Y-3.6
X4.4Y-3.7
X4.4Y-3.8
X4.4Y-3.9
X4.4Y-4.0
X4.4Y-4.1
X4.4Y-4.2
X4.4Y-4.3
X4.4Y-4.4
X4.4Y-4.5
X4.4Y-4.6
X5.25Y-5.2
X5.25Y-5.3
X5.25Y-5.4
X5.25Y-5.5
X5.25Y-5.6
X5.25Y-5.7
X5.25Y-5.8
X5.25Y-5.9
X5.95Y-1.45
X5.95Y-1.55
X5.95Y-1.65
X5.95Y-1.75
X5.95Y-1.85
X5.95Y-1.95
X5.95Y-2.05
X5.95Y-2.15
T4
X4.8622Y-4.5
X5.0Y-4.5
X5.0622Y-4.8
X5.2Y-4.8
X5.2622Y-4.5
X5.4Y-4.5
X5.4622Y-4.8
X5.6Y-4.8
X5.6622Y-4.5
X5.8Y-4.5
X5.8622Y-4.8
X6.0Y-4.8
T5
X1.9Y-1.6815
X1.9Y-2.1
X2.0Y-1.6815
X2.0Y-2.1
X5.5Y-1.7
X5.5Y-2.1
X5.6Y-1.7
X5.6Y-2.1
T6
X1.1Y-1.6
X1.1Y-1.7
X1.1Y-1.8
X1.1Y-1.9
X1.1Y-2.3
X1.1Y-2.4
X1.1Y-2.5
X1.1Y-2.6
X1.1Y-3.0
X1.1Y-3.1
X1.1Y-3.2
X1.1Y-3.3
X1.1Y-3.7
X1.1Y-3.8
X1.1Y-3.9
X1.1Y-4.0
X1.1Y-4.4
X1.1Y-4.5
X1.1Y-4.6
X1.1Y-4.7
X1.1Y-5.1
X1.1Y-5.2
X1.1Y-5.3
X1.1Y-5.4
X1.5Y-1.1
X1.5Y-1.2
X1.5Y-1.3
X1.5Y-1.6
X1.5Y-1.7
X1.5Y-1.8
X1.5Y-1.9
X1.5Y-2.3
X1.5Y-2.4
X1.5Y-2.5
X1.5Y-2.6
X1.5Y-3.0
X1.5Y-3.1
X1.5Y-3.2
X1.5Y-3.3
X1.5Y-3.7
X1.5Y-3.8
X1.5Y-3.9
X1.5Y-4.0
X1.5Y-4.1
X1.5Y-4.2
X1.5Y-4.3
X1.5Y-4.7
X1.5Y-4.8
X1.5Y-4.9
X1.9Y-4.9
X1.9Y-5.0
X1.9Y-5.1
X2.3Y-4.9
X2.3Y-5.0
X2.3Y-5.1
X6.1Y-2.5
X6.1Y-2.6
X6.1Y-2.7
X6.1Y-3.0
X6.1Y-3.1
X6.1Y-3.2
X6.1Y-3.6
X6.1Y-3.7
X6.1Y-3.8
X6.1Y-5.3
X6.1Y-5.4
X6.4Y-2.5
X6.4Y-2.6
X6.4Y-2.7
X6.4Y-3.0
X6.4Y-3.1
X6.4Y-3.2
X6.4Y-3.6
X6.4Y-3.7
X6.4Y-3.8
X6.4Y-4.2
X6.4Y-4.3
X6.4Y-4.4
X6.4Y-4.8
X6.4Y-4.9
X6.4Y-5.0
T7
X2.4Y-1.6
X2.4Y-1.7
X2.4Y-1.8
X2.4Y-1.9
X2.4Y-2.0
X2.4Y-2.1
X2.4Y-2.2
X2.4Y-2.3
X2.4Y-2.4
X2.4Y-2.5
X2.4Y-2.6
X2.4Y-2.7
X2.4Y-2.8
X2.4Y-2.9
X2.4Y-3.0
X3.4Y-1.6
X3.4Y-1.7
X3.4Y-1.8
X3.4Y-1.9
X3.4Y-2.0
X3.4Y-2.1
X3.4Y-2.2
X3.4Y-2.3
X3.4Y-2.4
X3.4Y-2.5
X3.4Y-2.6
X3.4Y-2.7
X3.4Y-2.8
X3.4Y-2.9
X3.4Y-3.0
X4.2Y-1.6
X4.2Y-1.7
X4.2Y-1.8
X4.2Y-1.9
X4.2Y-2.0
X4.2Y-2.1
X4.2Y-2.2
X4.2Y-2.3
X4.2Y-2.4
X4.2Y-2.5
X4.2Y-2.6
X4.2Y-2.7
X4.2Y-2.8
X4.2Y-2.9
X4.2Y-3.0
X5.2Y-1.6
X5.2Y-1.7
X5.2Y-1.8
X5.2Y-1.9
X5.2Y-2.0
X5.2Y-2.1
X5.2Y-2.2
X5.2Y-2.3
X5.2Y-2.4
X5.2Y-2.5
X5.2Y-2.6
X5.2Y-2.7
X5.2Y-2.8
X5.2Y-2.9
X5.2Y-3.0
T8
X1.8441Y-2.4228
X1.8441Y-2.6
X2.1Y-2.4228
X2.1Y-2.6
X4.7Y-4.1634
X4.8Y-4.1634
X4.9Y-4.1634
X5.2Y-4.1634
X5.3Y-4.1634
X5.4Y-4.1634
X5.472Y-2.5114
X5.472Y-2.6886
X5.7Y-3.6
X5.7Y-4.0
X5.728Y-2.5114
X5.728Y-2.6886
X6.1Y-4.1
X6.1Y-4.5
T9
X3.6063Y-5.4
X3.8031Y-5.4
X4.0Y-5.4
X4.5031Y-5.3933
X4.7Y-5.3933
X4.8969Y-5.3933
T10
X1.5Y-5.5
X1.7Y-5.5
X1.9Y-5.5
X2.1Y-5.5
X2.5Y-5.5
X2.7Y-5.5
X2.9Y-5.5
X3.1Y-5.5
T11
X5.7Y-5.25
X5.7Y-5.85
X6.4Y-1.5
X6.4Y-2.1
T12
X1.9043Y-3.6583
X1.9043Y-4.5598
X3.2783Y-3.6583
X3.2783Y-4.5598
T6
G00X6.3638Y-5.5394
M15
G01X6.3638Y-5.4606
M16
G05
G00X6.5213Y-5.315
M15
G01X6.4425Y-5.315
M16
G05
G00X6.6Y-5.5394
M15
G01X6.6Y-5.4606
M16
G05
M30
