%TF.GenerationSoftware,KiCad,Pcbnew,7.0.10*%
%TF.CreationDate,2024-07-04T23:25:59-06:00*%
%TF.ProjectId,ESP32WROOM30PIN_CARRIER_BOARD_KELLA,45535033-3257-4524-9f4f-4d333050494e,rev?*%
%TF.SameCoordinates,Original*%
%TF.FileFunction,Copper,L3,Inr*%
%TF.FilePolarity,Positive*%
%FSLAX46Y46*%
G04 Gerber Fmt 4.6, Leading zero omitted, Abs format (unit mm)*
G04 Created by KiCad (PCBNEW 7.0.10) date 2024-07-04 23:25:59*
%MOMM*%
%LPD*%
G01*
G04 APERTURE LIST*
G04 Aperture macros list*
%AMRoundRect*
0 Rectangle with rounded corners*
0 $1 Rounding radius*
0 $2 $3 $4 $5 $6 $7 $8 $9 X,Y pos of 4 corners*
0 Add a 4 corners polygon primitive as box body*
4,1,4,$2,$3,$4,$5,$6,$7,$8,$9,$2,$3,0*
0 Add four circle primitives for the rounded corners*
1,1,$1+$1,$2,$3*
1,1,$1+$1,$4,$5*
1,1,$1+$1,$6,$7*
1,1,$1+$1,$8,$9*
0 Add four rect primitives between the rounded corners*
20,1,$1+$1,$2,$3,$4,$5,0*
20,1,$1+$1,$4,$5,$6,$7,0*
20,1,$1+$1,$6,$7,$8,$9,0*
20,1,$1+$1,$8,$9,$2,$3,0*%
G04 Aperture macros list end*
%TA.AperFunction,ComponentPad*%
%ADD10C,1.400000*%
%TD*%
%TA.AperFunction,ComponentPad*%
%ADD11O,1.400000X1.400000*%
%TD*%
%TA.AperFunction,ComponentPad*%
%ADD12R,1.700000X1.700000*%
%TD*%
%TA.AperFunction,ComponentPad*%
%ADD13O,1.700000X1.700000*%
%TD*%
%TA.AperFunction,ComponentPad*%
%ADD14R,2.200000X2.200000*%
%TD*%
%TA.AperFunction,ComponentPad*%
%ADD15O,2.200000X2.200000*%
%TD*%
%TA.AperFunction,ComponentPad*%
%ADD16RoundRect,0.249999X-0.790001X-1.550001X0.790001X-1.550001X0.790001X1.550001X-0.790001X1.550001X0*%
%TD*%
%TA.AperFunction,ComponentPad*%
%ADD17O,2.080000X3.600000*%
%TD*%
%TA.AperFunction,ComponentPad*%
%ADD18C,2.340000*%
%TD*%
%TA.AperFunction,ComponentPad*%
%ADD19C,1.600000*%
%TD*%
%TA.AperFunction,ComponentPad*%
%ADD20C,1.524000*%
%TD*%
%TA.AperFunction,ComponentPad*%
%ADD21C,4.191000*%
%TD*%
%TA.AperFunction,ComponentPad*%
%ADD22C,4.000000*%
%TD*%
%TA.AperFunction,ComponentPad*%
%ADD23C,2.000000*%
%TD*%
%TA.AperFunction,ComponentPad*%
%ADD24R,1.800000X1.800000*%
%TD*%
%TA.AperFunction,ComponentPad*%
%ADD25C,1.800000*%
%TD*%
%TA.AperFunction,ComponentPad*%
%ADD26R,1.524000X1.524000*%
%TD*%
%TA.AperFunction,ComponentPad*%
%ADD27R,3.500000X3.500000*%
%TD*%
%TA.AperFunction,ComponentPad*%
%ADD28RoundRect,0.750000X0.750000X1.000000X-0.750000X1.000000X-0.750000X-1.000000X0.750000X-1.000000X0*%
%TD*%
%TA.AperFunction,ComponentPad*%
%ADD29RoundRect,0.875000X0.875000X0.875000X-0.875000X0.875000X-0.875000X-0.875000X0.875000X-0.875000X0*%
%TD*%
%TA.AperFunction,ComponentPad*%
%ADD30R,1.905000X2.000000*%
%TD*%
%TA.AperFunction,ComponentPad*%
%ADD31O,1.905000X2.000000*%
%TD*%
%TA.AperFunction,ViaPad*%
%ADD32C,0.800000*%
%TD*%
%TA.AperFunction,Conductor*%
%ADD33C,1.000000*%
%TD*%
G04 APERTURE END LIST*
D10*
%TO.N,Net-(U4-GPIO12(ADC2-CH5))*%
%TO.C,R1*%
X53340000Y-33020000D03*
D11*
%TO.N,Net-(D2-A)*%
X45720000Y-33020000D03*
%TD*%
D12*
%TO.N,Net-(J13-Pin_1)*%
%TO.C,J21*%
X38100000Y-76200000D03*
D13*
%TO.N,GND*%
X38100000Y-78740000D03*
%TO.N,Net-(J21-Pin_3)*%
X38100000Y-81280000D03*
%TO.N,Net-(J21-Pin_4)*%
X38100000Y-83820000D03*
%TD*%
D14*
%TO.N,Net-(D1-K)*%
%TO.C,D1*%
X154940000Y-104140000D03*
D15*
%TO.N,Net-(D1-A)*%
X154940000Y-114300000D03*
%TD*%
D12*
%TO.N,Net-(J11-Pin_1)*%
%TO.C,J25*%
X162560000Y-91440000D03*
D13*
%TO.N,GND*%
X162560000Y-93980000D03*
%TO.N,Net-(J25-Pin_3)*%
X162560000Y-96520000D03*
%TD*%
D16*
%TO.N,VDD2*%
%TO.C,J2*%
X63500000Y-139700000D03*
D17*
%TO.N,GND*%
X68580000Y-139700000D03*
%TO.N,Net-(J2-Pin_3)*%
X73660000Y-139700000D03*
%TO.N,Net-(J2-Pin_4)*%
X78740000Y-139700000D03*
%TD*%
D18*
%TO.N,Net-(J13-Pin_1)*%
%TO.C,RV2*%
X114380000Y-136990000D03*
%TO.N,Net-(U4-GPIO32(ADC1-CH4))*%
X119380000Y-136990000D03*
%TO.N,GND*%
X124380000Y-136990000D03*
%TD*%
D10*
%TO.N,Net-(J13-Pin_1)*%
%TO.C,R9*%
X44450000Y-73660000D03*
D11*
%TO.N,Net-(J21-Pin_4)*%
X52070000Y-73660000D03*
%TD*%
D10*
%TO.N,Net-(J13-Pin_1)*%
%TO.C,R10*%
X44450000Y-78740000D03*
D11*
%TO.N,Net-(J21-Pin_3)*%
X52070000Y-78740000D03*
%TD*%
D19*
%TO.N,VDD1*%
%TO.C,C3*%
X133660000Y-114300000D03*
%TO.N,GND*%
X137160000Y-114300000D03*
%TD*%
D20*
%TO.N,Net-(J11-Pin_1)*%
%TO.C,U6*%
X133350000Y-132080000D03*
%TO.N,GND*%
X133350000Y-134620000D03*
%TO.N,Net-(J9-Pin_3)*%
X133350000Y-137160000D03*
%TO.N,Net-(J9-Pin_4)*%
X133350000Y-139700000D03*
%TO.N,unconnected-(U6-XDA-Pad5)*%
X133350000Y-142240000D03*
%TO.N,unconnected-(U6-XCL-Pad6)*%
X133350000Y-144780000D03*
%TO.N,unconnected-(U6-ADO-Pad7)*%
X133350000Y-147320000D03*
%TO.N,unconnected-(U6-INT-Pad8)*%
X133350000Y-149860000D03*
D21*
%TO.N,N/C*%
X144780000Y-133350000D03*
X144780000Y-148590000D03*
%TD*%
D16*
%TO.N,VDD2*%
%TO.C,J27*%
X38100000Y-139700000D03*
D17*
%TO.N,GND*%
X43180000Y-139700000D03*
%TO.N,Net-(J2-Pin_3)*%
X48260000Y-139700000D03*
%TO.N,Net-(J2-Pin_4)*%
X53340000Y-139700000D03*
%TD*%
D14*
%TO.N,Net-(D3-K)*%
%TO.C,D3*%
X144780000Y-91440000D03*
D15*
%TO.N,Net-(D1-A)*%
X144780000Y-101600000D03*
%TD*%
D20*
%TO.N,Net-(U4-GPIO04(ADC2-CH0))*%
%TO.C,U5*%
X47740000Y-96270000D03*
%TO.N,Net-(U4-GPIO18(SCK))*%
X47740000Y-98810000D03*
%TO.N,Net-(U4-GPIO23(MOSI))*%
X47740000Y-101350000D03*
%TO.N,Net-(U4-GPIO19(MISO))*%
X47740000Y-103890000D03*
%TO.N,Net-(U4-GPIO05(SS))*%
X47740000Y-106430000D03*
%TO.N,GND*%
X47740000Y-108970000D03*
%TO.N,VDD2*%
X47740000Y-111510000D03*
%TO.N,Net-(J2-Pin_4)*%
X75260000Y-103130000D03*
%TO.N,Net-(J2-Pin_3)*%
X75260000Y-105670000D03*
D22*
%TO.N,N/C*%
X48370000Y-92920000D03*
X48370000Y-115820000D03*
X83270000Y-92920000D03*
X83270000Y-115820000D03*
%TD*%
D12*
%TO.N,Net-(J11-Pin_1)*%
%TO.C,J5*%
X27940000Y-76200000D03*
D13*
%TO.N,GND*%
X27940000Y-78740000D03*
%TO.N,Net-(J5-Pin_3)*%
X27940000Y-81280000D03*
%TO.N,Net-(J5-Pin_4)*%
X27940000Y-83820000D03*
%TD*%
D19*
%TO.N,VDD2*%
%TO.C,C6*%
X138740000Y-121920000D03*
%TO.N,GND*%
X142240000Y-121920000D03*
%TD*%
D23*
%TO.N,Net-(J11-Pin_1)*%
%TO.C,SW2*%
X138990000Y-63790000D03*
X145490000Y-63790000D03*
%TO.N,Net-(SW2A-D)*%
X138990000Y-68290000D03*
X145490000Y-68290000D03*
%TD*%
D10*
%TO.N,Net-(U3-SDA)*%
%TO.C,R8*%
X95250000Y-33020000D03*
D11*
%TO.N,Net-(J11-Pin_1)*%
X87630000Y-33020000D03*
%TD*%
D12*
%TO.N,Net-(J11-Pin_1)*%
%TO.C,J6*%
X27940000Y-93980000D03*
D13*
%TO.N,GND*%
X27940000Y-96520000D03*
%TO.N,Net-(J6-Pin_3)*%
X27940000Y-99060000D03*
%TO.N,Net-(J6-Pin_4)*%
X27940000Y-101600000D03*
%TD*%
D12*
%TO.N,Net-(J13-Pin_1)*%
%TO.C,J19*%
X162560000Y-63500000D03*
D13*
%TO.N,GND*%
X162560000Y-66040000D03*
%TO.N,Net-(J19-Pin_3)*%
X162560000Y-68580000D03*
%TD*%
D12*
%TO.N,Net-(J11-Pin_1)*%
%TO.C,J4*%
X27940000Y-58420000D03*
D13*
%TO.N,GND*%
X27940000Y-60960000D03*
%TO.N,Net-(J4-Pin_3)*%
X27940000Y-63500000D03*
%TO.N,Net-(J4-Pin_4)*%
X27940000Y-66040000D03*
%TD*%
D19*
%TO.N,VDD2*%
%TO.C,C5*%
X148900000Y-121920000D03*
%TO.N,GND*%
X152400000Y-121920000D03*
%TD*%
D12*
%TO.N,Net-(J13-Pin_1)*%
%TO.C,J16*%
X154940000Y-76200000D03*
D13*
%TO.N,GND*%
X154940000Y-78740000D03*
%TO.N,Net-(J16-Pin_3)*%
X154940000Y-81280000D03*
%TD*%
D12*
%TO.N,Net-(J11-Pin_1)*%
%TO.C,J26*%
X162560000Y-106680000D03*
D13*
%TO.N,GND*%
X162560000Y-109220000D03*
%TO.N,Net-(J26-Pin_3)*%
X162560000Y-111760000D03*
%TD*%
D24*
%TO.N,GND*%
%TO.C,D2*%
X48260000Y-42710000D03*
D25*
%TO.N,Net-(D2-A)*%
X50800000Y-42710000D03*
%TD*%
D12*
%TO.N,Net-(J11-Pin_1)*%
%TO.C,J9*%
X38100000Y-40640000D03*
D13*
%TO.N,GND*%
X38100000Y-43180000D03*
%TO.N,Net-(J9-Pin_3)*%
X38100000Y-45720000D03*
%TO.N,Net-(J9-Pin_4)*%
X38100000Y-48260000D03*
%TD*%
D12*
%TO.N,Net-(J11-Pin_1)*%
%TO.C,J8*%
X27940000Y-129540000D03*
D13*
%TO.N,GND*%
X27940000Y-132080000D03*
%TO.N,Net-(J8-Pin_3)*%
X27940000Y-134620000D03*
%TO.N,Net-(J8-Pin_4)*%
X27940000Y-137160000D03*
%TD*%
D24*
%TO.N,GND*%
%TO.C,D5*%
X139700000Y-43180000D03*
D25*
%TO.N,Net-(D5-A)*%
X142240000Y-43180000D03*
%TD*%
D12*
%TO.N,Net-(D1-A)*%
%TO.C,J1*%
X154940000Y-137160000D03*
D13*
%TO.N,GND*%
X154940000Y-134620000D03*
%TD*%
D24*
%TO.N,GND*%
%TO.C,D4*%
X48260000Y-53340000D03*
D25*
%TO.N,Net-(D4-A)*%
X50800000Y-53340000D03*
%TD*%
D19*
%TO.N,VDD1*%
%TO.C,C2*%
X143820000Y-114300000D03*
%TO.N,GND*%
X147320000Y-114300000D03*
%TD*%
D12*
%TO.N,Net-(J13-Pin_1)*%
%TO.C,J20*%
X38100000Y-27940000D03*
D13*
%TO.N,GND*%
X38100000Y-30480000D03*
%TO.N,Net-(J20-Pin_3)*%
X38100000Y-33020000D03*
%TD*%
D12*
%TO.N,Net-(J13-Pin_1)*%
%TO.C,J13*%
X38100000Y-119380000D03*
D13*
%TO.N,GND*%
X38100000Y-121920000D03*
%TO.N,Net-(J13-Pin_3)*%
X38100000Y-124460000D03*
%TD*%
D10*
%TO.N,Net-(SW1A-D)*%
%TO.C,R5*%
X74930000Y-33020000D03*
D11*
%TO.N,GND*%
X82550000Y-33020000D03*
%TD*%
D12*
%TO.N,Net-(J11-Pin_1)*%
%TO.C,J11*%
X38100000Y-58420000D03*
D13*
%TO.N,GND*%
X38100000Y-60960000D03*
%TO.N,Net-(J11-Pin_3)*%
X38100000Y-63500000D03*
%TO.N,Net-(J11-Pin_4)*%
X38100000Y-66040000D03*
%TD*%
D19*
%TO.N,VDD1*%
%TO.C,C1*%
X123500000Y-114300000D03*
%TO.N,GND*%
X127000000Y-114300000D03*
%TD*%
D12*
%TO.N,Net-(J11-Pin_1)*%
%TO.C,J3*%
X27940000Y-40640000D03*
D13*
%TO.N,GND*%
X27940000Y-43180000D03*
%TO.N,Net-(J3-Pin_3)*%
X27940000Y-45720000D03*
%TO.N,Net-(J3-Pin_4)*%
X27940000Y-48260000D03*
%TD*%
D12*
%TO.N,Net-(J13-Pin_1)*%
%TO.C,J18*%
X162560000Y-76200000D03*
D13*
%TO.N,GND*%
X162560000Y-78740000D03*
%TO.N,Net-(J18-Pin_3)*%
X162560000Y-81280000D03*
%TD*%
D12*
%TO.N,Net-(J11-Pin_1)*%
%TO.C,J22*%
X38100000Y-93980000D03*
D13*
%TO.N,GND*%
X38100000Y-96520000D03*
%TO.N,Net-(J22-Pin_3)*%
X38100000Y-99060000D03*
%TO.N,Net-(J22-Pin_4)*%
X38100000Y-101600000D03*
%TO.N,Net-(J22-Pin_5)*%
X38100000Y-104140000D03*
%TO.N,Net-(J22-Pin_6)*%
X38100000Y-106680000D03*
%TO.N,Net-(J22-Pin_7)*%
X38100000Y-109220000D03*
%TD*%
D12*
%TO.N,Net-(J13-Pin_1)*%
%TO.C,J14*%
X48260000Y-124460000D03*
D13*
%TO.N,GND*%
X48260000Y-127000000D03*
%TO.N,Net-(J14-Pin_3)*%
X48260000Y-129540000D03*
%TD*%
D24*
%TO.N,GND*%
%TO.C,D6*%
X139700000Y-53340000D03*
D25*
%TO.N,Net-(D6-A)*%
X142240000Y-53340000D03*
%TD*%
D10*
%TO.N,Net-(U7-GPIO14(ADC2-CH6))*%
%TO.C,R3*%
X138430000Y-33020000D03*
D11*
%TO.N,Net-(D5-A)*%
X146050000Y-33020000D03*
%TD*%
D26*
%TO.N,unconnected-(U4-EN-Pad1)*%
%TO.C,U4*%
X86360000Y-76200000D03*
D20*
%TO.N,Net-(J13-Pin_3)*%
X86360000Y-73660000D03*
%TO.N,Net-(J14-Pin_3)*%
X86360000Y-71120000D03*
%TO.N,Net-(J15-Pin_3)*%
X86360000Y-68580000D03*
%TO.N,Net-(J16-Pin_3)*%
X86360000Y-66040000D03*
%TO.N,Net-(U4-GPIO32(ADC1-CH4))*%
X86360000Y-63500000D03*
%TO.N,Net-(J17-Pin_3)*%
X86360000Y-60960000D03*
%TO.N,Net-(J18-Pin_3)*%
X86360000Y-58420000D03*
%TO.N,Net-(J19-Pin_3)*%
X86360000Y-55880000D03*
%TO.N,Net-(SW1A-D)*%
X86360000Y-53340000D03*
%TO.N,Net-(U4-GPIO14(ADC2-CH6))*%
X86360000Y-50800000D03*
%TO.N,Net-(U4-GPIO12(ADC2-CH5))*%
X86360000Y-48260000D03*
%TO.N,Net-(J20-Pin_3)*%
X86360000Y-45720000D03*
%TO.N,GND*%
X86360000Y-43180000D03*
%TO.N,VDD2*%
X86360000Y-40640000D03*
%TO.N,Net-(J13-Pin_1)*%
X60960000Y-40640000D03*
%TO.N,GND*%
X60960000Y-43180000D03*
%TO.N,unconnected-(U4-GPIO12(ADC2-CH3)-Pad18)*%
X60960000Y-45720000D03*
%TO.N,unconnected-(U4-GPIO02(ADC2-CH2)-Pad19)*%
X60960000Y-48260000D03*
%TO.N,Net-(U4-GPIO04(ADC2-CH0))*%
X60960000Y-50800000D03*
%TO.N,Net-(U4-GPIO16(RXD2))*%
X60960000Y-53340000D03*
%TO.N,Net-(U4-GPIO17(TXD2))*%
X60960000Y-55880000D03*
%TO.N,Net-(U4-GPIO05(SS))*%
X60960000Y-58420000D03*
%TO.N,Net-(U4-GPIO18(SCK))*%
X60960000Y-60960000D03*
%TO.N,Net-(U4-GPIO19(MISO))*%
X60960000Y-63500000D03*
%TO.N,Net-(J21-Pin_4)*%
X60960000Y-66040000D03*
%TO.N,unconnected-(U4-GPIO03(CLK2)-Pad27)*%
X60960000Y-68580000D03*
%TO.N,unconnected-(U4-GPIO01(CLK3)-Pad28)*%
X60960000Y-71120000D03*
%TO.N,Net-(J21-Pin_3)*%
X60960000Y-73660000D03*
%TO.N,Net-(U4-GPIO23(MOSI))*%
X60960000Y-76200000D03*
%TD*%
D27*
%TO.N,Net-(D1-A)*%
%TO.C,J10*%
X161640000Y-139700000D03*
D28*
%TO.N,GND*%
X167640000Y-139700000D03*
D29*
%TO.N,unconnected-(J10-Pad3)*%
X164640000Y-135000000D03*
%TD*%
D26*
%TO.N,unconnected-(U7-EN-Pad1)*%
%TO.C,U7*%
X132080000Y-76200000D03*
D20*
%TO.N,Net-(J23-Pin_3)*%
X132080000Y-73660000D03*
%TO.N,Net-(J24-Pin_3)*%
X132080000Y-71120000D03*
%TO.N,Net-(J25-Pin_3)*%
X132080000Y-68580000D03*
%TO.N,Net-(J26-Pin_3)*%
X132080000Y-66040000D03*
%TO.N,Net-(U7-GPIO32(ADC1-CH4))*%
X132080000Y-63500000D03*
%TO.N,Net-(U3-A2)*%
X132080000Y-60960000D03*
%TO.N,Net-(U3-A1)*%
X132080000Y-58420000D03*
%TO.N,Net-(J22-Pin_7)*%
X132080000Y-55880000D03*
%TO.N,Net-(SW2A-D)*%
X132080000Y-53340000D03*
%TO.N,Net-(U7-GPIO14(ADC2-CH6))*%
X132080000Y-50800000D03*
%TO.N,Net-(U7-GPIO12(ADC2-CH5))*%
X132080000Y-48260000D03*
%TO.N,Net-(U3-RST)*%
X132080000Y-45720000D03*
%TO.N,GND*%
X132080000Y-43180000D03*
%TO.N,VDD1*%
X132080000Y-40640000D03*
%TO.N,Net-(J11-Pin_1)*%
X106680000Y-40640000D03*
%TO.N,GND*%
X106680000Y-43180000D03*
%TO.N,unconnected-(U7-GPIO12(ADC2-CH3)-Pad18)*%
X106680000Y-45720000D03*
%TO.N,unconnected-(U7-GPIO02(ADC2-CH2)-Pad19)*%
X106680000Y-48260000D03*
%TO.N,Net-(U3-A0)*%
X106680000Y-50800000D03*
%TO.N,Net-(U4-GPIO17(TXD2))*%
X106680000Y-53340000D03*
%TO.N,Net-(U4-GPIO16(RXD2))*%
X106680000Y-55880000D03*
%TO.N,Net-(J22-Pin_6)*%
X106680000Y-58420000D03*
%TO.N,Net-(J22-Pin_3)*%
X106680000Y-60960000D03*
%TO.N,Net-(J22-Pin_5)*%
X106680000Y-63500000D03*
%TO.N,Net-(U3-SDA)*%
X106680000Y-66040000D03*
%TO.N,unconnected-(U7-GPIO03(CLK2)-Pad27)*%
X106680000Y-68580000D03*
%TO.N,unconnected-(U7-GPIO01(CLK3)-Pad28)*%
X106680000Y-71120000D03*
%TO.N,Net-(U3-SCL)*%
X106680000Y-73660000D03*
%TO.N,Net-(J22-Pin_4)*%
X106680000Y-76200000D03*
%TD*%
D18*
%TO.N,Net-(J11-Pin_1)*%
%TO.C,RV1*%
X91600000Y-137160000D03*
%TO.N,Net-(U7-GPIO32(ADC1-CH4))*%
X96600000Y-137160000D03*
%TO.N,GND*%
X101600000Y-137160000D03*
%TD*%
D12*
%TO.N,Net-(J11-Pin_1)*%
%TO.C,J23*%
X154940000Y-91440000D03*
D13*
%TO.N,GND*%
X154940000Y-93980000D03*
%TO.N,Net-(J23-Pin_3)*%
X154940000Y-96520000D03*
%TD*%
D10*
%TO.N,Net-(U3-SCL)*%
%TO.C,R7*%
X109220000Y-33020000D03*
D11*
%TO.N,Net-(J11-Pin_1)*%
X101600000Y-33020000D03*
%TD*%
D12*
%TO.N,Net-(J13-Pin_1)*%
%TO.C,J17*%
X58420000Y-124460000D03*
D13*
%TO.N,GND*%
X58420000Y-127000000D03*
%TO.N,Net-(J17-Pin_3)*%
X58420000Y-129540000D03*
%TD*%
D10*
%TO.N,Net-(U7-GPIO12(ADC2-CH5))*%
%TO.C,R4*%
X127000000Y-33020000D03*
D11*
%TO.N,Net-(D6-A)*%
X134620000Y-33020000D03*
%TD*%
D30*
%TO.N,Net-(D1-K)*%
%TO.C,U1*%
X119380000Y-105750000D03*
D31*
%TO.N,GND*%
X121920000Y-105750000D03*
%TO.N,VDD1*%
X124460000Y-105750000D03*
%TD*%
D26*
%TO.N,Net-(J11-Pin_1)*%
%TO.C,U3*%
X93980000Y-88900000D03*
D20*
%TO.N,GND*%
X93980000Y-91440000D03*
%TO.N,Net-(U3-SDA)*%
X93980000Y-93980000D03*
%TO.N,Net-(U3-SCL)*%
X93980000Y-96520000D03*
%TO.N,Net-(U3-RST)*%
X93980000Y-99060000D03*
%TO.N,Net-(U3-A0)*%
X93980000Y-101600000D03*
%TO.N,Net-(U3-A1)*%
X93980000Y-104140000D03*
%TO.N,Net-(U3-A2)*%
X93980000Y-106680000D03*
%TO.N,Net-(J3-Pin_4)*%
X93980000Y-109220000D03*
%TO.N,Net-(J3-Pin_3)*%
X93980000Y-111760000D03*
%TO.N,Net-(J4-Pin_4)*%
X93980000Y-114300000D03*
%TO.N,Net-(J4-Pin_3)*%
X93980000Y-116840000D03*
%TO.N,Net-(J5-Pin_4)*%
X111760000Y-116840000D03*
%TO.N,Net-(J5-Pin_3)*%
X111760000Y-114300000D03*
%TO.N,Net-(J6-Pin_4)*%
X111760000Y-111760000D03*
%TO.N,Net-(J6-Pin_3)*%
X111760000Y-109220000D03*
%TO.N,Net-(J7-Pin_4)*%
X111760000Y-106680000D03*
%TO.N,Net-(J7-Pin_3)*%
X111760000Y-104140000D03*
%TO.N,Net-(J8-Pin_4)*%
X111760000Y-101600000D03*
%TO.N,Net-(J8-Pin_3)*%
X111760000Y-99060000D03*
%TO.N,Net-(J11-Pin_4)*%
X111760000Y-96520000D03*
%TO.N,Net-(J11-Pin_3)*%
X111760000Y-93980000D03*
%TO.N,Net-(J9-Pin_4)*%
X111760000Y-91440000D03*
%TO.N,Net-(J9-Pin_3)*%
X111760000Y-88900000D03*
%TD*%
D23*
%TO.N,Net-(J13-Pin_1)*%
%TO.C,SW1*%
X46840000Y-61540000D03*
X53340000Y-61540000D03*
%TO.N,Net-(SW1A-D)*%
X46840000Y-66040000D03*
X53340000Y-66040000D03*
%TD*%
D19*
%TO.N,VDD2*%
%TO.C,C4*%
X128580000Y-121920000D03*
%TO.N,GND*%
X132080000Y-121920000D03*
%TD*%
D12*
%TO.N,Net-(J11-Pin_1)*%
%TO.C,J7*%
X27940000Y-111760000D03*
D13*
%TO.N,GND*%
X27940000Y-114300000D03*
%TO.N,Net-(J7-Pin_3)*%
X27940000Y-116840000D03*
%TO.N,Net-(J7-Pin_4)*%
X27940000Y-119380000D03*
%TD*%
D10*
%TO.N,Net-(U4-GPIO14(ADC2-CH6))*%
%TO.C,R2*%
X60960000Y-33020000D03*
D11*
%TO.N,Net-(D4-A)*%
X68580000Y-33020000D03*
%TD*%
D10*
%TO.N,Net-(SW2A-D)*%
%TO.C,R6*%
X113030000Y-33020000D03*
D11*
%TO.N,GND*%
X120650000Y-33020000D03*
%TD*%
D12*
%TO.N,Net-(J13-Pin_1)*%
%TO.C,J15*%
X154940000Y-63500000D03*
D13*
%TO.N,GND*%
X154940000Y-66040000D03*
%TO.N,Net-(J15-Pin_3)*%
X154940000Y-68580000D03*
%TD*%
D30*
%TO.N,Net-(D3-K)*%
%TO.C,U2*%
X132080000Y-105750000D03*
D31*
%TO.N,GND*%
X134620000Y-105750000D03*
%TO.N,VDD2*%
X137160000Y-105750000D03*
%TD*%
D20*
%TO.N,Net-(J11-Pin_1)*%
%TO.C,U8*%
X151130000Y-36830000D03*
%TO.N,GND*%
X151130000Y-39370000D03*
%TO.N,Net-(J11-Pin_3)*%
X151130000Y-41910000D03*
%TO.N,Net-(J11-Pin_4)*%
X151130000Y-44450000D03*
%TO.N,unconnected-(U8-XDA-Pad5)*%
X151130000Y-46990000D03*
%TO.N,unconnected-(U8-XCL-Pad6)*%
X151130000Y-49530000D03*
%TO.N,unconnected-(U8-ADO-Pad7)*%
X151130000Y-52070000D03*
%TO.N,unconnected-(U8-INT-Pad8)*%
X151130000Y-54610000D03*
D21*
%TO.N,N/C*%
X162560000Y-38100000D03*
X162560000Y-53340000D03*
%TD*%
D12*
%TO.N,Net-(J11-Pin_1)*%
%TO.C,J24*%
X162560000Y-121920000D03*
D13*
%TO.N,GND*%
X162560000Y-124460000D03*
%TO.N,Net-(J24-Pin_3)*%
X162560000Y-127000000D03*
%TD*%
D32*
%TO.N,Net-(J9-Pin_3)*%
X104775800Y-82074700D03*
%TO.N,Net-(J22-Pin_7)*%
X97231700Y-80871600D03*
X71958700Y-97587700D03*
%TO.N,Net-(J22-Pin_6)*%
X93303200Y-86940700D03*
%TO.N,Net-(J22-Pin_3)*%
X82682600Y-84957400D03*
%TO.N,Net-(J22-Pin_5)*%
X85188400Y-84991600D03*
%TO.N,Net-(J22-Pin_4)*%
X69862000Y-95180700D03*
%TO.N,Net-(U4-GPIO17(TXD2))*%
X102563300Y-52983900D03*
%TO.N,Net-(J25-Pin_3)*%
X151787800Y-93092200D03*
%TO.N,Net-(J24-Pin_3)*%
X148611800Y-87651800D03*
%TO.N,Net-(J19-Pin_3)*%
X97707100Y-44782500D03*
%TO.N,Net-(J18-Pin_3)*%
X111071900Y-83131900D03*
%TO.N,Net-(J16-Pin_3)*%
X99742100Y-78358900D03*
%TO.N,Net-(J15-Pin_3)*%
X101860900Y-77405500D03*
%TO.N,Net-(J14-Pin_3)*%
X71032200Y-86890700D03*
%TO.N,Net-(J13-Pin_1)*%
X148019400Y-118915400D03*
%TO.N,Net-(J11-Pin_4)*%
X125322300Y-92879600D03*
%TO.N,Net-(J5-Pin_4)*%
X108044000Y-116171400D03*
X81414600Y-83543700D03*
%TO.N,Net-(J5-Pin_3)*%
X101119500Y-110124100D03*
%TO.N,Net-(J3-Pin_4)*%
X84625600Y-105631000D03*
%TO.N,VDD2*%
X77288100Y-94298600D03*
%TD*%
D33*
%TO.N,Net-(J9-Pin_4)*%
X105356400Y-91440000D02*
X111760000Y-91440000D01*
X91880300Y-77963900D02*
X105356400Y-91440000D01*
X53949200Y-77963900D02*
X91880300Y-77963900D01*
X44045700Y-68060400D02*
X53949200Y-77963900D01*
X44045700Y-56057600D02*
X44045700Y-68060400D01*
X38100000Y-50111900D02*
X44045700Y-56057600D01*
X38100000Y-48260000D02*
X38100000Y-50111900D01*
%TO.N,Net-(J9-Pin_3)*%
X104934700Y-82074700D02*
X104775800Y-82074700D01*
X111760000Y-88900000D02*
X104934700Y-82074700D01*
%TO.N,Net-(J11-Pin_1)*%
X145490000Y-63790000D02*
X138990000Y-63790000D01*
X38100000Y-58420000D02*
X27940000Y-58420000D01*
X27940000Y-40640000D02*
X38100000Y-40640000D01*
X26088100Y-72496200D02*
X26088100Y-58420000D01*
X27940000Y-74348100D02*
X26088100Y-72496200D01*
X27940000Y-76200000D02*
X27940000Y-74348100D01*
X27940000Y-58420000D02*
X26088100Y-58420000D01*
X26088100Y-108056200D02*
X27940000Y-109908100D01*
X26088100Y-93980000D02*
X26088100Y-108056200D01*
X27940000Y-111760000D02*
X27940000Y-109908100D01*
X160469100Y-121920000D02*
X162560000Y-121920000D01*
X155334500Y-127054600D02*
X160469100Y-121920000D01*
X138375400Y-127054600D02*
X155334500Y-127054600D01*
X133350000Y-132080000D02*
X138375400Y-127054600D01*
X107111900Y-36830000D02*
X103301900Y-33020000D01*
X151130000Y-36830000D02*
X107111900Y-36830000D01*
X101600000Y-33020000D02*
X103301900Y-33020000D01*
X45870000Y-34721900D02*
X39951900Y-40640000D01*
X84226200Y-34721900D02*
X45870000Y-34721900D01*
X85928100Y-33020000D02*
X84226200Y-34721900D01*
X87630000Y-33020000D02*
X85928100Y-33020000D01*
X38100000Y-40640000D02*
X39951900Y-40640000D01*
X27940000Y-93980000D02*
X26088100Y-93980000D01*
%TO.N,Net-(SW2A-D)*%
X145490000Y-68290000D02*
X138990000Y-68290000D01*
X135571900Y-56831900D02*
X132080000Y-53340000D01*
X135571900Y-64871900D02*
X135571900Y-56831900D01*
X138990000Y-68290000D02*
X135571900Y-64871900D01*
%TO.N,Net-(SW1A-D)*%
X53340000Y-66040000D02*
X46840000Y-66040000D01*
%TO.N,Net-(J22-Pin_7)*%
X98242500Y-79860800D02*
X97231700Y-80871600D01*
X108099200Y-79860800D02*
X98242500Y-79860800D01*
X132080000Y-55880000D02*
X108099200Y-79860800D01*
%TO.N,Net-(J22-Pin_6)*%
X38100000Y-106680000D02*
X39951900Y-106680000D01*
X85006100Y-86940700D02*
X93303200Y-86940700D01*
X82035200Y-89911600D02*
X85006100Y-86940700D01*
X47112400Y-89911600D02*
X82035200Y-89911600D01*
X44626500Y-92397500D02*
X47112400Y-89911600D01*
X44626500Y-102005400D02*
X44626500Y-92397500D01*
X39951900Y-106680000D02*
X44626500Y-102005400D01*
%TO.N,Net-(J22-Pin_3)*%
X82151200Y-85488800D02*
X82682600Y-84957400D01*
X47252200Y-85488800D02*
X82151200Y-85488800D01*
X39951900Y-92789100D02*
X47252200Y-85488800D01*
X39951900Y-99060000D02*
X39951900Y-92789100D01*
X38100000Y-99060000D02*
X39951900Y-99060000D01*
%TO.N,Net-(J22-Pin_5)*%
X38100000Y-104140000D02*
X39951900Y-104140000D01*
X84831200Y-84991600D02*
X85188400Y-84991600D01*
X81530200Y-88292600D02*
X84831200Y-84991600D01*
X46586600Y-88292600D02*
X81530200Y-88292600D01*
X43032900Y-91846300D02*
X46586600Y-88292600D01*
X43032900Y-101059000D02*
X43032900Y-91846300D01*
X39951900Y-104140000D02*
X43032900Y-101059000D01*
%TO.N,Net-(U4-GPIO16(RXD2))*%
X104064000Y-53264000D02*
X106680000Y-55880000D01*
X104064000Y-52360500D02*
X104064000Y-53264000D01*
X97987900Y-46284400D02*
X104064000Y-52360500D01*
X97085000Y-46284400D02*
X97987900Y-46284400D01*
X88164600Y-37364000D02*
X97085000Y-46284400D01*
X76936000Y-37364000D02*
X88164600Y-37364000D01*
X60960000Y-53340000D02*
X76936000Y-37364000D01*
%TO.N,Net-(U4-GPIO17(TXD2))*%
X102562100Y-52982700D02*
X102563300Y-52983900D01*
X101659300Y-52982700D02*
X102562100Y-52982700D01*
X87542500Y-38865900D02*
X101659300Y-52982700D01*
X77974100Y-38865900D02*
X87542500Y-38865900D01*
X60960000Y-55880000D02*
X77974100Y-38865900D01*
%TO.N,Net-(J26-Pin_3)*%
X162560000Y-111760000D02*
X160708100Y-111760000D01*
X132660100Y-66040000D02*
X132080000Y-66040000D01*
X160708100Y-94088000D02*
X132660100Y-66040000D01*
X160708100Y-111760000D02*
X160708100Y-94088000D01*
%TO.N,Net-(J25-Pin_3)*%
X151787800Y-88287800D02*
X151787800Y-93092200D01*
X132080000Y-68580000D02*
X151787800Y-88287800D01*
%TO.N,Net-(J24-Pin_3)*%
X132080000Y-71120000D02*
X148611800Y-87651800D01*
%TO.N,Net-(J23-Pin_3)*%
X154940000Y-96520000D02*
X153088100Y-96520000D01*
X132480900Y-73660000D02*
X132080000Y-73660000D01*
X150285900Y-91465000D02*
X132480900Y-73660000D01*
X150285900Y-93717800D02*
X150285900Y-91465000D01*
X153088100Y-96520000D02*
X150285900Y-93717800D01*
%TO.N,Net-(J21-Pin_4)*%
X53771900Y-73228100D02*
X53771900Y-73660000D01*
X60960000Y-66040000D02*
X53771900Y-73228100D01*
X52070000Y-73660000D02*
X53771900Y-73660000D01*
%TO.N,Net-(J19-Pin_3)*%
X160708100Y-66079500D02*
X160708100Y-68580000D01*
X155682000Y-61053400D02*
X160708100Y-66079500D01*
X155062300Y-61053400D02*
X155682000Y-61053400D01*
X149138600Y-55129700D02*
X155062300Y-61053400D01*
X149138600Y-47312000D02*
X149138600Y-55129700D01*
X140679300Y-38852700D02*
X149138600Y-47312000D01*
X103636900Y-38852700D02*
X140679300Y-38852700D01*
X97707100Y-44782500D02*
X103636900Y-38852700D01*
X162560000Y-68580000D02*
X160708100Y-68580000D01*
%TO.N,Net-(J15-Pin_3)*%
X93035400Y-68580000D02*
X101860900Y-77405500D01*
X86360000Y-68580000D02*
X93035400Y-68580000D01*
%TO.N,Net-(J13-Pin_1)*%
X53340000Y-61540000D02*
X46840000Y-61540000D01*
X58420000Y-124460000D02*
X48260000Y-124460000D01*
X48260000Y-124460000D02*
X46408100Y-124460000D01*
X38100000Y-119380000D02*
X39951900Y-119380000D01*
X45031900Y-124460000D02*
X46408100Y-124460000D01*
X39951900Y-119380000D02*
X45031900Y-124460000D01*
X154940000Y-76200000D02*
X162560000Y-76200000D01*
X141767000Y-125167800D02*
X148019400Y-118915400D01*
X137614100Y-125167800D02*
X141767000Y-125167800D01*
X137227700Y-125554200D02*
X137614100Y-125167800D01*
X125815800Y-125554200D02*
X137227700Y-125554200D01*
X114380000Y-136990000D02*
X125815800Y-125554200D01*
%TO.N,Net-(U7-GPIO32(ADC1-CH4))*%
X113678800Y-120081200D02*
X96600000Y-137160000D01*
X113678800Y-81901200D02*
X113678800Y-120081200D01*
X132080000Y-63500000D02*
X113678800Y-81901200D01*
%TO.N,Net-(J11-Pin_4)*%
X39951900Y-57149700D02*
X39951900Y-66040000D01*
X37598500Y-54796300D02*
X39951900Y-57149700D01*
X31778300Y-54796300D02*
X37598500Y-54796300D01*
X26060000Y-49078000D02*
X31778300Y-54796300D01*
X26060000Y-39375700D02*
X26060000Y-49078000D01*
X26689600Y-38746100D02*
X26060000Y-39375700D01*
X35465500Y-38746100D02*
X26689600Y-38746100D01*
X42900500Y-31311100D02*
X35465500Y-38746100D01*
X148180000Y-31311100D02*
X42900500Y-31311100D01*
X152927500Y-36058600D02*
X148180000Y-31311100D01*
X152927500Y-42652500D02*
X152927500Y-36058600D01*
X151130000Y-44450000D02*
X152927500Y-42652500D01*
X38100000Y-66040000D02*
X39951900Y-66040000D01*
%TO.N,Net-(J11-Pin_3)*%
X38100000Y-63500000D02*
X36248100Y-63500000D01*
X36248100Y-67882700D02*
X36248100Y-63500000D01*
X48844600Y-80479200D02*
X36248100Y-67882700D01*
X91951800Y-80479200D02*
X48844600Y-80479200D01*
X105452600Y-93980000D02*
X91951800Y-80479200D01*
X111760000Y-93980000D02*
X105452600Y-93980000D01*
%TO.N,Net-(J8-Pin_4)*%
X33245200Y-137160000D02*
X27940000Y-137160000D01*
X36938400Y-133466800D02*
X33245200Y-137160000D01*
X82043600Y-133466800D02*
X36938400Y-133466800D01*
X104450500Y-111059900D02*
X82043600Y-133466800D01*
X104450500Y-108909500D02*
X104450500Y-111059900D01*
X111760000Y-101600000D02*
X104450500Y-108909500D01*
%TO.N,Net-(J8-Pin_3)*%
X33661100Y-134620000D02*
X27940000Y-134620000D01*
X36316200Y-131964900D02*
X33661100Y-134620000D01*
X81402700Y-131964900D02*
X36316200Y-131964900D01*
X102948600Y-110419000D02*
X81402700Y-131964900D01*
X102948600Y-107871400D02*
X102948600Y-110419000D01*
X111760000Y-99060000D02*
X102948600Y-107871400D01*
%TO.N,Net-(J7-Pin_3)*%
X26088100Y-137960200D02*
X26088100Y-116840000D01*
X27148300Y-139020400D02*
X26088100Y-137960200D01*
X34613900Y-139020400D02*
X27148300Y-139020400D01*
X38259500Y-135374800D02*
X34613900Y-139020400D01*
X82259600Y-135374800D02*
X38259500Y-135374800D01*
X106643600Y-110990800D02*
X82259600Y-135374800D01*
X106643600Y-109256400D02*
X106643600Y-110990800D01*
X111760000Y-104140000D02*
X106643600Y-109256400D01*
X27940000Y-116840000D02*
X26088100Y-116840000D01*
%TO.N,Net-(J5-Pin_4)*%
X27940000Y-83820000D02*
X29791900Y-83820000D01*
X42411600Y-83543700D02*
X81414600Y-83543700D01*
X40250400Y-85704900D02*
X42411600Y-83543700D01*
X31676800Y-85704900D02*
X40250400Y-85704900D01*
X29791900Y-83820000D02*
X31676800Y-85704900D01*
%TO.N,Net-(J5-Pin_3)*%
X29903200Y-81280000D02*
X27940000Y-81280000D01*
X36835100Y-74348100D02*
X29903200Y-81280000D01*
X39365000Y-74348100D02*
X36835100Y-74348100D01*
X39951900Y-74935000D02*
X39365000Y-74348100D01*
X39951900Y-76669500D02*
X39951900Y-74935000D01*
X45306700Y-82024300D02*
X39951900Y-76669500D01*
X90510900Y-82024300D02*
X45306700Y-82024300D01*
X101119500Y-92632900D02*
X90510900Y-82024300D01*
X101119500Y-110124100D02*
X101119500Y-92632900D01*
%TO.N,Net-(J3-Pin_4)*%
X88214600Y-109220000D02*
X84625600Y-105631000D01*
X93980000Y-109220000D02*
X88214600Y-109220000D01*
%TO.N,Net-(J2-Pin_4)*%
X78740000Y-139700000D02*
X78740000Y-136898100D01*
X78738000Y-136896100D02*
X78740000Y-136898100D01*
X53342000Y-136896100D02*
X78738000Y-136896100D01*
X53340000Y-136898100D02*
X53342000Y-136896100D01*
X53340000Y-139700000D02*
X53340000Y-136898100D01*
%TO.N,Net-(D1-K)*%
X152446200Y-103748100D02*
X152838100Y-104140000D01*
X119380000Y-103748100D02*
X152446200Y-103748100D01*
X119380000Y-105750000D02*
X119380000Y-103748100D01*
X154940000Y-104140000D02*
X152838100Y-104140000D01*
%TO.N,VDD2*%
X128580000Y-122970100D02*
X128580000Y-121920000D01*
X118943500Y-122970100D02*
X128580000Y-122970100D01*
X97884500Y-144029100D02*
X118943500Y-122970100D01*
X67829100Y-144029100D02*
X97884500Y-144029100D01*
X63500000Y-139700000D02*
X67829100Y-144029100D01*
X60076700Y-111510000D02*
X77288100Y-94298600D01*
X47740000Y-111510000D02*
X60076700Y-111510000D01*
X129340000Y-123730100D02*
X128580000Y-122970100D01*
X136927800Y-123730100D02*
X129340000Y-123730100D01*
X138737900Y-121920000D02*
X136927800Y-123730100D01*
X138740000Y-121920000D02*
X138737900Y-121920000D01*
%TO.N,GND*%
X106680000Y-43180000D02*
X132080000Y-43180000D01*
X126750000Y-134620000D02*
X124380000Y-136990000D01*
X133350000Y-134620000D02*
X126750000Y-134620000D01*
X96258100Y-142501900D02*
X68580000Y-142501900D01*
X101600000Y-137160000D02*
X96258100Y-142501900D01*
X68580000Y-139700000D02*
X68580000Y-142501900D01*
X29791900Y-78740000D02*
X29791900Y-60960000D01*
X27940000Y-78740000D02*
X29791900Y-78740000D01*
X27940000Y-60960000D02*
X28866000Y-60960000D01*
X28866000Y-60960000D02*
X29791900Y-60960000D01*
X29791900Y-60960000D02*
X38100000Y-60960000D01*
X27940000Y-43180000D02*
X38100000Y-43180000D01*
X59528100Y-44611900D02*
X48260000Y-44611900D01*
X60960000Y-43180000D02*
X59528100Y-44611900D01*
X162560000Y-109220000D02*
X164410400Y-109220000D01*
X162560000Y-93980000D02*
X164411900Y-93980000D01*
X154940000Y-134620000D02*
X154940000Y-132768100D01*
X164410400Y-109220000D02*
X164411900Y-109220000D01*
X164411900Y-124460000D02*
X164411900Y-109220000D01*
X164411900Y-109220000D02*
X164411900Y-93980000D01*
X121920000Y-105750000D02*
X121920000Y-107751900D01*
X127000000Y-112831900D02*
X121920000Y-107751900D01*
X127000000Y-114300000D02*
X127000000Y-112831900D01*
X38100000Y-121920000D02*
X36248100Y-121920000D01*
X44929200Y-108970000D02*
X36248100Y-117651100D01*
X47740000Y-108970000D02*
X44929200Y-108970000D01*
X36248100Y-121920000D02*
X36248100Y-117651100D01*
X32897000Y-114300000D02*
X27940000Y-114300000D01*
X36248100Y-117651100D02*
X32897000Y-114300000D01*
X29791900Y-128376200D02*
X36248100Y-121920000D01*
X29791900Y-132080000D02*
X29791900Y-128376200D01*
X27940000Y-132080000D02*
X29791900Y-132080000D01*
X48260000Y-42710000D02*
X48260000Y-43660900D01*
X48260000Y-43660900D02*
X48260000Y-44611900D01*
X48260000Y-44611900D02*
X48260000Y-53340000D01*
X48260000Y-127000000D02*
X58420000Y-127000000D01*
X60271900Y-125148100D02*
X93980000Y-91440000D01*
X60271900Y-127000000D02*
X60271900Y-125148100D01*
X58420000Y-127000000D02*
X60271900Y-127000000D01*
X162560000Y-124460000D02*
X164036000Y-124460000D01*
X164036000Y-124460000D02*
X164410400Y-124460000D01*
X164410400Y-124460000D02*
X164411900Y-124460000D01*
X164467700Y-124517300D02*
X164467700Y-130434100D01*
X164410400Y-124460000D02*
X164467700Y-124517300D01*
X157274000Y-130434100D02*
X164467700Y-130434100D01*
X154940000Y-132768100D02*
X157274000Y-130434100D01*
X167640000Y-133549100D02*
X167640000Y-139700000D01*
X164525000Y-130434100D02*
X167640000Y-133549100D01*
X164467700Y-130434100D02*
X164525000Y-130434100D01*
X142290000Y-55241900D02*
X139700000Y-55241900D01*
X153088100Y-66040000D02*
X142290000Y-55241900D01*
X154940000Y-66040000D02*
X153088100Y-66040000D01*
X139700000Y-53340000D02*
X139700000Y-55241900D01*
X139700000Y-43180000D02*
X132080000Y-43180000D01*
X148530400Y-117292700D02*
X147320000Y-117292700D01*
X152400000Y-121162300D02*
X148530400Y-117292700D01*
X152400000Y-121920000D02*
X152400000Y-121162300D01*
X147320000Y-114300000D02*
X147320000Y-117292700D01*
X142240000Y-118530600D02*
X142240000Y-121920000D01*
X141390600Y-118530600D02*
X142240000Y-118530600D01*
X137160000Y-114300000D02*
X141390600Y-118530600D01*
X146082100Y-118530600D02*
X147320000Y-117292700D01*
X142240000Y-118530600D02*
X146082100Y-118530600D01*
%TO.N,VDD1*%
X135463900Y-112496100D02*
X133660000Y-114300000D01*
X142016100Y-112496100D02*
X135463900Y-112496100D01*
X143820000Y-114300000D02*
X142016100Y-112496100D01*
%TD*%
M02*
