%TF.GenerationSoftware,KiCad,Pcbnew,7.0.10*%
%TF.CreationDate,2024-07-04T23:25:59-06:00*%
%TF.ProjectId,ESP32WROOM30PIN_CARRIER_BOARD_KELLA,45535033-3257-4524-9f4f-4d333050494e,rev?*%
%TF.SameCoordinates,Original*%
%TF.FileFunction,AssemblyDrawing,Top*%
%FSLAX46Y46*%
G04 Gerber Fmt 4.6, Leading zero omitted, Abs format (unit mm)*
G04 Created by KiCad (PCBNEW 7.0.10) date 2024-07-04 23:25:59*
%MOMM*%
%LPD*%
G01*
G04 APERTURE LIST*
%ADD10C,0.150000*%
%ADD11C,0.108000*%
%ADD12C,0.120000*%
%ADD13C,0.100000*%
G04 APERTURE END LIST*
D10*
X49839523Y-31554819D02*
X49506190Y-31078628D01*
X49268095Y-31554819D02*
X49268095Y-30554819D01*
X49268095Y-30554819D02*
X49649047Y-30554819D01*
X49649047Y-30554819D02*
X49744285Y-30602438D01*
X49744285Y-30602438D02*
X49791904Y-30650057D01*
X49791904Y-30650057D02*
X49839523Y-30745295D01*
X49839523Y-30745295D02*
X49839523Y-30888152D01*
X49839523Y-30888152D02*
X49791904Y-30983390D01*
X49791904Y-30983390D02*
X49744285Y-31031009D01*
X49744285Y-31031009D02*
X49649047Y-31078628D01*
X49649047Y-31078628D02*
X49268095Y-31078628D01*
D11*
X49410000Y-33347469D02*
X49170000Y-33004612D01*
X48998571Y-33347469D02*
X48998571Y-32627469D01*
X48998571Y-32627469D02*
X49272857Y-32627469D01*
X49272857Y-32627469D02*
X49341428Y-32661755D01*
X49341428Y-32661755D02*
X49375714Y-32696041D01*
X49375714Y-32696041D02*
X49410000Y-32764612D01*
X49410000Y-32764612D02*
X49410000Y-32867469D01*
X49410000Y-32867469D02*
X49375714Y-32936041D01*
X49375714Y-32936041D02*
X49341428Y-32970326D01*
X49341428Y-32970326D02*
X49272857Y-33004612D01*
X49272857Y-33004612D02*
X48998571Y-33004612D01*
X50095714Y-33347469D02*
X49684285Y-33347469D01*
X49890000Y-33347469D02*
X49890000Y-32627469D01*
X49890000Y-32627469D02*
X49821428Y-32730326D01*
X49821428Y-32730326D02*
X49752857Y-32798898D01*
X49752857Y-32798898D02*
X49684285Y-32833184D01*
D10*
X37554819Y-80819523D02*
X38269104Y-80819523D01*
X38269104Y-80819523D02*
X38411961Y-80867142D01*
X38411961Y-80867142D02*
X38507200Y-80962380D01*
X38507200Y-80962380D02*
X38554819Y-81105237D01*
X38554819Y-81105237D02*
X38554819Y-81200475D01*
X37650057Y-80390951D02*
X37602438Y-80343332D01*
X37602438Y-80343332D02*
X37554819Y-80248094D01*
X37554819Y-80248094D02*
X37554819Y-80009999D01*
X37554819Y-80009999D02*
X37602438Y-79914761D01*
X37602438Y-79914761D02*
X37650057Y-79867142D01*
X37650057Y-79867142D02*
X37745295Y-79819523D01*
X37745295Y-79819523D02*
X37840533Y-79819523D01*
X37840533Y-79819523D02*
X37983390Y-79867142D01*
X37983390Y-79867142D02*
X38554819Y-80438570D01*
X38554819Y-80438570D02*
X38554819Y-79819523D01*
X38554819Y-78867142D02*
X38554819Y-79438570D01*
X38554819Y-79152856D02*
X37554819Y-79152856D01*
X37554819Y-79152856D02*
X37697676Y-79248094D01*
X37697676Y-79248094D02*
X37792914Y-79343332D01*
X37792914Y-79343332D02*
X37840533Y-79438570D01*
X162226667Y-154514819D02*
X162226667Y-153514819D01*
X162226667Y-153514819D02*
X162560000Y-154229104D01*
X162560000Y-154229104D02*
X162893333Y-153514819D01*
X162893333Y-153514819D02*
X162893333Y-154514819D01*
X161798095Y-150314819D02*
X161798095Y-149314819D01*
X161798095Y-149791009D02*
X162369523Y-149791009D01*
X162369523Y-150314819D02*
X162369523Y-149314819D01*
X163369523Y-150314819D02*
X162798095Y-150314819D01*
X163083809Y-150314819D02*
X163083809Y-149314819D01*
X163083809Y-149314819D02*
X162988571Y-149457676D01*
X162988571Y-149457676D02*
X162893333Y-149552914D01*
X162893333Y-149552914D02*
X162798095Y-149600533D01*
X157494819Y-104401904D02*
X156494819Y-104401904D01*
X157494819Y-103830476D02*
X156923390Y-104259047D01*
X156494819Y-103830476D02*
X157066247Y-104401904D01*
X155394819Y-110348094D02*
X154394819Y-110348094D01*
X154394819Y-110348094D02*
X154394819Y-110109999D01*
X154394819Y-110109999D02*
X154442438Y-109967142D01*
X154442438Y-109967142D02*
X154537676Y-109871904D01*
X154537676Y-109871904D02*
X154632914Y-109824285D01*
X154632914Y-109824285D02*
X154823390Y-109776666D01*
X154823390Y-109776666D02*
X154966247Y-109776666D01*
X154966247Y-109776666D02*
X155156723Y-109824285D01*
X155156723Y-109824285D02*
X155251961Y-109871904D01*
X155251961Y-109871904D02*
X155347200Y-109967142D01*
X155347200Y-109967142D02*
X155394819Y-110109999D01*
X155394819Y-110109999D02*
X155394819Y-110348094D01*
X155394819Y-108824285D02*
X155394819Y-109395713D01*
X155394819Y-109109999D02*
X154394819Y-109109999D01*
X154394819Y-109109999D02*
X154537676Y-109205237D01*
X154537676Y-109205237D02*
X154632914Y-109300475D01*
X154632914Y-109300475D02*
X154680533Y-109395713D01*
X162014819Y-94789523D02*
X162729104Y-94789523D01*
X162729104Y-94789523D02*
X162871961Y-94837142D01*
X162871961Y-94837142D02*
X162967200Y-94932380D01*
X162967200Y-94932380D02*
X163014819Y-95075237D01*
X163014819Y-95075237D02*
X163014819Y-95170475D01*
X162110057Y-94360951D02*
X162062438Y-94313332D01*
X162062438Y-94313332D02*
X162014819Y-94218094D01*
X162014819Y-94218094D02*
X162014819Y-93979999D01*
X162014819Y-93979999D02*
X162062438Y-93884761D01*
X162062438Y-93884761D02*
X162110057Y-93837142D01*
X162110057Y-93837142D02*
X162205295Y-93789523D01*
X162205295Y-93789523D02*
X162300533Y-93789523D01*
X162300533Y-93789523D02*
X162443390Y-93837142D01*
X162443390Y-93837142D02*
X163014819Y-94408570D01*
X163014819Y-94408570D02*
X163014819Y-93789523D01*
X162014819Y-92884761D02*
X162014819Y-93360951D01*
X162014819Y-93360951D02*
X162491009Y-93408570D01*
X162491009Y-93408570D02*
X162443390Y-93360951D01*
X162443390Y-93360951D02*
X162395771Y-93265713D01*
X162395771Y-93265713D02*
X162395771Y-93027618D01*
X162395771Y-93027618D02*
X162443390Y-92932380D01*
X162443390Y-92932380D02*
X162491009Y-92884761D01*
X162491009Y-92884761D02*
X162586247Y-92837142D01*
X162586247Y-92837142D02*
X162824342Y-92837142D01*
X162824342Y-92837142D02*
X162919580Y-92884761D01*
X162919580Y-92884761D02*
X162967200Y-92932380D01*
X162967200Y-92932380D02*
X163014819Y-93027618D01*
X163014819Y-93027618D02*
X163014819Y-93265713D01*
X163014819Y-93265713D02*
X162967200Y-93360951D01*
X162967200Y-93360951D02*
X162919580Y-93408570D01*
X70786666Y-137854819D02*
X70786666Y-138569104D01*
X70786666Y-138569104D02*
X70739047Y-138711961D01*
X70739047Y-138711961D02*
X70643809Y-138807200D01*
X70643809Y-138807200D02*
X70500952Y-138854819D01*
X70500952Y-138854819D02*
X70405714Y-138854819D01*
X71215238Y-137950057D02*
X71262857Y-137902438D01*
X71262857Y-137902438D02*
X71358095Y-137854819D01*
X71358095Y-137854819D02*
X71596190Y-137854819D01*
X71596190Y-137854819D02*
X71691428Y-137902438D01*
X71691428Y-137902438D02*
X71739047Y-137950057D01*
X71739047Y-137950057D02*
X71786666Y-138045295D01*
X71786666Y-138045295D02*
X71786666Y-138140533D01*
X71786666Y-138140533D02*
X71739047Y-138283390D01*
X71739047Y-138283390D02*
X71167619Y-138854819D01*
X71167619Y-138854819D02*
X71786666Y-138854819D01*
X119834819Y-135335238D02*
X119358628Y-135668571D01*
X119834819Y-135906666D02*
X118834819Y-135906666D01*
X118834819Y-135906666D02*
X118834819Y-135525714D01*
X118834819Y-135525714D02*
X118882438Y-135430476D01*
X118882438Y-135430476D02*
X118930057Y-135382857D01*
X118930057Y-135382857D02*
X119025295Y-135335238D01*
X119025295Y-135335238D02*
X119168152Y-135335238D01*
X119168152Y-135335238D02*
X119263390Y-135382857D01*
X119263390Y-135382857D02*
X119311009Y-135430476D01*
X119311009Y-135430476D02*
X119358628Y-135525714D01*
X119358628Y-135525714D02*
X119358628Y-135906666D01*
X118834819Y-135049523D02*
X119834819Y-134716190D01*
X119834819Y-134716190D02*
X118834819Y-134382857D01*
X118930057Y-134097142D02*
X118882438Y-134049523D01*
X118882438Y-134049523D02*
X118834819Y-133954285D01*
X118834819Y-133954285D02*
X118834819Y-133716190D01*
X118834819Y-133716190D02*
X118882438Y-133620952D01*
X118882438Y-133620952D02*
X118930057Y-133573333D01*
X118930057Y-133573333D02*
X119025295Y-133525714D01*
X119025295Y-133525714D02*
X119120533Y-133525714D01*
X119120533Y-133525714D02*
X119263390Y-133573333D01*
X119263390Y-133573333D02*
X119834819Y-134144761D01*
X119834819Y-134144761D02*
X119834819Y-133525714D01*
X162226667Y-32594819D02*
X162226667Y-31594819D01*
X162226667Y-31594819D02*
X162560000Y-32309104D01*
X162560000Y-32309104D02*
X162893333Y-31594819D01*
X162893333Y-31594819D02*
X162893333Y-32594819D01*
X161798095Y-28394819D02*
X161798095Y-27394819D01*
X161798095Y-27871009D02*
X162369523Y-27871009D01*
X162369523Y-28394819D02*
X162369523Y-27394819D01*
X162798095Y-27490057D02*
X162845714Y-27442438D01*
X162845714Y-27442438D02*
X162940952Y-27394819D01*
X162940952Y-27394819D02*
X163179047Y-27394819D01*
X163179047Y-27394819D02*
X163274285Y-27442438D01*
X163274285Y-27442438D02*
X163321904Y-27490057D01*
X163321904Y-27490057D02*
X163369523Y-27585295D01*
X163369523Y-27585295D02*
X163369523Y-27680533D01*
X163369523Y-27680533D02*
X163321904Y-27823390D01*
X163321904Y-27823390D02*
X162750476Y-28394819D01*
X162750476Y-28394819D02*
X163369523Y-28394819D01*
X48569523Y-76034819D02*
X48236190Y-75558628D01*
X47998095Y-76034819D02*
X47998095Y-75034819D01*
X47998095Y-75034819D02*
X48379047Y-75034819D01*
X48379047Y-75034819D02*
X48474285Y-75082438D01*
X48474285Y-75082438D02*
X48521904Y-75130057D01*
X48521904Y-75130057D02*
X48569523Y-75225295D01*
X48569523Y-75225295D02*
X48569523Y-75368152D01*
X48569523Y-75368152D02*
X48521904Y-75463390D01*
X48521904Y-75463390D02*
X48474285Y-75511009D01*
X48474285Y-75511009D02*
X48379047Y-75558628D01*
X48379047Y-75558628D02*
X47998095Y-75558628D01*
D11*
X48140000Y-73987469D02*
X47900000Y-73644612D01*
X47728571Y-73987469D02*
X47728571Y-73267469D01*
X47728571Y-73267469D02*
X48002857Y-73267469D01*
X48002857Y-73267469D02*
X48071428Y-73301755D01*
X48071428Y-73301755D02*
X48105714Y-73336041D01*
X48105714Y-73336041D02*
X48140000Y-73404612D01*
X48140000Y-73404612D02*
X48140000Y-73507469D01*
X48140000Y-73507469D02*
X48105714Y-73576041D01*
X48105714Y-73576041D02*
X48071428Y-73610326D01*
X48071428Y-73610326D02*
X48002857Y-73644612D01*
X48002857Y-73644612D02*
X47728571Y-73644612D01*
X48482857Y-73987469D02*
X48620000Y-73987469D01*
X48620000Y-73987469D02*
X48688571Y-73953184D01*
X48688571Y-73953184D02*
X48722857Y-73918898D01*
X48722857Y-73918898D02*
X48791428Y-73816041D01*
X48791428Y-73816041D02*
X48825714Y-73678898D01*
X48825714Y-73678898D02*
X48825714Y-73404612D01*
X48825714Y-73404612D02*
X48791428Y-73336041D01*
X48791428Y-73336041D02*
X48757143Y-73301755D01*
X48757143Y-73301755D02*
X48688571Y-73267469D01*
X48688571Y-73267469D02*
X48551428Y-73267469D01*
X48551428Y-73267469D02*
X48482857Y-73301755D01*
X48482857Y-73301755D02*
X48448571Y-73336041D01*
X48448571Y-73336041D02*
X48414285Y-73404612D01*
X48414285Y-73404612D02*
X48414285Y-73576041D01*
X48414285Y-73576041D02*
X48448571Y-73644612D01*
X48448571Y-73644612D02*
X48482857Y-73678898D01*
X48482857Y-73678898D02*
X48551428Y-73713184D01*
X48551428Y-73713184D02*
X48688571Y-73713184D01*
X48688571Y-73713184D02*
X48757143Y-73678898D01*
X48757143Y-73678898D02*
X48791428Y-73644612D01*
X48791428Y-73644612D02*
X48825714Y-73576041D01*
D10*
X48569523Y-81114819D02*
X48236190Y-80638628D01*
X47998095Y-81114819D02*
X47998095Y-80114819D01*
X47998095Y-80114819D02*
X48379047Y-80114819D01*
X48379047Y-80114819D02*
X48474285Y-80162438D01*
X48474285Y-80162438D02*
X48521904Y-80210057D01*
X48521904Y-80210057D02*
X48569523Y-80305295D01*
X48569523Y-80305295D02*
X48569523Y-80448152D01*
X48569523Y-80448152D02*
X48521904Y-80543390D01*
X48521904Y-80543390D02*
X48474285Y-80591009D01*
X48474285Y-80591009D02*
X48379047Y-80638628D01*
X48379047Y-80638628D02*
X47998095Y-80638628D01*
D11*
X47797143Y-79067469D02*
X47557143Y-78724612D01*
X47385714Y-79067469D02*
X47385714Y-78347469D01*
X47385714Y-78347469D02*
X47660000Y-78347469D01*
X47660000Y-78347469D02*
X47728571Y-78381755D01*
X47728571Y-78381755D02*
X47762857Y-78416041D01*
X47762857Y-78416041D02*
X47797143Y-78484612D01*
X47797143Y-78484612D02*
X47797143Y-78587469D01*
X47797143Y-78587469D02*
X47762857Y-78656041D01*
X47762857Y-78656041D02*
X47728571Y-78690326D01*
X47728571Y-78690326D02*
X47660000Y-78724612D01*
X47660000Y-78724612D02*
X47385714Y-78724612D01*
X48482857Y-79067469D02*
X48071428Y-79067469D01*
X48277143Y-79067469D02*
X48277143Y-78347469D01*
X48277143Y-78347469D02*
X48208571Y-78450326D01*
X48208571Y-78450326D02*
X48140000Y-78518898D01*
X48140000Y-78518898D02*
X48071428Y-78553184D01*
X48928571Y-78347469D02*
X48997142Y-78347469D01*
X48997142Y-78347469D02*
X49065714Y-78381755D01*
X49065714Y-78381755D02*
X49100000Y-78416041D01*
X49100000Y-78416041D02*
X49134285Y-78484612D01*
X49134285Y-78484612D02*
X49168571Y-78621755D01*
X49168571Y-78621755D02*
X49168571Y-78793184D01*
X49168571Y-78793184D02*
X49134285Y-78930326D01*
X49134285Y-78930326D02*
X49100000Y-78998898D01*
X49100000Y-78998898D02*
X49065714Y-79033184D01*
X49065714Y-79033184D02*
X48997142Y-79067469D01*
X48997142Y-79067469D02*
X48928571Y-79067469D01*
X48928571Y-79067469D02*
X48860000Y-79033184D01*
X48860000Y-79033184D02*
X48825714Y-78998898D01*
X48825714Y-78998898D02*
X48791428Y-78930326D01*
X48791428Y-78930326D02*
X48757142Y-78793184D01*
X48757142Y-78793184D02*
X48757142Y-78621755D01*
X48757142Y-78621755D02*
X48791428Y-78484612D01*
X48791428Y-78484612D02*
X48825714Y-78416041D01*
X48825714Y-78416041D02*
X48860000Y-78381755D01*
X48860000Y-78381755D02*
X48928571Y-78347469D01*
D10*
X135719523Y-119909580D02*
X135671904Y-119957200D01*
X135671904Y-119957200D02*
X135529047Y-120004819D01*
X135529047Y-120004819D02*
X135433809Y-120004819D01*
X135433809Y-120004819D02*
X135290952Y-119957200D01*
X135290952Y-119957200D02*
X135195714Y-119861961D01*
X135195714Y-119861961D02*
X135148095Y-119766723D01*
X135148095Y-119766723D02*
X135100476Y-119576247D01*
X135100476Y-119576247D02*
X135100476Y-119433390D01*
X135100476Y-119433390D02*
X135148095Y-119242914D01*
X135148095Y-119242914D02*
X135195714Y-119147676D01*
X135195714Y-119147676D02*
X135290952Y-119052438D01*
X135290952Y-119052438D02*
X135433809Y-119004819D01*
X135433809Y-119004819D02*
X135529047Y-119004819D01*
X135529047Y-119004819D02*
X135671904Y-119052438D01*
X135671904Y-119052438D02*
X135719523Y-119100057D01*
X135243333Y-114659580D02*
X135195714Y-114707200D01*
X135195714Y-114707200D02*
X135052857Y-114754819D01*
X135052857Y-114754819D02*
X134957619Y-114754819D01*
X134957619Y-114754819D02*
X134814762Y-114707200D01*
X134814762Y-114707200D02*
X134719524Y-114611961D01*
X134719524Y-114611961D02*
X134671905Y-114516723D01*
X134671905Y-114516723D02*
X134624286Y-114326247D01*
X134624286Y-114326247D02*
X134624286Y-114183390D01*
X134624286Y-114183390D02*
X134671905Y-113992914D01*
X134671905Y-113992914D02*
X134719524Y-113897676D01*
X134719524Y-113897676D02*
X134814762Y-113802438D01*
X134814762Y-113802438D02*
X134957619Y-113754819D01*
X134957619Y-113754819D02*
X135052857Y-113754819D01*
X135052857Y-113754819D02*
X135195714Y-113802438D01*
X135195714Y-113802438D02*
X135243333Y-113850057D01*
X135576667Y-113754819D02*
X136195714Y-113754819D01*
X136195714Y-113754819D02*
X135862381Y-114135771D01*
X135862381Y-114135771D02*
X136005238Y-114135771D01*
X136005238Y-114135771D02*
X136100476Y-114183390D01*
X136100476Y-114183390D02*
X136148095Y-114231009D01*
X136148095Y-114231009D02*
X136195714Y-114326247D01*
X136195714Y-114326247D02*
X136195714Y-114564342D01*
X136195714Y-114564342D02*
X136148095Y-114659580D01*
X136148095Y-114659580D02*
X136100476Y-114707200D01*
X136100476Y-114707200D02*
X136005238Y-114754819D01*
X136005238Y-114754819D02*
X135719524Y-114754819D01*
X135719524Y-114754819D02*
X135624286Y-114707200D01*
X135624286Y-114707200D02*
X135576667Y-114659580D01*
X140708095Y-139773866D02*
X140755714Y-139726247D01*
X140755714Y-139726247D02*
X140850952Y-139678628D01*
X140850952Y-139678628D02*
X141041428Y-139773866D01*
X141041428Y-139773866D02*
X141136666Y-139726247D01*
X141136666Y-139726247D02*
X141184285Y-139678628D01*
X37290476Y-151854819D02*
X37290476Y-152569104D01*
X37290476Y-152569104D02*
X37242857Y-152711961D01*
X37242857Y-152711961D02*
X37147619Y-152807200D01*
X37147619Y-152807200D02*
X37004762Y-152854819D01*
X37004762Y-152854819D02*
X36909524Y-152854819D01*
X37719048Y-151950057D02*
X37766667Y-151902438D01*
X37766667Y-151902438D02*
X37861905Y-151854819D01*
X37861905Y-151854819D02*
X38100000Y-151854819D01*
X38100000Y-151854819D02*
X38195238Y-151902438D01*
X38195238Y-151902438D02*
X38242857Y-151950057D01*
X38242857Y-151950057D02*
X38290476Y-152045295D01*
X38290476Y-152045295D02*
X38290476Y-152140533D01*
X38290476Y-152140533D02*
X38242857Y-152283390D01*
X38242857Y-152283390D02*
X37671429Y-152854819D01*
X37671429Y-152854819D02*
X38290476Y-152854819D01*
X38623810Y-151854819D02*
X39290476Y-151854819D01*
X39290476Y-151854819D02*
X38861905Y-152854819D01*
X147334819Y-91701904D02*
X146334819Y-91701904D01*
X147334819Y-91130476D02*
X146763390Y-91559047D01*
X146334819Y-91130476D02*
X146906247Y-91701904D01*
X145234819Y-97648094D02*
X144234819Y-97648094D01*
X144234819Y-97648094D02*
X144234819Y-97409999D01*
X144234819Y-97409999D02*
X144282438Y-97267142D01*
X144282438Y-97267142D02*
X144377676Y-97171904D01*
X144377676Y-97171904D02*
X144472914Y-97124285D01*
X144472914Y-97124285D02*
X144663390Y-97076666D01*
X144663390Y-97076666D02*
X144806247Y-97076666D01*
X144806247Y-97076666D02*
X144996723Y-97124285D01*
X144996723Y-97124285D02*
X145091961Y-97171904D01*
X145091961Y-97171904D02*
X145187200Y-97267142D01*
X145187200Y-97267142D02*
X145234819Y-97409999D01*
X145234819Y-97409999D02*
X145234819Y-97648094D01*
X144234819Y-96743332D02*
X144234819Y-96124285D01*
X144234819Y-96124285D02*
X144615771Y-96457618D01*
X144615771Y-96457618D02*
X144615771Y-96314761D01*
X144615771Y-96314761D02*
X144663390Y-96219523D01*
X144663390Y-96219523D02*
X144711009Y-96171904D01*
X144711009Y-96171904D02*
X144806247Y-96124285D01*
X144806247Y-96124285D02*
X145044342Y-96124285D01*
X145044342Y-96124285D02*
X145139580Y-96171904D01*
X145139580Y-96171904D02*
X145187200Y-96219523D01*
X145187200Y-96219523D02*
X145234819Y-96314761D01*
X145234819Y-96314761D02*
X145234819Y-96600475D01*
X145234819Y-96600475D02*
X145187200Y-96695713D01*
X145187200Y-96695713D02*
X145139580Y-96743332D01*
X60798095Y-105583866D02*
X60845714Y-105536247D01*
X60845714Y-105536247D02*
X60940952Y-105488628D01*
X60940952Y-105488628D02*
X61131428Y-105583866D01*
X61131428Y-105583866D02*
X61226666Y-105536247D01*
X61226666Y-105536247D02*
X61274285Y-105488628D01*
X27394819Y-80343333D02*
X28109104Y-80343333D01*
X28109104Y-80343333D02*
X28251961Y-80390952D01*
X28251961Y-80390952D02*
X28347200Y-80486190D01*
X28347200Y-80486190D02*
X28394819Y-80629047D01*
X28394819Y-80629047D02*
X28394819Y-80724285D01*
X27394819Y-79390952D02*
X27394819Y-79867142D01*
X27394819Y-79867142D02*
X27871009Y-79914761D01*
X27871009Y-79914761D02*
X27823390Y-79867142D01*
X27823390Y-79867142D02*
X27775771Y-79771904D01*
X27775771Y-79771904D02*
X27775771Y-79533809D01*
X27775771Y-79533809D02*
X27823390Y-79438571D01*
X27823390Y-79438571D02*
X27871009Y-79390952D01*
X27871009Y-79390952D02*
X27966247Y-79343333D01*
X27966247Y-79343333D02*
X28204342Y-79343333D01*
X28204342Y-79343333D02*
X28299580Y-79390952D01*
X28299580Y-79390952D02*
X28347200Y-79438571D01*
X28347200Y-79438571D02*
X28394819Y-79533809D01*
X28394819Y-79533809D02*
X28394819Y-79771904D01*
X28394819Y-79771904D02*
X28347200Y-79867142D01*
X28347200Y-79867142D02*
X28299580Y-79914761D01*
X140799523Y-127529580D02*
X140751904Y-127577200D01*
X140751904Y-127577200D02*
X140609047Y-127624819D01*
X140609047Y-127624819D02*
X140513809Y-127624819D01*
X140513809Y-127624819D02*
X140370952Y-127577200D01*
X140370952Y-127577200D02*
X140275714Y-127481961D01*
X140275714Y-127481961D02*
X140228095Y-127386723D01*
X140228095Y-127386723D02*
X140180476Y-127196247D01*
X140180476Y-127196247D02*
X140180476Y-127053390D01*
X140180476Y-127053390D02*
X140228095Y-126862914D01*
X140228095Y-126862914D02*
X140275714Y-126767676D01*
X140275714Y-126767676D02*
X140370952Y-126672438D01*
X140370952Y-126672438D02*
X140513809Y-126624819D01*
X140513809Y-126624819D02*
X140609047Y-126624819D01*
X140609047Y-126624819D02*
X140751904Y-126672438D01*
X140751904Y-126672438D02*
X140799523Y-126720057D01*
X140323333Y-122279580D02*
X140275714Y-122327200D01*
X140275714Y-122327200D02*
X140132857Y-122374819D01*
X140132857Y-122374819D02*
X140037619Y-122374819D01*
X140037619Y-122374819D02*
X139894762Y-122327200D01*
X139894762Y-122327200D02*
X139799524Y-122231961D01*
X139799524Y-122231961D02*
X139751905Y-122136723D01*
X139751905Y-122136723D02*
X139704286Y-121946247D01*
X139704286Y-121946247D02*
X139704286Y-121803390D01*
X139704286Y-121803390D02*
X139751905Y-121612914D01*
X139751905Y-121612914D02*
X139799524Y-121517676D01*
X139799524Y-121517676D02*
X139894762Y-121422438D01*
X139894762Y-121422438D02*
X140037619Y-121374819D01*
X140037619Y-121374819D02*
X140132857Y-121374819D01*
X140132857Y-121374819D02*
X140275714Y-121422438D01*
X140275714Y-121422438D02*
X140323333Y-121470057D01*
X141180476Y-121374819D02*
X140990000Y-121374819D01*
X140990000Y-121374819D02*
X140894762Y-121422438D01*
X140894762Y-121422438D02*
X140847143Y-121470057D01*
X140847143Y-121470057D02*
X140751905Y-121612914D01*
X140751905Y-121612914D02*
X140704286Y-121803390D01*
X140704286Y-121803390D02*
X140704286Y-122184342D01*
X140704286Y-122184342D02*
X140751905Y-122279580D01*
X140751905Y-122279580D02*
X140799524Y-122327200D01*
X140799524Y-122327200D02*
X140894762Y-122374819D01*
X140894762Y-122374819D02*
X141085238Y-122374819D01*
X141085238Y-122374819D02*
X141180476Y-122327200D01*
X141180476Y-122327200D02*
X141228095Y-122279580D01*
X141228095Y-122279580D02*
X141275714Y-122184342D01*
X141275714Y-122184342D02*
X141275714Y-121946247D01*
X141275714Y-121946247D02*
X141228095Y-121851009D01*
X141228095Y-121851009D02*
X141180476Y-121803390D01*
X141180476Y-121803390D02*
X141085238Y-121755771D01*
X141085238Y-121755771D02*
X140894762Y-121755771D01*
X140894762Y-121755771D02*
X140799524Y-121803390D01*
X140799524Y-121803390D02*
X140751905Y-121851009D01*
X140751905Y-121851009D02*
X140704286Y-121946247D01*
X140906667Y-66447200D02*
X141049524Y-66494819D01*
X141049524Y-66494819D02*
X141287619Y-66494819D01*
X141287619Y-66494819D02*
X141382857Y-66447200D01*
X141382857Y-66447200D02*
X141430476Y-66399580D01*
X141430476Y-66399580D02*
X141478095Y-66304342D01*
X141478095Y-66304342D02*
X141478095Y-66209104D01*
X141478095Y-66209104D02*
X141430476Y-66113866D01*
X141430476Y-66113866D02*
X141382857Y-66066247D01*
X141382857Y-66066247D02*
X141287619Y-66018628D01*
X141287619Y-66018628D02*
X141097143Y-65971009D01*
X141097143Y-65971009D02*
X141001905Y-65923390D01*
X141001905Y-65923390D02*
X140954286Y-65875771D01*
X140954286Y-65875771D02*
X140906667Y-65780533D01*
X140906667Y-65780533D02*
X140906667Y-65685295D01*
X140906667Y-65685295D02*
X140954286Y-65590057D01*
X140954286Y-65590057D02*
X141001905Y-65542438D01*
X141001905Y-65542438D02*
X141097143Y-65494819D01*
X141097143Y-65494819D02*
X141335238Y-65494819D01*
X141335238Y-65494819D02*
X141478095Y-65542438D01*
X141811429Y-65494819D02*
X142049524Y-66494819D01*
X142049524Y-66494819D02*
X142240000Y-65780533D01*
X142240000Y-65780533D02*
X142430476Y-66494819D01*
X142430476Y-66494819D02*
X142668572Y-65494819D01*
X143001905Y-65590057D02*
X143049524Y-65542438D01*
X143049524Y-65542438D02*
X143144762Y-65494819D01*
X143144762Y-65494819D02*
X143382857Y-65494819D01*
X143382857Y-65494819D02*
X143478095Y-65542438D01*
X143478095Y-65542438D02*
X143525714Y-65590057D01*
X143525714Y-65590057D02*
X143573333Y-65685295D01*
X143573333Y-65685295D02*
X143573333Y-65780533D01*
X143573333Y-65780533D02*
X143525714Y-65923390D01*
X143525714Y-65923390D02*
X142954286Y-66494819D01*
X142954286Y-66494819D02*
X143573333Y-66494819D01*
X99369523Y-33474819D02*
X99036190Y-32998628D01*
X98798095Y-33474819D02*
X98798095Y-32474819D01*
X98798095Y-32474819D02*
X99179047Y-32474819D01*
X99179047Y-32474819D02*
X99274285Y-32522438D01*
X99274285Y-32522438D02*
X99321904Y-32570057D01*
X99321904Y-32570057D02*
X99369523Y-32665295D01*
X99369523Y-32665295D02*
X99369523Y-32808152D01*
X99369523Y-32808152D02*
X99321904Y-32903390D01*
X99321904Y-32903390D02*
X99274285Y-32951009D01*
X99274285Y-32951009D02*
X99179047Y-32998628D01*
X99179047Y-32998628D02*
X98798095Y-32998628D01*
D11*
X91320000Y-33347469D02*
X91080000Y-33004612D01*
X90908571Y-33347469D02*
X90908571Y-32627469D01*
X90908571Y-32627469D02*
X91182857Y-32627469D01*
X91182857Y-32627469D02*
X91251428Y-32661755D01*
X91251428Y-32661755D02*
X91285714Y-32696041D01*
X91285714Y-32696041D02*
X91320000Y-32764612D01*
X91320000Y-32764612D02*
X91320000Y-32867469D01*
X91320000Y-32867469D02*
X91285714Y-32936041D01*
X91285714Y-32936041D02*
X91251428Y-32970326D01*
X91251428Y-32970326D02*
X91182857Y-33004612D01*
X91182857Y-33004612D02*
X90908571Y-33004612D01*
X91731428Y-32936041D02*
X91662857Y-32901755D01*
X91662857Y-32901755D02*
X91628571Y-32867469D01*
X91628571Y-32867469D02*
X91594285Y-32798898D01*
X91594285Y-32798898D02*
X91594285Y-32764612D01*
X91594285Y-32764612D02*
X91628571Y-32696041D01*
X91628571Y-32696041D02*
X91662857Y-32661755D01*
X91662857Y-32661755D02*
X91731428Y-32627469D01*
X91731428Y-32627469D02*
X91868571Y-32627469D01*
X91868571Y-32627469D02*
X91937143Y-32661755D01*
X91937143Y-32661755D02*
X91971428Y-32696041D01*
X91971428Y-32696041D02*
X92005714Y-32764612D01*
X92005714Y-32764612D02*
X92005714Y-32798898D01*
X92005714Y-32798898D02*
X91971428Y-32867469D01*
X91971428Y-32867469D02*
X91937143Y-32901755D01*
X91937143Y-32901755D02*
X91868571Y-32936041D01*
X91868571Y-32936041D02*
X91731428Y-32936041D01*
X91731428Y-32936041D02*
X91662857Y-32970326D01*
X91662857Y-32970326D02*
X91628571Y-33004612D01*
X91628571Y-33004612D02*
X91594285Y-33073184D01*
X91594285Y-33073184D02*
X91594285Y-33210326D01*
X91594285Y-33210326D02*
X91628571Y-33278898D01*
X91628571Y-33278898D02*
X91662857Y-33313184D01*
X91662857Y-33313184D02*
X91731428Y-33347469D01*
X91731428Y-33347469D02*
X91868571Y-33347469D01*
X91868571Y-33347469D02*
X91937143Y-33313184D01*
X91937143Y-33313184D02*
X91971428Y-33278898D01*
X91971428Y-33278898D02*
X92005714Y-33210326D01*
X92005714Y-33210326D02*
X92005714Y-33073184D01*
X92005714Y-33073184D02*
X91971428Y-33004612D01*
X91971428Y-33004612D02*
X91937143Y-32970326D01*
X91937143Y-32970326D02*
X91868571Y-32936041D01*
D10*
X27394819Y-98123333D02*
X28109104Y-98123333D01*
X28109104Y-98123333D02*
X28251961Y-98170952D01*
X28251961Y-98170952D02*
X28347200Y-98266190D01*
X28347200Y-98266190D02*
X28394819Y-98409047D01*
X28394819Y-98409047D02*
X28394819Y-98504285D01*
X27394819Y-97218571D02*
X27394819Y-97409047D01*
X27394819Y-97409047D02*
X27442438Y-97504285D01*
X27442438Y-97504285D02*
X27490057Y-97551904D01*
X27490057Y-97551904D02*
X27632914Y-97647142D01*
X27632914Y-97647142D02*
X27823390Y-97694761D01*
X27823390Y-97694761D02*
X28204342Y-97694761D01*
X28204342Y-97694761D02*
X28299580Y-97647142D01*
X28299580Y-97647142D02*
X28347200Y-97599523D01*
X28347200Y-97599523D02*
X28394819Y-97504285D01*
X28394819Y-97504285D02*
X28394819Y-97313809D01*
X28394819Y-97313809D02*
X28347200Y-97218571D01*
X28347200Y-97218571D02*
X28299580Y-97170952D01*
X28299580Y-97170952D02*
X28204342Y-97123333D01*
X28204342Y-97123333D02*
X27966247Y-97123333D01*
X27966247Y-97123333D02*
X27871009Y-97170952D01*
X27871009Y-97170952D02*
X27823390Y-97218571D01*
X27823390Y-97218571D02*
X27775771Y-97313809D01*
X27775771Y-97313809D02*
X27775771Y-97504285D01*
X27775771Y-97504285D02*
X27823390Y-97599523D01*
X27823390Y-97599523D02*
X27871009Y-97647142D01*
X27871009Y-97647142D02*
X27966247Y-97694761D01*
X162014819Y-66849523D02*
X162729104Y-66849523D01*
X162729104Y-66849523D02*
X162871961Y-66897142D01*
X162871961Y-66897142D02*
X162967200Y-66992380D01*
X162967200Y-66992380D02*
X163014819Y-67135237D01*
X163014819Y-67135237D02*
X163014819Y-67230475D01*
X163014819Y-65849523D02*
X163014819Y-66420951D01*
X163014819Y-66135237D02*
X162014819Y-66135237D01*
X162014819Y-66135237D02*
X162157676Y-66230475D01*
X162157676Y-66230475D02*
X162252914Y-66325713D01*
X162252914Y-66325713D02*
X162300533Y-66420951D01*
X163014819Y-65373332D02*
X163014819Y-65182856D01*
X163014819Y-65182856D02*
X162967200Y-65087618D01*
X162967200Y-65087618D02*
X162919580Y-65039999D01*
X162919580Y-65039999D02*
X162776723Y-64944761D01*
X162776723Y-64944761D02*
X162586247Y-64897142D01*
X162586247Y-64897142D02*
X162205295Y-64897142D01*
X162205295Y-64897142D02*
X162110057Y-64944761D01*
X162110057Y-64944761D02*
X162062438Y-64992380D01*
X162062438Y-64992380D02*
X162014819Y-65087618D01*
X162014819Y-65087618D02*
X162014819Y-65278094D01*
X162014819Y-65278094D02*
X162062438Y-65373332D01*
X162062438Y-65373332D02*
X162110057Y-65420951D01*
X162110057Y-65420951D02*
X162205295Y-65468570D01*
X162205295Y-65468570D02*
X162443390Y-65468570D01*
X162443390Y-65468570D02*
X162538628Y-65420951D01*
X162538628Y-65420951D02*
X162586247Y-65373332D01*
X162586247Y-65373332D02*
X162633866Y-65278094D01*
X162633866Y-65278094D02*
X162633866Y-65087618D01*
X162633866Y-65087618D02*
X162586247Y-64992380D01*
X162586247Y-64992380D02*
X162538628Y-64944761D01*
X162538628Y-64944761D02*
X162443390Y-64897142D01*
X26124819Y-62563333D02*
X26839104Y-62563333D01*
X26839104Y-62563333D02*
X26981961Y-62610952D01*
X26981961Y-62610952D02*
X27077200Y-62706190D01*
X27077200Y-62706190D02*
X27124819Y-62849047D01*
X27124819Y-62849047D02*
X27124819Y-62944285D01*
X26458152Y-61658571D02*
X27124819Y-61658571D01*
X26077200Y-61896666D02*
X26791485Y-62134761D01*
X26791485Y-62134761D02*
X26791485Y-61515714D01*
X150959523Y-127529580D02*
X150911904Y-127577200D01*
X150911904Y-127577200D02*
X150769047Y-127624819D01*
X150769047Y-127624819D02*
X150673809Y-127624819D01*
X150673809Y-127624819D02*
X150530952Y-127577200D01*
X150530952Y-127577200D02*
X150435714Y-127481961D01*
X150435714Y-127481961D02*
X150388095Y-127386723D01*
X150388095Y-127386723D02*
X150340476Y-127196247D01*
X150340476Y-127196247D02*
X150340476Y-127053390D01*
X150340476Y-127053390D02*
X150388095Y-126862914D01*
X150388095Y-126862914D02*
X150435714Y-126767676D01*
X150435714Y-126767676D02*
X150530952Y-126672438D01*
X150530952Y-126672438D02*
X150673809Y-126624819D01*
X150673809Y-126624819D02*
X150769047Y-126624819D01*
X150769047Y-126624819D02*
X150911904Y-126672438D01*
X150911904Y-126672438D02*
X150959523Y-126720057D01*
X150483333Y-122279580D02*
X150435714Y-122327200D01*
X150435714Y-122327200D02*
X150292857Y-122374819D01*
X150292857Y-122374819D02*
X150197619Y-122374819D01*
X150197619Y-122374819D02*
X150054762Y-122327200D01*
X150054762Y-122327200D02*
X149959524Y-122231961D01*
X149959524Y-122231961D02*
X149911905Y-122136723D01*
X149911905Y-122136723D02*
X149864286Y-121946247D01*
X149864286Y-121946247D02*
X149864286Y-121803390D01*
X149864286Y-121803390D02*
X149911905Y-121612914D01*
X149911905Y-121612914D02*
X149959524Y-121517676D01*
X149959524Y-121517676D02*
X150054762Y-121422438D01*
X150054762Y-121422438D02*
X150197619Y-121374819D01*
X150197619Y-121374819D02*
X150292857Y-121374819D01*
X150292857Y-121374819D02*
X150435714Y-121422438D01*
X150435714Y-121422438D02*
X150483333Y-121470057D01*
X151388095Y-121374819D02*
X150911905Y-121374819D01*
X150911905Y-121374819D02*
X150864286Y-121851009D01*
X150864286Y-121851009D02*
X150911905Y-121803390D01*
X150911905Y-121803390D02*
X151007143Y-121755771D01*
X151007143Y-121755771D02*
X151245238Y-121755771D01*
X151245238Y-121755771D02*
X151340476Y-121803390D01*
X151340476Y-121803390D02*
X151388095Y-121851009D01*
X151388095Y-121851009D02*
X151435714Y-121946247D01*
X151435714Y-121946247D02*
X151435714Y-122184342D01*
X151435714Y-122184342D02*
X151388095Y-122279580D01*
X151388095Y-122279580D02*
X151340476Y-122327200D01*
X151340476Y-122327200D02*
X151245238Y-122374819D01*
X151245238Y-122374819D02*
X151007143Y-122374819D01*
X151007143Y-122374819D02*
X150911905Y-122327200D01*
X150911905Y-122327200D02*
X150864286Y-122279580D01*
X154394819Y-79549523D02*
X155109104Y-79549523D01*
X155109104Y-79549523D02*
X155251961Y-79597142D01*
X155251961Y-79597142D02*
X155347200Y-79692380D01*
X155347200Y-79692380D02*
X155394819Y-79835237D01*
X155394819Y-79835237D02*
X155394819Y-79930475D01*
X155394819Y-78549523D02*
X155394819Y-79120951D01*
X155394819Y-78835237D02*
X154394819Y-78835237D01*
X154394819Y-78835237D02*
X154537676Y-78930475D01*
X154537676Y-78930475D02*
X154632914Y-79025713D01*
X154632914Y-79025713D02*
X154680533Y-79120951D01*
X154394819Y-77692380D02*
X154394819Y-77882856D01*
X154394819Y-77882856D02*
X154442438Y-77978094D01*
X154442438Y-77978094D02*
X154490057Y-78025713D01*
X154490057Y-78025713D02*
X154632914Y-78120951D01*
X154632914Y-78120951D02*
X154823390Y-78168570D01*
X154823390Y-78168570D02*
X155204342Y-78168570D01*
X155204342Y-78168570D02*
X155299580Y-78120951D01*
X155299580Y-78120951D02*
X155347200Y-78073332D01*
X155347200Y-78073332D02*
X155394819Y-77978094D01*
X155394819Y-77978094D02*
X155394819Y-77787618D01*
X155394819Y-77787618D02*
X155347200Y-77692380D01*
X155347200Y-77692380D02*
X155299580Y-77644761D01*
X155299580Y-77644761D02*
X155204342Y-77597142D01*
X155204342Y-77597142D02*
X154966247Y-77597142D01*
X154966247Y-77597142D02*
X154871009Y-77644761D01*
X154871009Y-77644761D02*
X154823390Y-77692380D01*
X154823390Y-77692380D02*
X154775771Y-77787618D01*
X154775771Y-77787618D02*
X154775771Y-77978094D01*
X154775771Y-77978094D02*
X154823390Y-78073332D01*
X154823390Y-78073332D02*
X154871009Y-78120951D01*
X154871009Y-78120951D02*
X154966247Y-78168570D01*
X162014819Y-110029523D02*
X162729104Y-110029523D01*
X162729104Y-110029523D02*
X162871961Y-110077142D01*
X162871961Y-110077142D02*
X162967200Y-110172380D01*
X162967200Y-110172380D02*
X163014819Y-110315237D01*
X163014819Y-110315237D02*
X163014819Y-110410475D01*
X162110057Y-109600951D02*
X162062438Y-109553332D01*
X162062438Y-109553332D02*
X162014819Y-109458094D01*
X162014819Y-109458094D02*
X162014819Y-109219999D01*
X162014819Y-109219999D02*
X162062438Y-109124761D01*
X162062438Y-109124761D02*
X162110057Y-109077142D01*
X162110057Y-109077142D02*
X162205295Y-109029523D01*
X162205295Y-109029523D02*
X162300533Y-109029523D01*
X162300533Y-109029523D02*
X162443390Y-109077142D01*
X162443390Y-109077142D02*
X163014819Y-109648570D01*
X163014819Y-109648570D02*
X163014819Y-109029523D01*
X162014819Y-108172380D02*
X162014819Y-108362856D01*
X162014819Y-108362856D02*
X162062438Y-108458094D01*
X162062438Y-108458094D02*
X162110057Y-108505713D01*
X162110057Y-108505713D02*
X162252914Y-108600951D01*
X162252914Y-108600951D02*
X162443390Y-108648570D01*
X162443390Y-108648570D02*
X162824342Y-108648570D01*
X162824342Y-108648570D02*
X162919580Y-108600951D01*
X162919580Y-108600951D02*
X162967200Y-108553332D01*
X162967200Y-108553332D02*
X163014819Y-108458094D01*
X163014819Y-108458094D02*
X163014819Y-108267618D01*
X163014819Y-108267618D02*
X162967200Y-108172380D01*
X162967200Y-108172380D02*
X162919580Y-108124761D01*
X162919580Y-108124761D02*
X162824342Y-108077142D01*
X162824342Y-108077142D02*
X162586247Y-108077142D01*
X162586247Y-108077142D02*
X162491009Y-108124761D01*
X162491009Y-108124761D02*
X162443390Y-108172380D01*
X162443390Y-108172380D02*
X162395771Y-108267618D01*
X162395771Y-108267618D02*
X162395771Y-108458094D01*
X162395771Y-108458094D02*
X162443390Y-108553332D01*
X162443390Y-108553332D02*
X162491009Y-108600951D01*
X162491009Y-108600951D02*
X162586247Y-108648570D01*
D12*
X49139524Y-43073855D02*
X49139524Y-42273855D01*
X49139524Y-42273855D02*
X49330000Y-42273855D01*
X49330000Y-42273855D02*
X49444286Y-42311950D01*
X49444286Y-42311950D02*
X49520476Y-42388140D01*
X49520476Y-42388140D02*
X49558571Y-42464331D01*
X49558571Y-42464331D02*
X49596667Y-42616712D01*
X49596667Y-42616712D02*
X49596667Y-42730998D01*
X49596667Y-42730998D02*
X49558571Y-42883379D01*
X49558571Y-42883379D02*
X49520476Y-42959569D01*
X49520476Y-42959569D02*
X49444286Y-43035760D01*
X49444286Y-43035760D02*
X49330000Y-43073855D01*
X49330000Y-43073855D02*
X49139524Y-43073855D01*
X49901428Y-42350045D02*
X49939524Y-42311950D01*
X49939524Y-42311950D02*
X50015714Y-42273855D01*
X50015714Y-42273855D02*
X50206190Y-42273855D01*
X50206190Y-42273855D02*
X50282381Y-42311950D01*
X50282381Y-42311950D02*
X50320476Y-42350045D01*
X50320476Y-42350045D02*
X50358571Y-42426236D01*
X50358571Y-42426236D02*
X50358571Y-42502426D01*
X50358571Y-42502426D02*
X50320476Y-42616712D01*
X50320476Y-42616712D02*
X49863333Y-43073855D01*
X49863333Y-43073855D02*
X50358571Y-43073855D01*
D10*
X37554819Y-44783333D02*
X38269104Y-44783333D01*
X38269104Y-44783333D02*
X38411961Y-44830952D01*
X38411961Y-44830952D02*
X38507200Y-44926190D01*
X38507200Y-44926190D02*
X38554819Y-45069047D01*
X38554819Y-45069047D02*
X38554819Y-45164285D01*
X38554819Y-44259523D02*
X38554819Y-44069047D01*
X38554819Y-44069047D02*
X38507200Y-43973809D01*
X38507200Y-43973809D02*
X38459580Y-43926190D01*
X38459580Y-43926190D02*
X38316723Y-43830952D01*
X38316723Y-43830952D02*
X38126247Y-43783333D01*
X38126247Y-43783333D02*
X37745295Y-43783333D01*
X37745295Y-43783333D02*
X37650057Y-43830952D01*
X37650057Y-43830952D02*
X37602438Y-43878571D01*
X37602438Y-43878571D02*
X37554819Y-43973809D01*
X37554819Y-43973809D02*
X37554819Y-44164285D01*
X37554819Y-44164285D02*
X37602438Y-44259523D01*
X37602438Y-44259523D02*
X37650057Y-44307142D01*
X37650057Y-44307142D02*
X37745295Y-44354761D01*
X37745295Y-44354761D02*
X37983390Y-44354761D01*
X37983390Y-44354761D02*
X38078628Y-44307142D01*
X38078628Y-44307142D02*
X38126247Y-44259523D01*
X38126247Y-44259523D02*
X38173866Y-44164285D01*
X38173866Y-44164285D02*
X38173866Y-43973809D01*
X38173866Y-43973809D02*
X38126247Y-43878571D01*
X38126247Y-43878571D02*
X38078628Y-43830952D01*
X38078628Y-43830952D02*
X37983390Y-43783333D01*
X27394819Y-133683333D02*
X28109104Y-133683333D01*
X28109104Y-133683333D02*
X28251961Y-133730952D01*
X28251961Y-133730952D02*
X28347200Y-133826190D01*
X28347200Y-133826190D02*
X28394819Y-133969047D01*
X28394819Y-133969047D02*
X28394819Y-134064285D01*
X27823390Y-133064285D02*
X27775771Y-133159523D01*
X27775771Y-133159523D02*
X27728152Y-133207142D01*
X27728152Y-133207142D02*
X27632914Y-133254761D01*
X27632914Y-133254761D02*
X27585295Y-133254761D01*
X27585295Y-133254761D02*
X27490057Y-133207142D01*
X27490057Y-133207142D02*
X27442438Y-133159523D01*
X27442438Y-133159523D02*
X27394819Y-133064285D01*
X27394819Y-133064285D02*
X27394819Y-132873809D01*
X27394819Y-132873809D02*
X27442438Y-132778571D01*
X27442438Y-132778571D02*
X27490057Y-132730952D01*
X27490057Y-132730952D02*
X27585295Y-132683333D01*
X27585295Y-132683333D02*
X27632914Y-132683333D01*
X27632914Y-132683333D02*
X27728152Y-132730952D01*
X27728152Y-132730952D02*
X27775771Y-132778571D01*
X27775771Y-132778571D02*
X27823390Y-132873809D01*
X27823390Y-132873809D02*
X27823390Y-133064285D01*
X27823390Y-133064285D02*
X27871009Y-133159523D01*
X27871009Y-133159523D02*
X27918628Y-133207142D01*
X27918628Y-133207142D02*
X28013866Y-133254761D01*
X28013866Y-133254761D02*
X28204342Y-133254761D01*
X28204342Y-133254761D02*
X28299580Y-133207142D01*
X28299580Y-133207142D02*
X28347200Y-133159523D01*
X28347200Y-133159523D02*
X28394819Y-133064285D01*
X28394819Y-133064285D02*
X28394819Y-132873809D01*
X28394819Y-132873809D02*
X28347200Y-132778571D01*
X28347200Y-132778571D02*
X28299580Y-132730952D01*
X28299580Y-132730952D02*
X28204342Y-132683333D01*
X28204342Y-132683333D02*
X28013866Y-132683333D01*
X28013866Y-132683333D02*
X27918628Y-132730952D01*
X27918628Y-132730952D02*
X27871009Y-132778571D01*
X27871009Y-132778571D02*
X27823390Y-132873809D01*
D12*
X140579524Y-43543855D02*
X140579524Y-42743855D01*
X140579524Y-42743855D02*
X140770000Y-42743855D01*
X140770000Y-42743855D02*
X140884286Y-42781950D01*
X140884286Y-42781950D02*
X140960476Y-42858140D01*
X140960476Y-42858140D02*
X140998571Y-42934331D01*
X140998571Y-42934331D02*
X141036667Y-43086712D01*
X141036667Y-43086712D02*
X141036667Y-43200998D01*
X141036667Y-43200998D02*
X140998571Y-43353379D01*
X140998571Y-43353379D02*
X140960476Y-43429569D01*
X140960476Y-43429569D02*
X140884286Y-43505760D01*
X140884286Y-43505760D02*
X140770000Y-43543855D01*
X140770000Y-43543855D02*
X140579524Y-43543855D01*
X141760476Y-42743855D02*
X141379524Y-42743855D01*
X141379524Y-42743855D02*
X141341428Y-43124807D01*
X141341428Y-43124807D02*
X141379524Y-43086712D01*
X141379524Y-43086712D02*
X141455714Y-43048617D01*
X141455714Y-43048617D02*
X141646190Y-43048617D01*
X141646190Y-43048617D02*
X141722381Y-43086712D01*
X141722381Y-43086712D02*
X141760476Y-43124807D01*
X141760476Y-43124807D02*
X141798571Y-43200998D01*
X141798571Y-43200998D02*
X141798571Y-43391474D01*
X141798571Y-43391474D02*
X141760476Y-43467664D01*
X141760476Y-43467664D02*
X141722381Y-43505760D01*
X141722381Y-43505760D02*
X141646190Y-43543855D01*
X141646190Y-43543855D02*
X141455714Y-43543855D01*
X141455714Y-43543855D02*
X141379524Y-43505760D01*
X141379524Y-43505760D02*
X141341428Y-43467664D01*
D10*
X154394819Y-136223333D02*
X155109104Y-136223333D01*
X155109104Y-136223333D02*
X155251961Y-136270952D01*
X155251961Y-136270952D02*
X155347200Y-136366190D01*
X155347200Y-136366190D02*
X155394819Y-136509047D01*
X155394819Y-136509047D02*
X155394819Y-136604285D01*
X155394819Y-135223333D02*
X155394819Y-135794761D01*
X155394819Y-135509047D02*
X154394819Y-135509047D01*
X154394819Y-135509047D02*
X154537676Y-135604285D01*
X154537676Y-135604285D02*
X154632914Y-135699523D01*
X154632914Y-135699523D02*
X154680533Y-135794761D01*
D12*
X49139524Y-53703855D02*
X49139524Y-52903855D01*
X49139524Y-52903855D02*
X49330000Y-52903855D01*
X49330000Y-52903855D02*
X49444286Y-52941950D01*
X49444286Y-52941950D02*
X49520476Y-53018140D01*
X49520476Y-53018140D02*
X49558571Y-53094331D01*
X49558571Y-53094331D02*
X49596667Y-53246712D01*
X49596667Y-53246712D02*
X49596667Y-53360998D01*
X49596667Y-53360998D02*
X49558571Y-53513379D01*
X49558571Y-53513379D02*
X49520476Y-53589569D01*
X49520476Y-53589569D02*
X49444286Y-53665760D01*
X49444286Y-53665760D02*
X49330000Y-53703855D01*
X49330000Y-53703855D02*
X49139524Y-53703855D01*
X50282381Y-53170521D02*
X50282381Y-53703855D01*
X50091905Y-52865760D02*
X49901428Y-53437188D01*
X49901428Y-53437188D02*
X50396667Y-53437188D01*
D10*
X145879523Y-119909580D02*
X145831904Y-119957200D01*
X145831904Y-119957200D02*
X145689047Y-120004819D01*
X145689047Y-120004819D02*
X145593809Y-120004819D01*
X145593809Y-120004819D02*
X145450952Y-119957200D01*
X145450952Y-119957200D02*
X145355714Y-119861961D01*
X145355714Y-119861961D02*
X145308095Y-119766723D01*
X145308095Y-119766723D02*
X145260476Y-119576247D01*
X145260476Y-119576247D02*
X145260476Y-119433390D01*
X145260476Y-119433390D02*
X145308095Y-119242914D01*
X145308095Y-119242914D02*
X145355714Y-119147676D01*
X145355714Y-119147676D02*
X145450952Y-119052438D01*
X145450952Y-119052438D02*
X145593809Y-119004819D01*
X145593809Y-119004819D02*
X145689047Y-119004819D01*
X145689047Y-119004819D02*
X145831904Y-119052438D01*
X145831904Y-119052438D02*
X145879523Y-119100057D01*
X145403333Y-114659580D02*
X145355714Y-114707200D01*
X145355714Y-114707200D02*
X145212857Y-114754819D01*
X145212857Y-114754819D02*
X145117619Y-114754819D01*
X145117619Y-114754819D02*
X144974762Y-114707200D01*
X144974762Y-114707200D02*
X144879524Y-114611961D01*
X144879524Y-114611961D02*
X144831905Y-114516723D01*
X144831905Y-114516723D02*
X144784286Y-114326247D01*
X144784286Y-114326247D02*
X144784286Y-114183390D01*
X144784286Y-114183390D02*
X144831905Y-113992914D01*
X144831905Y-113992914D02*
X144879524Y-113897676D01*
X144879524Y-113897676D02*
X144974762Y-113802438D01*
X144974762Y-113802438D02*
X145117619Y-113754819D01*
X145117619Y-113754819D02*
X145212857Y-113754819D01*
X145212857Y-113754819D02*
X145355714Y-113802438D01*
X145355714Y-113802438D02*
X145403333Y-113850057D01*
X145784286Y-113850057D02*
X145831905Y-113802438D01*
X145831905Y-113802438D02*
X145927143Y-113754819D01*
X145927143Y-113754819D02*
X146165238Y-113754819D01*
X146165238Y-113754819D02*
X146260476Y-113802438D01*
X146260476Y-113802438D02*
X146308095Y-113850057D01*
X146308095Y-113850057D02*
X146355714Y-113945295D01*
X146355714Y-113945295D02*
X146355714Y-114040533D01*
X146355714Y-114040533D02*
X146308095Y-114183390D01*
X146308095Y-114183390D02*
X145736667Y-114754819D01*
X145736667Y-114754819D02*
X146355714Y-114754819D01*
X37554819Y-31289523D02*
X38269104Y-31289523D01*
X38269104Y-31289523D02*
X38411961Y-31337142D01*
X38411961Y-31337142D02*
X38507200Y-31432380D01*
X38507200Y-31432380D02*
X38554819Y-31575237D01*
X38554819Y-31575237D02*
X38554819Y-31670475D01*
X37650057Y-30860951D02*
X37602438Y-30813332D01*
X37602438Y-30813332D02*
X37554819Y-30718094D01*
X37554819Y-30718094D02*
X37554819Y-30479999D01*
X37554819Y-30479999D02*
X37602438Y-30384761D01*
X37602438Y-30384761D02*
X37650057Y-30337142D01*
X37650057Y-30337142D02*
X37745295Y-30289523D01*
X37745295Y-30289523D02*
X37840533Y-30289523D01*
X37840533Y-30289523D02*
X37983390Y-30337142D01*
X37983390Y-30337142D02*
X38554819Y-30908570D01*
X38554819Y-30908570D02*
X38554819Y-30289523D01*
X37554819Y-29670475D02*
X37554819Y-29575237D01*
X37554819Y-29575237D02*
X37602438Y-29479999D01*
X37602438Y-29479999D02*
X37650057Y-29432380D01*
X37650057Y-29432380D02*
X37745295Y-29384761D01*
X37745295Y-29384761D02*
X37935771Y-29337142D01*
X37935771Y-29337142D02*
X38173866Y-29337142D01*
X38173866Y-29337142D02*
X38364342Y-29384761D01*
X38364342Y-29384761D02*
X38459580Y-29432380D01*
X38459580Y-29432380D02*
X38507200Y-29479999D01*
X38507200Y-29479999D02*
X38554819Y-29575237D01*
X38554819Y-29575237D02*
X38554819Y-29670475D01*
X38554819Y-29670475D02*
X38507200Y-29765713D01*
X38507200Y-29765713D02*
X38459580Y-29813332D01*
X38459580Y-29813332D02*
X38364342Y-29860951D01*
X38364342Y-29860951D02*
X38173866Y-29908570D01*
X38173866Y-29908570D02*
X37935771Y-29908570D01*
X37935771Y-29908570D02*
X37745295Y-29860951D01*
X37745295Y-29860951D02*
X37650057Y-29813332D01*
X37650057Y-29813332D02*
X37602438Y-29765713D01*
X37602438Y-29765713D02*
X37554819Y-29670475D01*
X37554819Y-122729523D02*
X38269104Y-122729523D01*
X38269104Y-122729523D02*
X38411961Y-122777142D01*
X38411961Y-122777142D02*
X38507200Y-122872380D01*
X38507200Y-122872380D02*
X38554819Y-123015237D01*
X38554819Y-123015237D02*
X38554819Y-123110475D01*
X38554819Y-121729523D02*
X38554819Y-122300951D01*
X38554819Y-122015237D02*
X37554819Y-122015237D01*
X37554819Y-122015237D02*
X37697676Y-122110475D01*
X37697676Y-122110475D02*
X37792914Y-122205713D01*
X37792914Y-122205713D02*
X37840533Y-122300951D01*
X37554819Y-121396189D02*
X37554819Y-120777142D01*
X37554819Y-120777142D02*
X37935771Y-121110475D01*
X37935771Y-121110475D02*
X37935771Y-120967618D01*
X37935771Y-120967618D02*
X37983390Y-120872380D01*
X37983390Y-120872380D02*
X38031009Y-120824761D01*
X38031009Y-120824761D02*
X38126247Y-120777142D01*
X38126247Y-120777142D02*
X38364342Y-120777142D01*
X38364342Y-120777142D02*
X38459580Y-120824761D01*
X38459580Y-120824761D02*
X38507200Y-120872380D01*
X38507200Y-120872380D02*
X38554819Y-120967618D01*
X38554819Y-120967618D02*
X38554819Y-121253332D01*
X38554819Y-121253332D02*
X38507200Y-121348570D01*
X38507200Y-121348570D02*
X38459580Y-121396189D01*
X79049523Y-35394819D02*
X78716190Y-34918628D01*
X78478095Y-35394819D02*
X78478095Y-34394819D01*
X78478095Y-34394819D02*
X78859047Y-34394819D01*
X78859047Y-34394819D02*
X78954285Y-34442438D01*
X78954285Y-34442438D02*
X79001904Y-34490057D01*
X79001904Y-34490057D02*
X79049523Y-34585295D01*
X79049523Y-34585295D02*
X79049523Y-34728152D01*
X79049523Y-34728152D02*
X79001904Y-34823390D01*
X79001904Y-34823390D02*
X78954285Y-34871009D01*
X78954285Y-34871009D02*
X78859047Y-34918628D01*
X78859047Y-34918628D02*
X78478095Y-34918628D01*
D11*
X78620000Y-33347469D02*
X78380000Y-33004612D01*
X78208571Y-33347469D02*
X78208571Y-32627469D01*
X78208571Y-32627469D02*
X78482857Y-32627469D01*
X78482857Y-32627469D02*
X78551428Y-32661755D01*
X78551428Y-32661755D02*
X78585714Y-32696041D01*
X78585714Y-32696041D02*
X78620000Y-32764612D01*
X78620000Y-32764612D02*
X78620000Y-32867469D01*
X78620000Y-32867469D02*
X78585714Y-32936041D01*
X78585714Y-32936041D02*
X78551428Y-32970326D01*
X78551428Y-32970326D02*
X78482857Y-33004612D01*
X78482857Y-33004612D02*
X78208571Y-33004612D01*
X79271428Y-32627469D02*
X78928571Y-32627469D01*
X78928571Y-32627469D02*
X78894285Y-32970326D01*
X78894285Y-32970326D02*
X78928571Y-32936041D01*
X78928571Y-32936041D02*
X78997143Y-32901755D01*
X78997143Y-32901755D02*
X79168571Y-32901755D01*
X79168571Y-32901755D02*
X79237143Y-32936041D01*
X79237143Y-32936041D02*
X79271428Y-32970326D01*
X79271428Y-32970326D02*
X79305714Y-33038898D01*
X79305714Y-33038898D02*
X79305714Y-33210326D01*
X79305714Y-33210326D02*
X79271428Y-33278898D01*
X79271428Y-33278898D02*
X79237143Y-33313184D01*
X79237143Y-33313184D02*
X79168571Y-33347469D01*
X79168571Y-33347469D02*
X78997143Y-33347469D01*
X78997143Y-33347469D02*
X78928571Y-33313184D01*
X78928571Y-33313184D02*
X78894285Y-33278898D01*
D10*
X37554819Y-63039523D02*
X38269104Y-63039523D01*
X38269104Y-63039523D02*
X38411961Y-63087142D01*
X38411961Y-63087142D02*
X38507200Y-63182380D01*
X38507200Y-63182380D02*
X38554819Y-63325237D01*
X38554819Y-63325237D02*
X38554819Y-63420475D01*
X38554819Y-62039523D02*
X38554819Y-62610951D01*
X38554819Y-62325237D02*
X37554819Y-62325237D01*
X37554819Y-62325237D02*
X37697676Y-62420475D01*
X37697676Y-62420475D02*
X37792914Y-62515713D01*
X37792914Y-62515713D02*
X37840533Y-62610951D01*
X38554819Y-61087142D02*
X38554819Y-61658570D01*
X38554819Y-61372856D02*
X37554819Y-61372856D01*
X37554819Y-61372856D02*
X37697676Y-61468094D01*
X37697676Y-61468094D02*
X37792914Y-61563332D01*
X37792914Y-61563332D02*
X37840533Y-61658570D01*
X125559523Y-119909580D02*
X125511904Y-119957200D01*
X125511904Y-119957200D02*
X125369047Y-120004819D01*
X125369047Y-120004819D02*
X125273809Y-120004819D01*
X125273809Y-120004819D02*
X125130952Y-119957200D01*
X125130952Y-119957200D02*
X125035714Y-119861961D01*
X125035714Y-119861961D02*
X124988095Y-119766723D01*
X124988095Y-119766723D02*
X124940476Y-119576247D01*
X124940476Y-119576247D02*
X124940476Y-119433390D01*
X124940476Y-119433390D02*
X124988095Y-119242914D01*
X124988095Y-119242914D02*
X125035714Y-119147676D01*
X125035714Y-119147676D02*
X125130952Y-119052438D01*
X125130952Y-119052438D02*
X125273809Y-119004819D01*
X125273809Y-119004819D02*
X125369047Y-119004819D01*
X125369047Y-119004819D02*
X125511904Y-119052438D01*
X125511904Y-119052438D02*
X125559523Y-119100057D01*
X125083333Y-114659580D02*
X125035714Y-114707200D01*
X125035714Y-114707200D02*
X124892857Y-114754819D01*
X124892857Y-114754819D02*
X124797619Y-114754819D01*
X124797619Y-114754819D02*
X124654762Y-114707200D01*
X124654762Y-114707200D02*
X124559524Y-114611961D01*
X124559524Y-114611961D02*
X124511905Y-114516723D01*
X124511905Y-114516723D02*
X124464286Y-114326247D01*
X124464286Y-114326247D02*
X124464286Y-114183390D01*
X124464286Y-114183390D02*
X124511905Y-113992914D01*
X124511905Y-113992914D02*
X124559524Y-113897676D01*
X124559524Y-113897676D02*
X124654762Y-113802438D01*
X124654762Y-113802438D02*
X124797619Y-113754819D01*
X124797619Y-113754819D02*
X124892857Y-113754819D01*
X124892857Y-113754819D02*
X125035714Y-113802438D01*
X125035714Y-113802438D02*
X125083333Y-113850057D01*
X126035714Y-114754819D02*
X125464286Y-114754819D01*
X125750000Y-114754819D02*
X125750000Y-113754819D01*
X125750000Y-113754819D02*
X125654762Y-113897676D01*
X125654762Y-113897676D02*
X125559524Y-113992914D01*
X125559524Y-113992914D02*
X125464286Y-114040533D01*
X27394819Y-44783333D02*
X28109104Y-44783333D01*
X28109104Y-44783333D02*
X28251961Y-44830952D01*
X28251961Y-44830952D02*
X28347200Y-44926190D01*
X28347200Y-44926190D02*
X28394819Y-45069047D01*
X28394819Y-45069047D02*
X28394819Y-45164285D01*
X27394819Y-44402380D02*
X27394819Y-43783333D01*
X27394819Y-43783333D02*
X27775771Y-44116666D01*
X27775771Y-44116666D02*
X27775771Y-43973809D01*
X27775771Y-43973809D02*
X27823390Y-43878571D01*
X27823390Y-43878571D02*
X27871009Y-43830952D01*
X27871009Y-43830952D02*
X27966247Y-43783333D01*
X27966247Y-43783333D02*
X28204342Y-43783333D01*
X28204342Y-43783333D02*
X28299580Y-43830952D01*
X28299580Y-43830952D02*
X28347200Y-43878571D01*
X28347200Y-43878571D02*
X28394819Y-43973809D01*
X28394819Y-43973809D02*
X28394819Y-44259523D01*
X28394819Y-44259523D02*
X28347200Y-44354761D01*
X28347200Y-44354761D02*
X28299580Y-44402380D01*
X162014819Y-79549523D02*
X162729104Y-79549523D01*
X162729104Y-79549523D02*
X162871961Y-79597142D01*
X162871961Y-79597142D02*
X162967200Y-79692380D01*
X162967200Y-79692380D02*
X163014819Y-79835237D01*
X163014819Y-79835237D02*
X163014819Y-79930475D01*
X163014819Y-78549523D02*
X163014819Y-79120951D01*
X163014819Y-78835237D02*
X162014819Y-78835237D01*
X162014819Y-78835237D02*
X162157676Y-78930475D01*
X162157676Y-78930475D02*
X162252914Y-79025713D01*
X162252914Y-79025713D02*
X162300533Y-79120951D01*
X162443390Y-77978094D02*
X162395771Y-78073332D01*
X162395771Y-78073332D02*
X162348152Y-78120951D01*
X162348152Y-78120951D02*
X162252914Y-78168570D01*
X162252914Y-78168570D02*
X162205295Y-78168570D01*
X162205295Y-78168570D02*
X162110057Y-78120951D01*
X162110057Y-78120951D02*
X162062438Y-78073332D01*
X162062438Y-78073332D02*
X162014819Y-77978094D01*
X162014819Y-77978094D02*
X162014819Y-77787618D01*
X162014819Y-77787618D02*
X162062438Y-77692380D01*
X162062438Y-77692380D02*
X162110057Y-77644761D01*
X162110057Y-77644761D02*
X162205295Y-77597142D01*
X162205295Y-77597142D02*
X162252914Y-77597142D01*
X162252914Y-77597142D02*
X162348152Y-77644761D01*
X162348152Y-77644761D02*
X162395771Y-77692380D01*
X162395771Y-77692380D02*
X162443390Y-77787618D01*
X162443390Y-77787618D02*
X162443390Y-77978094D01*
X162443390Y-77978094D02*
X162491009Y-78073332D01*
X162491009Y-78073332D02*
X162538628Y-78120951D01*
X162538628Y-78120951D02*
X162633866Y-78168570D01*
X162633866Y-78168570D02*
X162824342Y-78168570D01*
X162824342Y-78168570D02*
X162919580Y-78120951D01*
X162919580Y-78120951D02*
X162967200Y-78073332D01*
X162967200Y-78073332D02*
X163014819Y-77978094D01*
X163014819Y-77978094D02*
X163014819Y-77787618D01*
X163014819Y-77787618D02*
X162967200Y-77692380D01*
X162967200Y-77692380D02*
X162919580Y-77644761D01*
X162919580Y-77644761D02*
X162824342Y-77597142D01*
X162824342Y-77597142D02*
X162633866Y-77597142D01*
X162633866Y-77597142D02*
X162538628Y-77644761D01*
X162538628Y-77644761D02*
X162491009Y-77692380D01*
X162491009Y-77692380D02*
X162443390Y-77787618D01*
X37554819Y-102409523D02*
X38269104Y-102409523D01*
X38269104Y-102409523D02*
X38411961Y-102457142D01*
X38411961Y-102457142D02*
X38507200Y-102552380D01*
X38507200Y-102552380D02*
X38554819Y-102695237D01*
X38554819Y-102695237D02*
X38554819Y-102790475D01*
X37650057Y-101980951D02*
X37602438Y-101933332D01*
X37602438Y-101933332D02*
X37554819Y-101838094D01*
X37554819Y-101838094D02*
X37554819Y-101599999D01*
X37554819Y-101599999D02*
X37602438Y-101504761D01*
X37602438Y-101504761D02*
X37650057Y-101457142D01*
X37650057Y-101457142D02*
X37745295Y-101409523D01*
X37745295Y-101409523D02*
X37840533Y-101409523D01*
X37840533Y-101409523D02*
X37983390Y-101457142D01*
X37983390Y-101457142D02*
X38554819Y-102028570D01*
X38554819Y-102028570D02*
X38554819Y-101409523D01*
X37650057Y-101028570D02*
X37602438Y-100980951D01*
X37602438Y-100980951D02*
X37554819Y-100885713D01*
X37554819Y-100885713D02*
X37554819Y-100647618D01*
X37554819Y-100647618D02*
X37602438Y-100552380D01*
X37602438Y-100552380D02*
X37650057Y-100504761D01*
X37650057Y-100504761D02*
X37745295Y-100457142D01*
X37745295Y-100457142D02*
X37840533Y-100457142D01*
X37840533Y-100457142D02*
X37983390Y-100504761D01*
X37983390Y-100504761D02*
X38554819Y-101076189D01*
X38554819Y-101076189D02*
X38554819Y-100457142D01*
X47714819Y-127809523D02*
X48429104Y-127809523D01*
X48429104Y-127809523D02*
X48571961Y-127857142D01*
X48571961Y-127857142D02*
X48667200Y-127952380D01*
X48667200Y-127952380D02*
X48714819Y-128095237D01*
X48714819Y-128095237D02*
X48714819Y-128190475D01*
X48714819Y-126809523D02*
X48714819Y-127380951D01*
X48714819Y-127095237D02*
X47714819Y-127095237D01*
X47714819Y-127095237D02*
X47857676Y-127190475D01*
X47857676Y-127190475D02*
X47952914Y-127285713D01*
X47952914Y-127285713D02*
X48000533Y-127380951D01*
X48048152Y-125952380D02*
X48714819Y-125952380D01*
X47667200Y-126190475D02*
X48381485Y-126428570D01*
X48381485Y-126428570D02*
X48381485Y-125809523D01*
D12*
X140579524Y-53703855D02*
X140579524Y-52903855D01*
X140579524Y-52903855D02*
X140770000Y-52903855D01*
X140770000Y-52903855D02*
X140884286Y-52941950D01*
X140884286Y-52941950D02*
X140960476Y-53018140D01*
X140960476Y-53018140D02*
X140998571Y-53094331D01*
X140998571Y-53094331D02*
X141036667Y-53246712D01*
X141036667Y-53246712D02*
X141036667Y-53360998D01*
X141036667Y-53360998D02*
X140998571Y-53513379D01*
X140998571Y-53513379D02*
X140960476Y-53589569D01*
X140960476Y-53589569D02*
X140884286Y-53665760D01*
X140884286Y-53665760D02*
X140770000Y-53703855D01*
X140770000Y-53703855D02*
X140579524Y-53703855D01*
X141722381Y-52903855D02*
X141570000Y-52903855D01*
X141570000Y-52903855D02*
X141493809Y-52941950D01*
X141493809Y-52941950D02*
X141455714Y-52980045D01*
X141455714Y-52980045D02*
X141379524Y-53094331D01*
X141379524Y-53094331D02*
X141341428Y-53246712D01*
X141341428Y-53246712D02*
X141341428Y-53551474D01*
X141341428Y-53551474D02*
X141379524Y-53627664D01*
X141379524Y-53627664D02*
X141417619Y-53665760D01*
X141417619Y-53665760D02*
X141493809Y-53703855D01*
X141493809Y-53703855D02*
X141646190Y-53703855D01*
X141646190Y-53703855D02*
X141722381Y-53665760D01*
X141722381Y-53665760D02*
X141760476Y-53627664D01*
X141760476Y-53627664D02*
X141798571Y-53551474D01*
X141798571Y-53551474D02*
X141798571Y-53360998D01*
X141798571Y-53360998D02*
X141760476Y-53284807D01*
X141760476Y-53284807D02*
X141722381Y-53246712D01*
X141722381Y-53246712D02*
X141646190Y-53208617D01*
X141646190Y-53208617D02*
X141493809Y-53208617D01*
X141493809Y-53208617D02*
X141417619Y-53246712D01*
X141417619Y-53246712D02*
X141379524Y-53284807D01*
X141379524Y-53284807D02*
X141341428Y-53360998D01*
D10*
X142549523Y-35394819D02*
X142216190Y-34918628D01*
X141978095Y-35394819D02*
X141978095Y-34394819D01*
X141978095Y-34394819D02*
X142359047Y-34394819D01*
X142359047Y-34394819D02*
X142454285Y-34442438D01*
X142454285Y-34442438D02*
X142501904Y-34490057D01*
X142501904Y-34490057D02*
X142549523Y-34585295D01*
X142549523Y-34585295D02*
X142549523Y-34728152D01*
X142549523Y-34728152D02*
X142501904Y-34823390D01*
X142501904Y-34823390D02*
X142454285Y-34871009D01*
X142454285Y-34871009D02*
X142359047Y-34918628D01*
X142359047Y-34918628D02*
X141978095Y-34918628D01*
D11*
X142120000Y-33347469D02*
X141880000Y-33004612D01*
X141708571Y-33347469D02*
X141708571Y-32627469D01*
X141708571Y-32627469D02*
X141982857Y-32627469D01*
X141982857Y-32627469D02*
X142051428Y-32661755D01*
X142051428Y-32661755D02*
X142085714Y-32696041D01*
X142085714Y-32696041D02*
X142120000Y-32764612D01*
X142120000Y-32764612D02*
X142120000Y-32867469D01*
X142120000Y-32867469D02*
X142085714Y-32936041D01*
X142085714Y-32936041D02*
X142051428Y-32970326D01*
X142051428Y-32970326D02*
X141982857Y-33004612D01*
X141982857Y-33004612D02*
X141708571Y-33004612D01*
X142360000Y-32627469D02*
X142805714Y-32627469D01*
X142805714Y-32627469D02*
X142565714Y-32901755D01*
X142565714Y-32901755D02*
X142668571Y-32901755D01*
X142668571Y-32901755D02*
X142737143Y-32936041D01*
X142737143Y-32936041D02*
X142771428Y-32970326D01*
X142771428Y-32970326D02*
X142805714Y-33038898D01*
X142805714Y-33038898D02*
X142805714Y-33210326D01*
X142805714Y-33210326D02*
X142771428Y-33278898D01*
X142771428Y-33278898D02*
X142737143Y-33313184D01*
X142737143Y-33313184D02*
X142668571Y-33347469D01*
X142668571Y-33347469D02*
X142462857Y-33347469D01*
X142462857Y-33347469D02*
X142394285Y-33313184D01*
X142394285Y-33313184D02*
X142360000Y-33278898D01*
D10*
X73921904Y-55806133D02*
X73874285Y-55853752D01*
X73874285Y-55853752D02*
X73779047Y-55901371D01*
X73779047Y-55901371D02*
X73588571Y-55806133D01*
X73588571Y-55806133D02*
X73493333Y-55853752D01*
X73493333Y-55853752D02*
X73445714Y-55901371D01*
X27606667Y-32594819D02*
X27606667Y-31594819D01*
X27606667Y-31594819D02*
X27940000Y-32309104D01*
X27940000Y-32309104D02*
X28273333Y-31594819D01*
X28273333Y-31594819D02*
X28273333Y-32594819D01*
X27178095Y-28394819D02*
X27178095Y-27394819D01*
X27178095Y-27871009D02*
X27749523Y-27871009D01*
X27749523Y-28394819D02*
X27749523Y-27394819D01*
X28654285Y-27728152D02*
X28654285Y-28394819D01*
X28416190Y-27347200D02*
X28178095Y-28061485D01*
X28178095Y-28061485D02*
X28797142Y-28061485D01*
X163830476Y-142104819D02*
X163830476Y-142819104D01*
X163830476Y-142819104D02*
X163782857Y-142961961D01*
X163782857Y-142961961D02*
X163687619Y-143057200D01*
X163687619Y-143057200D02*
X163544762Y-143104819D01*
X163544762Y-143104819D02*
X163449524Y-143104819D01*
X164830476Y-143104819D02*
X164259048Y-143104819D01*
X164544762Y-143104819D02*
X164544762Y-142104819D01*
X164544762Y-142104819D02*
X164449524Y-142247676D01*
X164449524Y-142247676D02*
X164354286Y-142342914D01*
X164354286Y-142342914D02*
X164259048Y-142390533D01*
X165449524Y-142104819D02*
X165544762Y-142104819D01*
X165544762Y-142104819D02*
X165640000Y-142152438D01*
X165640000Y-142152438D02*
X165687619Y-142200057D01*
X165687619Y-142200057D02*
X165735238Y-142295295D01*
X165735238Y-142295295D02*
X165782857Y-142485771D01*
X165782857Y-142485771D02*
X165782857Y-142723866D01*
X165782857Y-142723866D02*
X165735238Y-142914342D01*
X165735238Y-142914342D02*
X165687619Y-143009580D01*
X165687619Y-143009580D02*
X165640000Y-143057200D01*
X165640000Y-143057200D02*
X165544762Y-143104819D01*
X165544762Y-143104819D02*
X165449524Y-143104819D01*
X165449524Y-143104819D02*
X165354286Y-143057200D01*
X165354286Y-143057200D02*
X165306667Y-143009580D01*
X165306667Y-143009580D02*
X165259048Y-142914342D01*
X165259048Y-142914342D02*
X165211429Y-142723866D01*
X165211429Y-142723866D02*
X165211429Y-142485771D01*
X165211429Y-142485771D02*
X165259048Y-142295295D01*
X165259048Y-142295295D02*
X165306667Y-142200057D01*
X165306667Y-142200057D02*
X165354286Y-142152438D01*
X165354286Y-142152438D02*
X165449524Y-142104819D01*
X27606667Y-151974819D02*
X27606667Y-150974819D01*
X27606667Y-150974819D02*
X27940000Y-151689104D01*
X27940000Y-151689104D02*
X28273333Y-150974819D01*
X28273333Y-150974819D02*
X28273333Y-151974819D01*
X27178095Y-147774819D02*
X27178095Y-146774819D01*
X27178095Y-147251009D02*
X27749523Y-147251009D01*
X27749523Y-147774819D02*
X27749523Y-146774819D01*
X28130476Y-146774819D02*
X28749523Y-146774819D01*
X28749523Y-146774819D02*
X28416190Y-147155771D01*
X28416190Y-147155771D02*
X28559047Y-147155771D01*
X28559047Y-147155771D02*
X28654285Y-147203390D01*
X28654285Y-147203390D02*
X28701904Y-147251009D01*
X28701904Y-147251009D02*
X28749523Y-147346247D01*
X28749523Y-147346247D02*
X28749523Y-147584342D01*
X28749523Y-147584342D02*
X28701904Y-147679580D01*
X28701904Y-147679580D02*
X28654285Y-147727200D01*
X28654285Y-147727200D02*
X28559047Y-147774819D01*
X28559047Y-147774819D02*
X28273333Y-147774819D01*
X28273333Y-147774819D02*
X28178095Y-147727200D01*
X28178095Y-147727200D02*
X28130476Y-147679580D01*
X119641904Y-55806133D02*
X119594285Y-55853752D01*
X119594285Y-55853752D02*
X119499047Y-55901371D01*
X119499047Y-55901371D02*
X119308571Y-55806133D01*
X119308571Y-55806133D02*
X119213333Y-55853752D01*
X119213333Y-55853752D02*
X119165714Y-55901371D01*
X97054819Y-135505238D02*
X96578628Y-135838571D01*
X97054819Y-136076666D02*
X96054819Y-136076666D01*
X96054819Y-136076666D02*
X96054819Y-135695714D01*
X96054819Y-135695714D02*
X96102438Y-135600476D01*
X96102438Y-135600476D02*
X96150057Y-135552857D01*
X96150057Y-135552857D02*
X96245295Y-135505238D01*
X96245295Y-135505238D02*
X96388152Y-135505238D01*
X96388152Y-135505238D02*
X96483390Y-135552857D01*
X96483390Y-135552857D02*
X96531009Y-135600476D01*
X96531009Y-135600476D02*
X96578628Y-135695714D01*
X96578628Y-135695714D02*
X96578628Y-136076666D01*
X96054819Y-135219523D02*
X97054819Y-134886190D01*
X97054819Y-134886190D02*
X96054819Y-134552857D01*
X97054819Y-133695714D02*
X97054819Y-134267142D01*
X97054819Y-133981428D02*
X96054819Y-133981428D01*
X96054819Y-133981428D02*
X96197676Y-134076666D01*
X96197676Y-134076666D02*
X96292914Y-134171904D01*
X96292914Y-134171904D02*
X96340533Y-134267142D01*
X154394819Y-94789523D02*
X155109104Y-94789523D01*
X155109104Y-94789523D02*
X155251961Y-94837142D01*
X155251961Y-94837142D02*
X155347200Y-94932380D01*
X155347200Y-94932380D02*
X155394819Y-95075237D01*
X155394819Y-95075237D02*
X155394819Y-95170475D01*
X154490057Y-94360951D02*
X154442438Y-94313332D01*
X154442438Y-94313332D02*
X154394819Y-94218094D01*
X154394819Y-94218094D02*
X154394819Y-93979999D01*
X154394819Y-93979999D02*
X154442438Y-93884761D01*
X154442438Y-93884761D02*
X154490057Y-93837142D01*
X154490057Y-93837142D02*
X154585295Y-93789523D01*
X154585295Y-93789523D02*
X154680533Y-93789523D01*
X154680533Y-93789523D02*
X154823390Y-93837142D01*
X154823390Y-93837142D02*
X155394819Y-94408570D01*
X155394819Y-94408570D02*
X155394819Y-93789523D01*
X154394819Y-93456189D02*
X154394819Y-92837142D01*
X154394819Y-92837142D02*
X154775771Y-93170475D01*
X154775771Y-93170475D02*
X154775771Y-93027618D01*
X154775771Y-93027618D02*
X154823390Y-92932380D01*
X154823390Y-92932380D02*
X154871009Y-92884761D01*
X154871009Y-92884761D02*
X154966247Y-92837142D01*
X154966247Y-92837142D02*
X155204342Y-92837142D01*
X155204342Y-92837142D02*
X155299580Y-92884761D01*
X155299580Y-92884761D02*
X155347200Y-92932380D01*
X155347200Y-92932380D02*
X155394819Y-93027618D01*
X155394819Y-93027618D02*
X155394819Y-93313332D01*
X155394819Y-93313332D02*
X155347200Y-93408570D01*
X155347200Y-93408570D02*
X155299580Y-93456189D01*
X105719523Y-31554819D02*
X105386190Y-31078628D01*
X105148095Y-31554819D02*
X105148095Y-30554819D01*
X105148095Y-30554819D02*
X105529047Y-30554819D01*
X105529047Y-30554819D02*
X105624285Y-30602438D01*
X105624285Y-30602438D02*
X105671904Y-30650057D01*
X105671904Y-30650057D02*
X105719523Y-30745295D01*
X105719523Y-30745295D02*
X105719523Y-30888152D01*
X105719523Y-30888152D02*
X105671904Y-30983390D01*
X105671904Y-30983390D02*
X105624285Y-31031009D01*
X105624285Y-31031009D02*
X105529047Y-31078628D01*
X105529047Y-31078628D02*
X105148095Y-31078628D01*
D11*
X105290000Y-33347469D02*
X105050000Y-33004612D01*
X104878571Y-33347469D02*
X104878571Y-32627469D01*
X104878571Y-32627469D02*
X105152857Y-32627469D01*
X105152857Y-32627469D02*
X105221428Y-32661755D01*
X105221428Y-32661755D02*
X105255714Y-32696041D01*
X105255714Y-32696041D02*
X105290000Y-32764612D01*
X105290000Y-32764612D02*
X105290000Y-32867469D01*
X105290000Y-32867469D02*
X105255714Y-32936041D01*
X105255714Y-32936041D02*
X105221428Y-32970326D01*
X105221428Y-32970326D02*
X105152857Y-33004612D01*
X105152857Y-33004612D02*
X104878571Y-33004612D01*
X105530000Y-32627469D02*
X106010000Y-32627469D01*
X106010000Y-32627469D02*
X105701428Y-33347469D01*
D10*
X57874819Y-127809523D02*
X58589104Y-127809523D01*
X58589104Y-127809523D02*
X58731961Y-127857142D01*
X58731961Y-127857142D02*
X58827200Y-127952380D01*
X58827200Y-127952380D02*
X58874819Y-128095237D01*
X58874819Y-128095237D02*
X58874819Y-128190475D01*
X58874819Y-126809523D02*
X58874819Y-127380951D01*
X58874819Y-127095237D02*
X57874819Y-127095237D01*
X57874819Y-127095237D02*
X58017676Y-127190475D01*
X58017676Y-127190475D02*
X58112914Y-127285713D01*
X58112914Y-127285713D02*
X58160533Y-127380951D01*
X57874819Y-126476189D02*
X57874819Y-125809523D01*
X57874819Y-125809523D02*
X58874819Y-126238094D01*
X131119523Y-35394819D02*
X130786190Y-34918628D01*
X130548095Y-35394819D02*
X130548095Y-34394819D01*
X130548095Y-34394819D02*
X130929047Y-34394819D01*
X130929047Y-34394819D02*
X131024285Y-34442438D01*
X131024285Y-34442438D02*
X131071904Y-34490057D01*
X131071904Y-34490057D02*
X131119523Y-34585295D01*
X131119523Y-34585295D02*
X131119523Y-34728152D01*
X131119523Y-34728152D02*
X131071904Y-34823390D01*
X131071904Y-34823390D02*
X131024285Y-34871009D01*
X131024285Y-34871009D02*
X130929047Y-34918628D01*
X130929047Y-34918628D02*
X130548095Y-34918628D01*
D11*
X130690000Y-33347469D02*
X130450000Y-33004612D01*
X130278571Y-33347469D02*
X130278571Y-32627469D01*
X130278571Y-32627469D02*
X130552857Y-32627469D01*
X130552857Y-32627469D02*
X130621428Y-32661755D01*
X130621428Y-32661755D02*
X130655714Y-32696041D01*
X130655714Y-32696041D02*
X130690000Y-32764612D01*
X130690000Y-32764612D02*
X130690000Y-32867469D01*
X130690000Y-32867469D02*
X130655714Y-32936041D01*
X130655714Y-32936041D02*
X130621428Y-32970326D01*
X130621428Y-32970326D02*
X130552857Y-33004612D01*
X130552857Y-33004612D02*
X130278571Y-33004612D01*
X131307143Y-32867469D02*
X131307143Y-33347469D01*
X131135714Y-32593184D02*
X130964285Y-33107469D01*
X130964285Y-33107469D02*
X131410000Y-33107469D01*
D10*
X121158095Y-84624819D02*
X121158095Y-85434342D01*
X121158095Y-85434342D02*
X121205714Y-85529580D01*
X121205714Y-85529580D02*
X121253333Y-85577200D01*
X121253333Y-85577200D02*
X121348571Y-85624819D01*
X121348571Y-85624819D02*
X121539047Y-85624819D01*
X121539047Y-85624819D02*
X121634285Y-85577200D01*
X121634285Y-85577200D02*
X121681904Y-85529580D01*
X121681904Y-85529580D02*
X121729523Y-85434342D01*
X121729523Y-85434342D02*
X121729523Y-84624819D01*
X122729523Y-85624819D02*
X122158095Y-85624819D01*
X122443809Y-85624819D02*
X122443809Y-84624819D01*
X122443809Y-84624819D02*
X122348571Y-84767676D01*
X122348571Y-84767676D02*
X122253333Y-84862914D01*
X122253333Y-84862914D02*
X122158095Y-84910533D01*
X48756667Y-64197200D02*
X48899524Y-64244819D01*
X48899524Y-64244819D02*
X49137619Y-64244819D01*
X49137619Y-64244819D02*
X49232857Y-64197200D01*
X49232857Y-64197200D02*
X49280476Y-64149580D01*
X49280476Y-64149580D02*
X49328095Y-64054342D01*
X49328095Y-64054342D02*
X49328095Y-63959104D01*
X49328095Y-63959104D02*
X49280476Y-63863866D01*
X49280476Y-63863866D02*
X49232857Y-63816247D01*
X49232857Y-63816247D02*
X49137619Y-63768628D01*
X49137619Y-63768628D02*
X48947143Y-63721009D01*
X48947143Y-63721009D02*
X48851905Y-63673390D01*
X48851905Y-63673390D02*
X48804286Y-63625771D01*
X48804286Y-63625771D02*
X48756667Y-63530533D01*
X48756667Y-63530533D02*
X48756667Y-63435295D01*
X48756667Y-63435295D02*
X48804286Y-63340057D01*
X48804286Y-63340057D02*
X48851905Y-63292438D01*
X48851905Y-63292438D02*
X48947143Y-63244819D01*
X48947143Y-63244819D02*
X49185238Y-63244819D01*
X49185238Y-63244819D02*
X49328095Y-63292438D01*
X49661429Y-63244819D02*
X49899524Y-64244819D01*
X49899524Y-64244819D02*
X50090000Y-63530533D01*
X50090000Y-63530533D02*
X50280476Y-64244819D01*
X50280476Y-64244819D02*
X50518572Y-63244819D01*
X51423333Y-64244819D02*
X50851905Y-64244819D01*
X51137619Y-64244819D02*
X51137619Y-63244819D01*
X51137619Y-63244819D02*
X51042381Y-63387676D01*
X51042381Y-63387676D02*
X50947143Y-63482914D01*
X50947143Y-63482914D02*
X50851905Y-63530533D01*
X130639523Y-127529580D02*
X130591904Y-127577200D01*
X130591904Y-127577200D02*
X130449047Y-127624819D01*
X130449047Y-127624819D02*
X130353809Y-127624819D01*
X130353809Y-127624819D02*
X130210952Y-127577200D01*
X130210952Y-127577200D02*
X130115714Y-127481961D01*
X130115714Y-127481961D02*
X130068095Y-127386723D01*
X130068095Y-127386723D02*
X130020476Y-127196247D01*
X130020476Y-127196247D02*
X130020476Y-127053390D01*
X130020476Y-127053390D02*
X130068095Y-126862914D01*
X130068095Y-126862914D02*
X130115714Y-126767676D01*
X130115714Y-126767676D02*
X130210952Y-126672438D01*
X130210952Y-126672438D02*
X130353809Y-126624819D01*
X130353809Y-126624819D02*
X130449047Y-126624819D01*
X130449047Y-126624819D02*
X130591904Y-126672438D01*
X130591904Y-126672438D02*
X130639523Y-126720057D01*
X130163333Y-122279580D02*
X130115714Y-122327200D01*
X130115714Y-122327200D02*
X129972857Y-122374819D01*
X129972857Y-122374819D02*
X129877619Y-122374819D01*
X129877619Y-122374819D02*
X129734762Y-122327200D01*
X129734762Y-122327200D02*
X129639524Y-122231961D01*
X129639524Y-122231961D02*
X129591905Y-122136723D01*
X129591905Y-122136723D02*
X129544286Y-121946247D01*
X129544286Y-121946247D02*
X129544286Y-121803390D01*
X129544286Y-121803390D02*
X129591905Y-121612914D01*
X129591905Y-121612914D02*
X129639524Y-121517676D01*
X129639524Y-121517676D02*
X129734762Y-121422438D01*
X129734762Y-121422438D02*
X129877619Y-121374819D01*
X129877619Y-121374819D02*
X129972857Y-121374819D01*
X129972857Y-121374819D02*
X130115714Y-121422438D01*
X130115714Y-121422438D02*
X130163333Y-121470057D01*
X131020476Y-121708152D02*
X131020476Y-122374819D01*
X130782381Y-121327200D02*
X130544286Y-122041485D01*
X130544286Y-122041485D02*
X131163333Y-122041485D01*
X27394819Y-115903333D02*
X28109104Y-115903333D01*
X28109104Y-115903333D02*
X28251961Y-115950952D01*
X28251961Y-115950952D02*
X28347200Y-116046190D01*
X28347200Y-116046190D02*
X28394819Y-116189047D01*
X28394819Y-116189047D02*
X28394819Y-116284285D01*
X27394819Y-115522380D02*
X27394819Y-114855714D01*
X27394819Y-114855714D02*
X28394819Y-115284285D01*
X65079523Y-35394819D02*
X64746190Y-34918628D01*
X64508095Y-35394819D02*
X64508095Y-34394819D01*
X64508095Y-34394819D02*
X64889047Y-34394819D01*
X64889047Y-34394819D02*
X64984285Y-34442438D01*
X64984285Y-34442438D02*
X65031904Y-34490057D01*
X65031904Y-34490057D02*
X65079523Y-34585295D01*
X65079523Y-34585295D02*
X65079523Y-34728152D01*
X65079523Y-34728152D02*
X65031904Y-34823390D01*
X65031904Y-34823390D02*
X64984285Y-34871009D01*
X64984285Y-34871009D02*
X64889047Y-34918628D01*
X64889047Y-34918628D02*
X64508095Y-34918628D01*
D11*
X64650000Y-33347469D02*
X64410000Y-33004612D01*
X64238571Y-33347469D02*
X64238571Y-32627469D01*
X64238571Y-32627469D02*
X64512857Y-32627469D01*
X64512857Y-32627469D02*
X64581428Y-32661755D01*
X64581428Y-32661755D02*
X64615714Y-32696041D01*
X64615714Y-32696041D02*
X64650000Y-32764612D01*
X64650000Y-32764612D02*
X64650000Y-32867469D01*
X64650000Y-32867469D02*
X64615714Y-32936041D01*
X64615714Y-32936041D02*
X64581428Y-32970326D01*
X64581428Y-32970326D02*
X64512857Y-33004612D01*
X64512857Y-33004612D02*
X64238571Y-33004612D01*
X64924285Y-32696041D02*
X64958571Y-32661755D01*
X64958571Y-32661755D02*
X65027143Y-32627469D01*
X65027143Y-32627469D02*
X65198571Y-32627469D01*
X65198571Y-32627469D02*
X65267143Y-32661755D01*
X65267143Y-32661755D02*
X65301428Y-32696041D01*
X65301428Y-32696041D02*
X65335714Y-32764612D01*
X65335714Y-32764612D02*
X65335714Y-32833184D01*
X65335714Y-32833184D02*
X65301428Y-32936041D01*
X65301428Y-32936041D02*
X64890000Y-33347469D01*
X64890000Y-33347469D02*
X65335714Y-33347469D01*
D10*
X117149523Y-35394819D02*
X116816190Y-34918628D01*
X116578095Y-35394819D02*
X116578095Y-34394819D01*
X116578095Y-34394819D02*
X116959047Y-34394819D01*
X116959047Y-34394819D02*
X117054285Y-34442438D01*
X117054285Y-34442438D02*
X117101904Y-34490057D01*
X117101904Y-34490057D02*
X117149523Y-34585295D01*
X117149523Y-34585295D02*
X117149523Y-34728152D01*
X117149523Y-34728152D02*
X117101904Y-34823390D01*
X117101904Y-34823390D02*
X117054285Y-34871009D01*
X117054285Y-34871009D02*
X116959047Y-34918628D01*
X116959047Y-34918628D02*
X116578095Y-34918628D01*
D11*
X116720000Y-33347469D02*
X116480000Y-33004612D01*
X116308571Y-33347469D02*
X116308571Y-32627469D01*
X116308571Y-32627469D02*
X116582857Y-32627469D01*
X116582857Y-32627469D02*
X116651428Y-32661755D01*
X116651428Y-32661755D02*
X116685714Y-32696041D01*
X116685714Y-32696041D02*
X116720000Y-32764612D01*
X116720000Y-32764612D02*
X116720000Y-32867469D01*
X116720000Y-32867469D02*
X116685714Y-32936041D01*
X116685714Y-32936041D02*
X116651428Y-32970326D01*
X116651428Y-32970326D02*
X116582857Y-33004612D01*
X116582857Y-33004612D02*
X116308571Y-33004612D01*
X117337143Y-32627469D02*
X117200000Y-32627469D01*
X117200000Y-32627469D02*
X117131428Y-32661755D01*
X117131428Y-32661755D02*
X117097143Y-32696041D01*
X117097143Y-32696041D02*
X117028571Y-32798898D01*
X117028571Y-32798898D02*
X116994285Y-32936041D01*
X116994285Y-32936041D02*
X116994285Y-33210326D01*
X116994285Y-33210326D02*
X117028571Y-33278898D01*
X117028571Y-33278898D02*
X117062857Y-33313184D01*
X117062857Y-33313184D02*
X117131428Y-33347469D01*
X117131428Y-33347469D02*
X117268571Y-33347469D01*
X117268571Y-33347469D02*
X117337143Y-33313184D01*
X117337143Y-33313184D02*
X117371428Y-33278898D01*
X117371428Y-33278898D02*
X117405714Y-33210326D01*
X117405714Y-33210326D02*
X117405714Y-33038898D01*
X117405714Y-33038898D02*
X117371428Y-32970326D01*
X117371428Y-32970326D02*
X117337143Y-32936041D01*
X117337143Y-32936041D02*
X117268571Y-32901755D01*
X117268571Y-32901755D02*
X117131428Y-32901755D01*
X117131428Y-32901755D02*
X117062857Y-32936041D01*
X117062857Y-32936041D02*
X117028571Y-32970326D01*
X117028571Y-32970326D02*
X116994285Y-33038898D01*
D10*
X154394819Y-66849523D02*
X155109104Y-66849523D01*
X155109104Y-66849523D02*
X155251961Y-66897142D01*
X155251961Y-66897142D02*
X155347200Y-66992380D01*
X155347200Y-66992380D02*
X155394819Y-67135237D01*
X155394819Y-67135237D02*
X155394819Y-67230475D01*
X155394819Y-65849523D02*
X155394819Y-66420951D01*
X155394819Y-66135237D02*
X154394819Y-66135237D01*
X154394819Y-66135237D02*
X154537676Y-66230475D01*
X154537676Y-66230475D02*
X154632914Y-66325713D01*
X154632914Y-66325713D02*
X154680533Y-66420951D01*
X154394819Y-64944761D02*
X154394819Y-65420951D01*
X154394819Y-65420951D02*
X154871009Y-65468570D01*
X154871009Y-65468570D02*
X154823390Y-65420951D01*
X154823390Y-65420951D02*
X154775771Y-65325713D01*
X154775771Y-65325713D02*
X154775771Y-65087618D01*
X154775771Y-65087618D02*
X154823390Y-64992380D01*
X154823390Y-64992380D02*
X154871009Y-64944761D01*
X154871009Y-64944761D02*
X154966247Y-64897142D01*
X154966247Y-64897142D02*
X155204342Y-64897142D01*
X155204342Y-64897142D02*
X155299580Y-64944761D01*
X155299580Y-64944761D02*
X155347200Y-64992380D01*
X155347200Y-64992380D02*
X155394819Y-65087618D01*
X155394819Y-65087618D02*
X155394819Y-65325713D01*
X155394819Y-65325713D02*
X155347200Y-65420951D01*
X155347200Y-65420951D02*
X155299580Y-65468570D01*
X133858095Y-84624819D02*
X133858095Y-85434342D01*
X133858095Y-85434342D02*
X133905714Y-85529580D01*
X133905714Y-85529580D02*
X133953333Y-85577200D01*
X133953333Y-85577200D02*
X134048571Y-85624819D01*
X134048571Y-85624819D02*
X134239047Y-85624819D01*
X134239047Y-85624819D02*
X134334285Y-85577200D01*
X134334285Y-85577200D02*
X134381904Y-85529580D01*
X134381904Y-85529580D02*
X134429523Y-85434342D01*
X134429523Y-85434342D02*
X134429523Y-84624819D01*
X134858095Y-84720057D02*
X134905714Y-84672438D01*
X134905714Y-84672438D02*
X135000952Y-84624819D01*
X135000952Y-84624819D02*
X135239047Y-84624819D01*
X135239047Y-84624819D02*
X135334285Y-84672438D01*
X135334285Y-84672438D02*
X135381904Y-84720057D01*
X135381904Y-84720057D02*
X135429523Y-84815295D01*
X135429523Y-84815295D02*
X135429523Y-84910533D01*
X135429523Y-84910533D02*
X135381904Y-85053390D01*
X135381904Y-85053390D02*
X134810476Y-85624819D01*
X134810476Y-85624819D02*
X135429523Y-85624819D01*
X158488095Y-44523866D02*
X158535714Y-44476247D01*
X158535714Y-44476247D02*
X158630952Y-44428628D01*
X158630952Y-44428628D02*
X158821428Y-44523866D01*
X158821428Y-44523866D02*
X158916666Y-44476247D01*
X158916666Y-44476247D02*
X158964285Y-44428628D01*
X162014819Y-125269523D02*
X162729104Y-125269523D01*
X162729104Y-125269523D02*
X162871961Y-125317142D01*
X162871961Y-125317142D02*
X162967200Y-125412380D01*
X162967200Y-125412380D02*
X163014819Y-125555237D01*
X163014819Y-125555237D02*
X163014819Y-125650475D01*
X162110057Y-124840951D02*
X162062438Y-124793332D01*
X162062438Y-124793332D02*
X162014819Y-124698094D01*
X162014819Y-124698094D02*
X162014819Y-124459999D01*
X162014819Y-124459999D02*
X162062438Y-124364761D01*
X162062438Y-124364761D02*
X162110057Y-124317142D01*
X162110057Y-124317142D02*
X162205295Y-124269523D01*
X162205295Y-124269523D02*
X162300533Y-124269523D01*
X162300533Y-124269523D02*
X162443390Y-124317142D01*
X162443390Y-124317142D02*
X163014819Y-124888570D01*
X163014819Y-124888570D02*
X163014819Y-124269523D01*
X162348152Y-123412380D02*
X163014819Y-123412380D01*
X161967200Y-123650475D02*
X162681485Y-123888570D01*
X162681485Y-123888570D02*
X162681485Y-123269523D01*
D13*
%TO.C,R1*%
X53340000Y-33020000D02*
X51330000Y-33020000D01*
X51330000Y-33820000D02*
X51330000Y-32220000D01*
X51330000Y-32220000D02*
X47730000Y-32220000D01*
X47730000Y-33820000D02*
X51330000Y-33820000D01*
X47730000Y-32220000D02*
X47730000Y-33820000D01*
X45720000Y-33020000D02*
X47730000Y-33020000D01*
%TO.C,J21*%
X36830000Y-74930000D02*
X38735000Y-74930000D01*
X36830000Y-85090000D02*
X36830000Y-74930000D01*
X38735000Y-74930000D02*
X39370000Y-75565000D01*
X39370000Y-75565000D02*
X39370000Y-85090000D01*
X39370000Y-85090000D02*
X36830000Y-85090000D01*
%TO.C,D1*%
X154940000Y-104140000D02*
X154940000Y-106620000D01*
X156290000Y-106620000D02*
X153590000Y-106620000D01*
X153590000Y-106620000D02*
X153590000Y-111820000D01*
X156290000Y-107300000D02*
X153590000Y-107300000D01*
X156290000Y-107400000D02*
X153590000Y-107400000D01*
X156290000Y-107500000D02*
X153590000Y-107500000D01*
X156290000Y-111820000D02*
X156290000Y-106620000D01*
X153590000Y-111820000D02*
X156290000Y-111820000D01*
X154940000Y-114300000D02*
X154940000Y-111820000D01*
%TO.C,J25*%
X161290000Y-90170000D02*
X163195000Y-90170000D01*
X161290000Y-97790000D02*
X161290000Y-90170000D01*
X163195000Y-90170000D02*
X163830000Y-90805000D01*
X163830000Y-90805000D02*
X163830000Y-97790000D01*
X163830000Y-97790000D02*
X161290000Y-97790000D01*
%TO.C,J2*%
X59960000Y-137700000D02*
X59960000Y-149700000D01*
X59960000Y-149700000D02*
X82280000Y-149700000D01*
X63500000Y-139200000D02*
X62550000Y-137700000D01*
X64450000Y-137700000D02*
X63500000Y-139200000D01*
X82280000Y-137700000D02*
X59960000Y-137700000D01*
X82280000Y-149700000D02*
X82280000Y-137700000D01*
%TO.C,RV2*%
X127380000Y-130990000D02*
X111380000Y-130990000D01*
X111380000Y-130990000D02*
X111380000Y-138490000D01*
X127380000Y-138490000D02*
X127380000Y-130990000D01*
X122880000Y-138490000D02*
X115880000Y-138490000D01*
X115880000Y-138490000D02*
X115880000Y-143490000D01*
X111380000Y-138490000D02*
X127380000Y-138490000D01*
X122880000Y-143490000D02*
X122880000Y-138490000D01*
X121380000Y-143490000D02*
X117380000Y-143490000D01*
X117380000Y-143490000D02*
X117380000Y-153490000D01*
X115880000Y-143490000D02*
X122880000Y-143490000D01*
X121380000Y-153490000D02*
X121380000Y-143490000D01*
X117380000Y-153490000D02*
X121380000Y-153490000D01*
%TO.C,R9*%
X44450000Y-73660000D02*
X46460000Y-73660000D01*
X46460000Y-72860000D02*
X46460000Y-74460000D01*
X46460000Y-74460000D02*
X50060000Y-74460000D01*
X50060000Y-72860000D02*
X46460000Y-72860000D01*
X50060000Y-74460000D02*
X50060000Y-72860000D01*
X52070000Y-73660000D02*
X50060000Y-73660000D01*
%TO.C,R10*%
X44450000Y-78740000D02*
X46460000Y-78740000D01*
X46460000Y-77940000D02*
X46460000Y-79540000D01*
X46460000Y-79540000D02*
X50060000Y-79540000D01*
X50060000Y-77940000D02*
X46460000Y-77940000D01*
X50060000Y-79540000D02*
X50060000Y-77940000D01*
X52070000Y-78740000D02*
X50060000Y-78740000D01*
%TO.C,C3*%
X139410000Y-114300000D02*
G75*
G03*
X131410000Y-114300000I-4000000J0D01*
G01*
X131410000Y-114300000D02*
G75*
G03*
X139410000Y-114300000I4000000J0D01*
G01*
%TO.C,J27*%
X34560000Y-137700000D02*
X34560000Y-149700000D01*
X34560000Y-149700000D02*
X56880000Y-149700000D01*
X38100000Y-139200000D02*
X37150000Y-137700000D01*
X39050000Y-137700000D02*
X38100000Y-139200000D01*
X56880000Y-137700000D02*
X34560000Y-137700000D01*
X56880000Y-149700000D02*
X56880000Y-137700000D01*
%TO.C,D3*%
X144780000Y-91440000D02*
X144780000Y-93920000D01*
X146130000Y-93920000D02*
X143430000Y-93920000D01*
X143430000Y-93920000D02*
X143430000Y-99120000D01*
X146130000Y-94600000D02*
X143430000Y-94600000D01*
X146130000Y-94700000D02*
X143430000Y-94700000D01*
X146130000Y-94800000D02*
X143430000Y-94800000D01*
X146130000Y-99120000D02*
X146130000Y-93920000D01*
X143430000Y-99120000D02*
X146130000Y-99120000D01*
X144780000Y-101600000D02*
X144780000Y-99120000D01*
%TO.C,J5*%
X26670000Y-74930000D02*
X28575000Y-74930000D01*
X26670000Y-85090000D02*
X26670000Y-74930000D01*
X28575000Y-74930000D02*
X29210000Y-75565000D01*
X29210000Y-75565000D02*
X29210000Y-85090000D01*
X29210000Y-85090000D02*
X26670000Y-85090000D01*
%TO.C,C6*%
X144490000Y-121920000D02*
G75*
G03*
X136490000Y-121920000I-4000000J0D01*
G01*
X136490000Y-121920000D02*
G75*
G03*
X144490000Y-121920000I4000000J0D01*
G01*
%TO.C,SW2*%
X139240000Y-63040000D02*
X142240000Y-63040000D01*
X139240000Y-69040000D02*
X139240000Y-63040000D01*
X142240000Y-63040000D02*
X145240000Y-63040000D01*
X145240000Y-63040000D02*
X145240000Y-69040000D01*
X145240000Y-69040000D02*
X139240000Y-69040000D01*
X144255564Y-66040000D02*
G75*
G03*
X140224436Y-66040000I-2015564J0D01*
G01*
X140224436Y-66040000D02*
G75*
G03*
X144255564Y-66040000I2015564J0D01*
G01*
%TO.C,R8*%
X95250000Y-33020000D02*
X93240000Y-33020000D01*
X93240000Y-33820000D02*
X93240000Y-32220000D01*
X93240000Y-32220000D02*
X89640000Y-32220000D01*
X89640000Y-33820000D02*
X93240000Y-33820000D01*
X89640000Y-32220000D02*
X89640000Y-33820000D01*
X87630000Y-33020000D02*
X89640000Y-33020000D01*
%TO.C,J6*%
X26670000Y-92710000D02*
X28575000Y-92710000D01*
X26670000Y-102870000D02*
X26670000Y-92710000D01*
X28575000Y-92710000D02*
X29210000Y-93345000D01*
X29210000Y-93345000D02*
X29210000Y-102870000D01*
X29210000Y-102870000D02*
X26670000Y-102870000D01*
%TO.C,J19*%
X161290000Y-62230000D02*
X163195000Y-62230000D01*
X161290000Y-69850000D02*
X161290000Y-62230000D01*
X163195000Y-62230000D02*
X163830000Y-62865000D01*
X163830000Y-62865000D02*
X163830000Y-69850000D01*
X163830000Y-69850000D02*
X161290000Y-69850000D01*
%TO.C,J4*%
X26670000Y-57150000D02*
X28575000Y-57150000D01*
X26670000Y-67310000D02*
X26670000Y-57150000D01*
X28575000Y-57150000D02*
X29210000Y-57785000D01*
X29210000Y-57785000D02*
X29210000Y-67310000D01*
X29210000Y-67310000D02*
X26670000Y-67310000D01*
%TO.C,C5*%
X154650000Y-121920000D02*
G75*
G03*
X146650000Y-121920000I-4000000J0D01*
G01*
X146650000Y-121920000D02*
G75*
G03*
X154650000Y-121920000I4000000J0D01*
G01*
%TO.C,J16*%
X153670000Y-74930000D02*
X155575000Y-74930000D01*
X153670000Y-82550000D02*
X153670000Y-74930000D01*
X155575000Y-74930000D02*
X156210000Y-75565000D01*
X156210000Y-75565000D02*
X156210000Y-82550000D01*
X156210000Y-82550000D02*
X153670000Y-82550000D01*
%TO.C,J26*%
X161290000Y-105410000D02*
X163195000Y-105410000D01*
X161290000Y-113030000D02*
X161290000Y-105410000D01*
X163195000Y-105410000D02*
X163830000Y-106045000D01*
X163830000Y-106045000D02*
X163830000Y-113030000D01*
X163830000Y-113030000D02*
X161290000Y-113030000D01*
%TO.C,D2*%
X48030000Y-41543810D02*
X48030000Y-43876190D01*
X48029446Y-43875475D02*
G75*
G03*
X48030001Y-41543810I1500554J1165475D01*
G01*
X51030000Y-42710000D02*
G75*
G03*
X48030000Y-42710000I-1500000J0D01*
G01*
X48030000Y-42710000D02*
G75*
G03*
X51030000Y-42710000I1500000J0D01*
G01*
%TO.C,J9*%
X36830000Y-39370000D02*
X38735000Y-39370000D01*
X36830000Y-49530000D02*
X36830000Y-39370000D01*
X38735000Y-39370000D02*
X39370000Y-40005000D01*
X39370000Y-40005000D02*
X39370000Y-49530000D01*
X39370000Y-49530000D02*
X36830000Y-49530000D01*
%TO.C,J8*%
X26670000Y-128270000D02*
X28575000Y-128270000D01*
X26670000Y-138430000D02*
X26670000Y-128270000D01*
X28575000Y-128270000D02*
X29210000Y-128905000D01*
X29210000Y-128905000D02*
X29210000Y-138430000D01*
X29210000Y-138430000D02*
X26670000Y-138430000D01*
%TO.C,D5*%
X139470000Y-42013810D02*
X139470000Y-44346190D01*
X139469446Y-44345475D02*
G75*
G03*
X139470001Y-42013810I1500554J1165475D01*
G01*
X142470000Y-43180000D02*
G75*
G03*
X139470000Y-43180000I-1500000J0D01*
G01*
X139470000Y-43180000D02*
G75*
G03*
X142470000Y-43180000I1500000J0D01*
G01*
%TO.C,J1*%
X156210000Y-138430000D02*
X154305000Y-138430000D01*
X156210000Y-133350000D02*
X156210000Y-138430000D01*
X154305000Y-138430000D02*
X153670000Y-137795000D01*
X153670000Y-137795000D02*
X153670000Y-133350000D01*
X153670000Y-133350000D02*
X156210000Y-133350000D01*
%TO.C,D4*%
X48030000Y-52173810D02*
X48030000Y-54506190D01*
X48029446Y-54505475D02*
G75*
G03*
X48030001Y-52173810I1500554J1165475D01*
G01*
X51030000Y-53340000D02*
G75*
G03*
X48030000Y-53340000I-1500000J0D01*
G01*
X48030000Y-53340000D02*
G75*
G03*
X51030000Y-53340000I1500000J0D01*
G01*
%TO.C,C2*%
X149570000Y-114300000D02*
G75*
G03*
X141570000Y-114300000I-4000000J0D01*
G01*
X141570000Y-114300000D02*
G75*
G03*
X149570000Y-114300000I4000000J0D01*
G01*
%TO.C,J20*%
X36830000Y-26670000D02*
X38735000Y-26670000D01*
X36830000Y-34290000D02*
X36830000Y-26670000D01*
X38735000Y-26670000D02*
X39370000Y-27305000D01*
X39370000Y-27305000D02*
X39370000Y-34290000D01*
X39370000Y-34290000D02*
X36830000Y-34290000D01*
%TO.C,J13*%
X36830000Y-118110000D02*
X38735000Y-118110000D01*
X36830000Y-125730000D02*
X36830000Y-118110000D01*
X38735000Y-118110000D02*
X39370000Y-118745000D01*
X39370000Y-118745000D02*
X39370000Y-125730000D01*
X39370000Y-125730000D02*
X36830000Y-125730000D01*
%TO.C,R5*%
X74930000Y-33020000D02*
X76940000Y-33020000D01*
X76940000Y-32220000D02*
X76940000Y-33820000D01*
X76940000Y-33820000D02*
X80540000Y-33820000D01*
X80540000Y-32220000D02*
X76940000Y-32220000D01*
X80540000Y-33820000D02*
X80540000Y-32220000D01*
X82550000Y-33020000D02*
X80540000Y-33020000D01*
%TO.C,J11*%
X36830000Y-57150000D02*
X38735000Y-57150000D01*
X36830000Y-67310000D02*
X36830000Y-57150000D01*
X38735000Y-57150000D02*
X39370000Y-57785000D01*
X39370000Y-57785000D02*
X39370000Y-67310000D01*
X39370000Y-67310000D02*
X36830000Y-67310000D01*
%TO.C,C1*%
X129250000Y-114300000D02*
G75*
G03*
X121250000Y-114300000I-4000000J0D01*
G01*
X121250000Y-114300000D02*
G75*
G03*
X129250000Y-114300000I4000000J0D01*
G01*
%TO.C,J3*%
X26670000Y-39370000D02*
X28575000Y-39370000D01*
X26670000Y-49530000D02*
X26670000Y-39370000D01*
X28575000Y-39370000D02*
X29210000Y-40005000D01*
X29210000Y-40005000D02*
X29210000Y-49530000D01*
X29210000Y-49530000D02*
X26670000Y-49530000D01*
%TO.C,J18*%
X161290000Y-74930000D02*
X163195000Y-74930000D01*
X161290000Y-82550000D02*
X161290000Y-74930000D01*
X163195000Y-74930000D02*
X163830000Y-75565000D01*
X163830000Y-75565000D02*
X163830000Y-82550000D01*
X163830000Y-82550000D02*
X161290000Y-82550000D01*
%TO.C,J22*%
X36830000Y-92710000D02*
X38735000Y-92710000D01*
X36830000Y-110490000D02*
X36830000Y-92710000D01*
X38735000Y-92710000D02*
X39370000Y-93345000D01*
X39370000Y-93345000D02*
X39370000Y-110490000D01*
X39370000Y-110490000D02*
X36830000Y-110490000D01*
%TO.C,J14*%
X46990000Y-123190000D02*
X48895000Y-123190000D01*
X46990000Y-130810000D02*
X46990000Y-123190000D01*
X48895000Y-123190000D02*
X49530000Y-123825000D01*
X49530000Y-123825000D02*
X49530000Y-130810000D01*
X49530000Y-130810000D02*
X46990000Y-130810000D01*
%TO.C,D6*%
X139470000Y-52173810D02*
X139470000Y-54506190D01*
X139469446Y-54505475D02*
G75*
G03*
X139470001Y-52173810I1500554J1165475D01*
G01*
X142470000Y-53340000D02*
G75*
G03*
X139470000Y-53340000I-1500000J0D01*
G01*
X139470000Y-53340000D02*
G75*
G03*
X142470000Y-53340000I1500000J0D01*
G01*
%TO.C,R3*%
X138430000Y-33020000D02*
X140440000Y-33020000D01*
X140440000Y-32220000D02*
X140440000Y-33820000D01*
X140440000Y-33820000D02*
X144040000Y-33820000D01*
X144040000Y-32220000D02*
X140440000Y-32220000D01*
X144040000Y-33820000D02*
X144040000Y-32220000D01*
X146050000Y-33020000D02*
X144040000Y-33020000D01*
%TO.C,J10*%
X175340000Y-144200000D02*
X175340000Y-135200000D01*
X175340000Y-135200000D02*
X160840000Y-135200000D01*
X171840000Y-144200000D02*
X171840000Y-135200000D01*
X161643213Y-144205425D02*
X160840000Y-143450000D01*
X161640000Y-144200000D02*
X175340000Y-144200000D01*
X160840000Y-135200000D02*
X160840000Y-143450000D01*
%TO.C,RV1*%
X104600000Y-131160000D02*
X88600000Y-131160000D01*
X88600000Y-131160000D02*
X88600000Y-138660000D01*
X104600000Y-138660000D02*
X104600000Y-131160000D01*
X100100000Y-138660000D02*
X93100000Y-138660000D01*
X93100000Y-138660000D02*
X93100000Y-143660000D01*
X88600000Y-138660000D02*
X104600000Y-138660000D01*
X100100000Y-143660000D02*
X100100000Y-138660000D01*
X98600000Y-143660000D02*
X94600000Y-143660000D01*
X94600000Y-143660000D02*
X94600000Y-153660000D01*
X93100000Y-143660000D02*
X100100000Y-143660000D01*
X98600000Y-153660000D02*
X98600000Y-143660000D01*
X94600000Y-153660000D02*
X98600000Y-153660000D01*
%TO.C,J23*%
X153670000Y-90170000D02*
X155575000Y-90170000D01*
X153670000Y-97790000D02*
X153670000Y-90170000D01*
X155575000Y-90170000D02*
X156210000Y-90805000D01*
X156210000Y-90805000D02*
X156210000Y-97790000D01*
X156210000Y-97790000D02*
X153670000Y-97790000D01*
%TO.C,R7*%
X109220000Y-33020000D02*
X107210000Y-33020000D01*
X107210000Y-33820000D02*
X107210000Y-32220000D01*
X107210000Y-32220000D02*
X103610000Y-32220000D01*
X103610000Y-33820000D02*
X107210000Y-33820000D01*
X103610000Y-32220000D02*
X103610000Y-33820000D01*
X101600000Y-33020000D02*
X103610000Y-33020000D01*
%TO.C,J17*%
X57150000Y-123190000D02*
X59055000Y-123190000D01*
X57150000Y-130810000D02*
X57150000Y-123190000D01*
X59055000Y-123190000D02*
X59690000Y-123825000D01*
X59690000Y-123825000D02*
X59690000Y-130810000D01*
X59690000Y-130810000D02*
X57150000Y-130810000D01*
%TO.C,R4*%
X127000000Y-33020000D02*
X129010000Y-33020000D01*
X129010000Y-32220000D02*
X129010000Y-33820000D01*
X129010000Y-33820000D02*
X132610000Y-33820000D01*
X132610000Y-32220000D02*
X129010000Y-32220000D01*
X132610000Y-33820000D02*
X132610000Y-32220000D01*
X134620000Y-33020000D02*
X132610000Y-33020000D01*
%TO.C,U1*%
X116920000Y-86290000D02*
X126920000Y-86290000D01*
X116920000Y-92690000D02*
X116920000Y-86290000D01*
X116920000Y-92690000D02*
X126920000Y-92690000D01*
X116920000Y-101940000D02*
X116920000Y-92690000D01*
X119380000Y-101940000D02*
X119380000Y-105750000D01*
X121920000Y-101940000D02*
X121920000Y-105750000D01*
X124460000Y-101940000D02*
X124460000Y-105750000D01*
X126920000Y-86290000D02*
X126920000Y-92690000D01*
X126920000Y-92690000D02*
X116920000Y-92690000D01*
X126920000Y-92690000D02*
X126920000Y-101940000D01*
X126920000Y-101940000D02*
X116920000Y-101940000D01*
X123770000Y-89090000D02*
G75*
G03*
X120070000Y-89090000I-1850000J0D01*
G01*
X120070000Y-89090000D02*
G75*
G03*
X123770000Y-89090000I1850000J0D01*
G01*
%TO.C,SW1*%
X47090000Y-60790000D02*
X50090000Y-60790000D01*
X47090000Y-66790000D02*
X47090000Y-60790000D01*
X50090000Y-60790000D02*
X53090000Y-60790000D01*
X53090000Y-60790000D02*
X53090000Y-66790000D01*
X53090000Y-66790000D02*
X47090000Y-66790000D01*
X52105564Y-63790000D02*
G75*
G03*
X48074436Y-63790000I-2015564J0D01*
G01*
X48074436Y-63790000D02*
G75*
G03*
X52105564Y-63790000I2015564J0D01*
G01*
%TO.C,C4*%
X134330000Y-121920000D02*
G75*
G03*
X126330000Y-121920000I-4000000J0D01*
G01*
X126330000Y-121920000D02*
G75*
G03*
X134330000Y-121920000I4000000J0D01*
G01*
%TO.C,J7*%
X26670000Y-110490000D02*
X28575000Y-110490000D01*
X26670000Y-120650000D02*
X26670000Y-110490000D01*
X28575000Y-110490000D02*
X29210000Y-111125000D01*
X29210000Y-111125000D02*
X29210000Y-120650000D01*
X29210000Y-120650000D02*
X26670000Y-120650000D01*
%TO.C,R2*%
X60960000Y-33020000D02*
X62970000Y-33020000D01*
X62970000Y-32220000D02*
X62970000Y-33820000D01*
X62970000Y-33820000D02*
X66570000Y-33820000D01*
X66570000Y-32220000D02*
X62970000Y-32220000D01*
X66570000Y-33820000D02*
X66570000Y-32220000D01*
X68580000Y-33020000D02*
X66570000Y-33020000D01*
%TO.C,R6*%
X113030000Y-33020000D02*
X115040000Y-33020000D01*
X115040000Y-32220000D02*
X115040000Y-33820000D01*
X115040000Y-33820000D02*
X118640000Y-33820000D01*
X118640000Y-32220000D02*
X115040000Y-32220000D01*
X118640000Y-33820000D02*
X118640000Y-32220000D01*
X120650000Y-33020000D02*
X118640000Y-33020000D01*
%TO.C,J15*%
X153670000Y-62230000D02*
X155575000Y-62230000D01*
X153670000Y-69850000D02*
X153670000Y-62230000D01*
X155575000Y-62230000D02*
X156210000Y-62865000D01*
X156210000Y-62865000D02*
X156210000Y-69850000D01*
X156210000Y-69850000D02*
X153670000Y-69850000D01*
%TO.C,U2*%
X129620000Y-86290000D02*
X139620000Y-86290000D01*
X129620000Y-92690000D02*
X129620000Y-86290000D01*
X129620000Y-92690000D02*
X139620000Y-92690000D01*
X129620000Y-101940000D02*
X129620000Y-92690000D01*
X132080000Y-101940000D02*
X132080000Y-105750000D01*
X134620000Y-101940000D02*
X134620000Y-105750000D01*
X137160000Y-101940000D02*
X137160000Y-105750000D01*
X139620000Y-86290000D02*
X139620000Y-92690000D01*
X139620000Y-92690000D02*
X129620000Y-92690000D01*
X139620000Y-92690000D02*
X139620000Y-101940000D01*
X139620000Y-101940000D02*
X129620000Y-101940000D01*
X136470000Y-89090000D02*
G75*
G03*
X132770000Y-89090000I-1850000J0D01*
G01*
X132770000Y-89090000D02*
G75*
G03*
X136470000Y-89090000I1850000J0D01*
G01*
%TO.C,J24*%
X161290000Y-120650000D02*
X163195000Y-120650000D01*
X161290000Y-128270000D02*
X161290000Y-120650000D01*
X163195000Y-120650000D02*
X163830000Y-121285000D01*
X163830000Y-121285000D02*
X163830000Y-128270000D01*
X163830000Y-128270000D02*
X161290000Y-128270000D01*
%TD*%
M02*
