G04 EAGLE Gerber RS-274X export*
G75*
%MOMM*%
%FSLAX34Y34*%
%LPD*%
%INSoldermask Top*%
%IPPOS*%
%AMOC8*
5,1,8,0,0,1.08239X$1,22.5*%
G01*
%ADD10C,2.451100*%
%ADD11C,1.727200*%
%ADD12P,1.852186X8X22.500000*%
%ADD13C,1.993900*%
%ADD14P,2.034460X8X22.500000*%
%ADD15P,2.034460X8X202.500000*%
%ADD16P,2.034460X8X112.500000*%
%ADD17C,0.959600*%


D10*
X531940Y673100D02*
X509461Y673100D01*
X379540Y673100D02*
X357061Y673100D01*
X509461Y596900D02*
X531940Y596900D01*
X379540Y596900D02*
X357061Y596900D01*
D11*
X83820Y304800D02*
X68580Y304800D01*
X68580Y330200D02*
X83820Y330200D01*
X83820Y355600D02*
X68580Y355600D01*
X68580Y381000D02*
X83820Y381000D01*
X83820Y406400D02*
X68580Y406400D01*
X68580Y431800D02*
X83820Y431800D01*
X83820Y457200D02*
X68580Y457200D01*
X68580Y279400D02*
X83820Y279400D01*
X83820Y63500D02*
X68580Y63500D01*
X68580Y88900D02*
X83820Y88900D01*
X83820Y114300D02*
X68580Y114300D01*
X68580Y139700D02*
X83820Y139700D01*
X83820Y165100D02*
X68580Y165100D01*
X68580Y190500D02*
X83820Y190500D01*
X83820Y215900D02*
X68580Y215900D01*
X68580Y38100D02*
X83820Y38100D01*
X216100Y552180D02*
X216100Y567420D01*
X241100Y567420D02*
X241100Y552180D01*
X737800Y110220D02*
X737800Y94980D01*
X762800Y94980D02*
X762800Y110220D01*
X862800Y110220D02*
X862800Y94980D01*
X787800Y94980D02*
X787800Y110220D01*
X812800Y110220D02*
X812800Y94980D01*
X837800Y94980D02*
X837800Y110220D01*
X887800Y110220D02*
X887800Y94980D01*
X912800Y94980D02*
X912800Y110220D01*
X712800Y110220D02*
X712800Y94980D01*
X737800Y272780D02*
X737800Y288020D01*
X762800Y288020D02*
X762800Y272780D01*
X862800Y272780D02*
X862800Y288020D01*
X787800Y288020D02*
X787800Y272780D01*
X812800Y272780D02*
X812800Y288020D01*
X837800Y288020D02*
X837800Y272780D01*
X887800Y272780D02*
X887800Y288020D01*
X912800Y288020D02*
X912800Y272780D01*
X712800Y272780D02*
X712800Y288020D01*
X63900Y552180D02*
X63900Y567420D01*
X88900Y567420D02*
X88900Y552180D01*
X113900Y552180D02*
X113900Y567420D01*
D12*
X330200Y533400D03*
X330200Y508000D03*
X330200Y482600D03*
X330200Y457200D03*
X330200Y431800D03*
X330200Y406400D03*
X330200Y381000D03*
X330200Y355600D03*
X330200Y330200D03*
X330200Y304800D03*
X330200Y279400D03*
X330200Y254000D03*
X330200Y228600D03*
X330200Y203200D03*
X330200Y177800D03*
X330200Y152400D03*
X330200Y127000D03*
X330200Y101600D03*
X584200Y101600D03*
X584200Y127000D03*
X584200Y152400D03*
X584200Y177800D03*
X584200Y203200D03*
X584200Y228600D03*
X584200Y254000D03*
X584200Y279400D03*
X584200Y304800D03*
X584200Y330200D03*
X584200Y355600D03*
X584200Y381000D03*
X584200Y406400D03*
X584200Y431800D03*
X584200Y457200D03*
X584200Y482600D03*
X584200Y508000D03*
X584200Y533400D03*
X1028700Y533400D03*
X1028700Y508000D03*
X1028700Y482600D03*
X1028700Y457200D03*
X1028700Y431800D03*
X1028700Y406400D03*
X1028700Y381000D03*
X1028700Y355600D03*
X1028700Y330200D03*
X1028700Y304800D03*
X1028700Y279400D03*
X1028700Y254000D03*
X1028700Y228600D03*
X1028700Y203200D03*
X1028700Y177800D03*
X1028700Y152400D03*
X1028700Y127000D03*
X1028700Y101600D03*
X1282700Y101600D03*
X1282700Y127000D03*
X1282700Y152400D03*
X1282700Y177800D03*
X1282700Y203200D03*
X1282700Y228600D03*
X1282700Y254000D03*
X1282700Y279400D03*
X1282700Y304800D03*
X1282700Y330200D03*
X1282700Y355600D03*
X1282700Y381000D03*
X1282700Y406400D03*
X1282700Y431800D03*
X1282700Y457200D03*
X1282700Y482600D03*
X1282700Y508000D03*
X1282700Y533400D03*
D13*
X1711897Y190500D02*
X1729804Y190500D01*
X1729804Y241300D02*
X1711897Y241300D01*
X1711897Y292100D02*
X1729804Y292100D01*
X1729804Y342900D02*
X1711897Y342900D01*
X1711897Y393700D02*
X1729804Y393700D01*
X1729804Y444500D02*
X1711897Y444500D01*
X1513904Y444500D02*
X1495997Y444500D01*
X1495997Y393700D02*
X1513904Y393700D01*
X1513904Y342900D02*
X1495997Y342900D01*
X1495997Y292100D02*
X1513904Y292100D01*
X1513904Y241300D02*
X1495997Y241300D01*
X1495997Y190500D02*
X1513904Y190500D01*
D11*
X825300Y437880D02*
X825300Y453120D01*
X750300Y453120D02*
X750300Y437880D01*
X775300Y437880D02*
X775300Y453120D01*
X800300Y453120D02*
X800300Y437880D01*
X850300Y437880D02*
X850300Y453120D01*
X875300Y453120D02*
X875300Y437880D01*
D14*
X406400Y469900D03*
X508000Y469900D03*
D15*
X508000Y419100D03*
X406400Y419100D03*
D14*
X406400Y368300D03*
X508000Y368300D03*
X406400Y317500D03*
X508000Y317500D03*
D15*
X508000Y266700D03*
X406400Y266700D03*
D14*
X406400Y215900D03*
X508000Y215900D03*
D11*
X660400Y577580D02*
X660400Y592820D01*
X610400Y592820D02*
X610400Y577580D01*
X635400Y577580D02*
X635400Y592820D01*
X685400Y592820D02*
X685400Y577580D01*
X710400Y577580D02*
X710400Y592820D01*
X850900Y592820D02*
X850900Y577580D01*
X800900Y577580D02*
X800900Y592820D01*
X825900Y592820D02*
X825900Y577580D01*
X875900Y577580D02*
X875900Y592820D01*
X900900Y592820D02*
X900900Y577580D01*
X1181300Y577580D02*
X1181300Y592820D01*
X1156300Y592820D02*
X1156300Y577580D01*
X1206300Y577580D02*
X1206300Y592820D01*
X1231300Y592820D02*
X1231300Y577580D01*
X1346400Y577580D02*
X1346400Y592820D01*
X1321400Y592820D02*
X1321400Y577580D01*
X1371400Y577580D02*
X1371400Y592820D01*
X1396400Y592820D02*
X1396400Y577580D01*
X1016200Y577580D02*
X1016200Y592820D01*
X991200Y592820D02*
X991200Y577580D01*
X1041200Y577580D02*
X1041200Y592820D01*
X1066200Y592820D02*
X1066200Y577580D01*
X1561900Y577580D02*
X1561900Y592820D01*
X1486900Y592820D02*
X1486900Y577580D01*
X1511900Y577580D02*
X1511900Y592820D01*
X1536900Y592820D02*
X1536900Y577580D01*
X1586900Y577580D02*
X1586900Y592820D01*
X1611900Y592820D02*
X1611900Y577580D01*
X1727400Y577580D02*
X1727400Y592820D01*
X1702400Y592820D02*
X1702400Y577580D01*
X1752400Y577580D02*
X1752400Y592820D01*
X1777400Y592820D02*
X1777400Y577580D01*
X1625400Y59420D02*
X1625400Y44180D01*
X1550400Y44180D02*
X1550400Y59420D01*
X1575400Y59420D02*
X1575400Y44180D01*
X1600400Y44180D02*
X1600400Y59420D01*
X1650400Y59420D02*
X1650400Y44180D01*
X1675400Y44180D02*
X1675400Y59420D01*
X1384500Y59420D02*
X1384500Y44180D01*
X1359500Y44180D02*
X1359500Y59420D01*
X1409500Y59420D02*
X1409500Y44180D01*
X1434500Y44180D02*
X1434500Y59420D01*
X1384500Y196580D02*
X1384500Y211820D01*
X1359500Y211820D02*
X1359500Y196580D01*
X1409500Y196580D02*
X1409500Y211820D01*
X1434500Y211820D02*
X1434500Y196580D01*
X1796780Y432000D02*
X1812020Y432000D01*
X1812020Y507000D02*
X1796780Y507000D01*
X1796780Y482000D02*
X1812020Y482000D01*
X1812020Y457000D02*
X1796780Y457000D01*
X1796780Y407000D02*
X1812020Y407000D01*
X1812020Y382000D02*
X1796780Y382000D01*
X1796780Y216100D02*
X1812020Y216100D01*
X1812020Y291100D02*
X1796780Y291100D01*
X1796780Y266100D02*
X1812020Y266100D01*
X1812020Y241100D02*
X1796780Y241100D01*
X1796780Y191100D02*
X1812020Y191100D01*
X1812020Y166100D02*
X1796780Y166100D01*
D15*
X279400Y508000D03*
X254000Y508000D03*
X279400Y457200D03*
X254000Y457200D03*
D14*
X127000Y508000D03*
X228600Y508000D03*
X127000Y457200D03*
X228600Y457200D03*
D15*
X279400Y406400D03*
X254000Y406400D03*
X279400Y355600D03*
X254000Y355600D03*
X228600Y406400D03*
X127000Y406400D03*
D14*
X127000Y355600D03*
X228600Y355600D03*
D11*
X1384500Y361680D02*
X1384500Y376920D01*
X1359500Y376920D02*
X1359500Y361680D01*
X1409500Y361680D02*
X1409500Y376920D01*
X1434500Y376920D02*
X1434500Y361680D01*
D16*
X1282700Y25400D03*
X1282700Y50800D03*
X1219200Y25400D03*
X1219200Y50800D03*
D14*
X1117600Y355600D03*
X1219200Y355600D03*
X1117600Y279400D03*
X1219200Y279400D03*
D17*
X755904Y585216D03*
X1121664Y666496D03*
X938784Y361696D03*
X1133856Y621792D03*
X1471168Y556768D03*
X1487424Y540512D03*
X983488Y32512D03*
X1324864Y65024D03*
X1398016Y89408D03*
X508000Y125984D03*
X967232Y65024D03*
X1377696Y24384D03*
X321056Y707136D03*
X1320800Y690880D03*
X1406144Y532384D03*
X682752Y243840D03*
X109728Y227584D03*
X434848Y357632D03*
X471424Y455168D03*
X666496Y617728D03*
X1016000Y93472D03*
X357632Y150368D03*
X434848Y373888D03*
X638048Y540512D03*
X438912Y455168D03*
X365760Y560832D03*
X1292352Y568960D03*
X1089152Y215392D03*
X1747520Y467360D03*
X1101344Y426720D03*
X1068832Y329184D03*
X1076960Y300736D03*
X955040Y540512D03*
X1796288Y97536D03*
X1674368Y585216D03*
X1767840Y85344D03*
X1662176Y434848D03*
X1601216Y280416D03*
X1280160Y654304D03*
X1625600Y666496D03*
X1158240Y199136D03*
X1190752Y166624D03*
X1353312Y77216D03*
X1337056Y60960D03*
X1296416Y654304D03*
X1625600Y654304D03*
X1166368Y227584D03*
X1479296Y402336D03*
X1641856Y337312D03*
X528320Y353568D03*
X316992Y447040D03*
X556768Y280416D03*
X402336Y150368D03*
X369824Y117856D03*
X260096Y215392D03*
X1190752Y130048D03*
X1219200Y101600D03*
M02*
